<svg width="1346" height="893" viewBox="0 0 1346 893" fill="none" xmlns="http://www.w3.org/2000/svg">
<path d="M19.6523 454.08V450.48H41.4773V454.08H32.5673V480H28.6073V454.08H19.6523ZM51.7429 460.02C47.9629 460.02 45.3529 462.09 44.6779 466.23H58.6729C58.4029 461.91 55.5229 460.02 51.7429 460.02ZM62.2729 469.245H44.4979C44.7229 473.97 47.2429 477.255 52.1479 477.255C56.2879 477.255 57.9529 475.32 58.6279 472.35L62.0479 473.115C61.1929 478.29 56.2879 480.585 52.1929 480.585C45.8029 480.585 40.7179 476.04 40.7179 468.57C40.7179 461.28 45.6229 456.69 51.8329 456.69C57.9979 456.69 62.2729 461.055 62.2729 467.895V469.245ZM87.5017 466.14L83.7667 466.77C83.2717 461.955 80.1667 460.02 76.6117 460.02C72.6967 460.02 69.5467 462.99 69.5467 468.615C69.5467 473.295 72.0217 477.255 77.3317 477.255C81.1567 477.255 83.5417 474.96 84.0817 470.595L87.4567 471.27C86.4217 478.2 81.5167 480.585 77.3317 480.585C70.5367 480.585 65.7667 475.635 65.7667 468.615C65.7667 461.28 70.5367 456.69 76.8367 456.69C82.0567 456.69 86.8267 460.11 87.5017 466.14ZM92.3058 449.49H96.0408V460.83C97.5708 457.905 100.946 456.69 103.511 456.69C107.651 456.69 111.251 458.715 111.251 464.79V480H107.516V466.005C107.516 461.685 105.266 460.155 102.431 460.155C98.7408 460.155 96.0408 462.27 96.0408 466.905V480H92.3058V449.49ZM128.182 460.155C124.492 460.155 121.837 462.27 121.837 466.905V480H118.102V457.32H121.837V460.83C123.367 457.905 126.652 456.69 129.307 456.69C133.357 456.69 137.047 458.715 137.047 464.79V480H133.312V465.87C133.312 461.685 131.062 460.155 128.182 460.155ZM153.033 456.69C158.973 456.69 163.878 461.19 163.878 468.615C163.878 476.04 158.973 480.585 153.033 480.585C147.048 480.585 142.188 476.04 142.188 468.615C142.188 461.19 147.048 456.69 153.033 456.69ZM153.033 460.02C149.208 460.02 145.968 462.855 145.968 468.615C145.968 474.42 149.208 477.255 153.033 477.255C156.858 477.255 160.098 474.42 160.098 468.615C160.098 462.855 156.858 460.02 153.033 460.02ZM169.078 449.49H172.813V480H169.078V449.49ZM188.892 456.69C194.832 456.69 199.737 461.19 199.737 468.615C199.737 476.04 194.832 480.585 188.892 480.585C182.907 480.585 178.047 476.04 178.047 468.615C178.047 461.19 182.907 456.69 188.892 456.69ZM188.892 460.02C185.067 460.02 181.827 462.855 181.827 468.615C181.827 474.42 185.067 477.255 188.892 477.255C192.717 477.255 195.957 474.42 195.957 468.615C195.957 462.855 192.717 460.02 188.892 460.02ZM213.083 478.92C208.313 478.92 203.228 475.275 203.228 467.355C203.228 460.155 208.133 456.69 213.353 456.69C216.548 456.69 218.978 458.355 220.463 461.55V457.32H224.243V477.3C224.243 484.41 220.238 488.19 213.398 488.19C209.303 488.19 204.398 486.21 203.273 480.495L206.963 480C207.548 483.645 210.473 484.77 213.668 484.77C218.483 484.77 220.463 482.52 220.463 477.345V473.835C219.338 476.4 217.178 478.92 213.083 478.92ZM213.713 460.02C210.203 460.02 207.008 462.495 207.008 467.445C207.008 472.98 209.978 475.59 213.578 475.59C217.403 475.59 220.463 473.07 220.463 467.67C220.463 462.765 217.448 460.02 213.713 460.02ZM232.883 487.74C231.443 487.74 230.048 487.335 229.193 486.93L229.823 483.735C230.453 484.05 231.578 484.5 233.153 484.5C236.573 484.5 237.923 481.53 236.573 478.155L228.248 457.32H232.478L239.228 476.4L245.573 457.32H249.758L240.578 481.755C239.048 485.85 236.753 487.74 232.883 487.74Z" fill="black"/>
<path d="M430.493 460.02C426.713 460.02 424.103 462.09 423.428 466.23H437.423C437.153 461.91 434.273 460.02 430.493 460.02ZM441.023 469.245H423.248C423.473 473.97 425.993 477.255 430.898 477.255C435.038 477.255 436.703 475.32 437.378 472.35L440.798 473.115C439.943 478.29 435.038 480.585 430.943 480.585C424.553 480.585 419.468 476.04 419.468 468.57C419.468 461.28 424.373 456.69 430.583 456.69C436.748 456.69 441.023 461.055 441.023 467.895V469.245ZM473.092 461.01L469.042 461.73C468.007 455.61 463.687 453.81 459.727 453.81C453.832 453.81 448.972 457.815 448.972 465.015C448.972 473.025 453.832 476.67 460.042 476.67C464.317 476.67 468.817 474.6 469.267 467.94L473.317 468.66C472.462 476.76 465.892 480.585 460.042 480.585C451.492 480.585 444.742 474.735 444.742 465.015C444.742 455.97 451.582 449.895 459.862 449.895C466.072 449.895 471.742 453.765 473.092 461.01ZM487.749 456.69C493.689 456.69 498.594 461.19 498.594 468.615C498.594 476.04 493.689 480.585 487.749 480.585C481.764 480.585 476.904 476.04 476.904 468.615C476.904 461.19 481.764 456.69 487.749 456.69ZM487.749 460.02C483.924 460.02 480.684 462.855 480.684 468.615C480.684 474.42 483.924 477.255 487.749 477.255C491.574 477.255 494.814 474.42 494.814 468.615C494.814 462.855 491.574 460.02 487.749 460.02ZM527.375 460.155C524.27 460.155 521.975 462.27 521.975 466.905V480H518.195V466.005C518.195 461.82 515.99 460.155 513.11 460.155C509.915 460.155 507.53 462.27 507.53 466.905V480H503.795V457.32H507.53V460.785C509.015 457.86 511.985 456.69 514.595 456.69C517.34 456.69 520.13 457.815 521.345 461.1C522.965 457.725 526.16 456.69 528.635 456.69C532.595 456.69 536.375 458.715 536.375 464.79V480H532.64V465.78C532.64 461.82 530.435 460.155 527.375 460.155ZM552.529 460.02C548.749 460.02 546.139 462.09 545.464 466.23H559.459C559.189 461.91 556.309 460.02 552.529 460.02ZM563.059 469.245H545.284C545.509 473.97 548.029 477.255 552.934 477.255C557.074 477.255 558.739 475.32 559.414 472.35L562.834 473.115C561.979 478.29 557.074 480.585 552.979 480.585C546.589 480.585 541.504 476.04 541.504 468.57C541.504 461.28 546.409 456.69 552.619 456.69C558.784 456.69 563.059 461.055 563.059 467.895V469.245ZM578.343 460.74C575.103 460.74 571.998 462.945 571.998 470.01V480H568.263V457.32H571.998V462.45C573.753 457.86 577.353 456.69 579.423 456.69C580.233 456.69 580.953 456.825 581.493 457.05L581.043 461.145C580.323 460.92 579.558 460.74 578.343 460.74ZM604.899 466.14L601.164 466.77C600.669 461.955 597.564 460.02 594.009 460.02C590.094 460.02 586.944 462.99 586.944 468.615C586.944 473.295 589.419 477.255 594.729 477.255C598.554 477.255 600.939 474.96 601.479 470.595L604.854 471.27C603.819 478.2 598.914 480.585 594.729 480.585C587.934 480.585 583.164 475.635 583.164 468.615C583.164 461.28 587.934 456.69 594.234 456.69C599.454 456.69 604.224 460.11 604.899 466.14ZM619.018 460.02C615.238 460.02 612.628 462.09 611.953 466.23H625.948C625.678 461.91 622.798 460.02 619.018 460.02ZM629.548 469.245H611.773C611.998 473.97 614.518 477.255 619.423 477.255C623.563 477.255 625.228 475.32 625.903 472.35L629.323 473.115C628.468 478.29 623.563 480.585 619.468 480.585C613.078 480.585 607.993 476.04 607.993 468.57C607.993 461.28 612.898 456.69 619.108 456.69C625.273 456.69 629.548 461.055 629.548 467.895V469.245Z" fill="black"/>
<path d="M833.433 454.08V466.635H838.923C843.468 466.635 845.493 464.25 845.493 460.425C845.493 456.465 843.468 454.08 839.013 454.08H833.433ZM829.473 450.48H839.418C845.898 450.48 849.678 453.945 849.678 460.38C849.678 466.005 845.673 470.235 839.463 470.235H833.433V480H829.473V450.48ZM862.401 480.585C857.631 480.585 852.276 476.76 852.276 468.615C852.276 460.56 857.586 456.69 862.266 456.69C866.091 456.69 868.611 458.265 870.186 462.045V457.32H873.921V480H870.186V474.915C869.106 477.84 866.631 480.585 862.401 480.585ZM863.031 460.02C859.611 460.02 856.056 462.72 856.056 468.705C856.056 474.645 859.611 477.255 863.031 477.255C866.856 477.255 870.186 474.78 870.186 468.705C870.186 462.81 866.811 460.02 863.031 460.02ZM882.547 487.74C881.107 487.74 879.712 487.335 878.857 486.93L879.487 483.735C880.117 484.05 881.242 484.5 882.817 484.5C886.237 484.5 887.587 481.53 886.237 478.155L877.912 457.32H882.142L888.892 476.4L895.237 457.32H899.422L890.242 481.755C888.712 485.85 886.417 487.74 882.547 487.74ZM927.137 460.155C924.032 460.155 921.737 462.27 921.737 466.905V480H917.957V466.005C917.957 461.82 915.752 460.155 912.872 460.155C909.677 460.155 907.292 462.27 907.292 466.905V480H903.557V457.32H907.292V460.785C908.777 457.86 911.747 456.69 914.357 456.69C917.102 456.69 919.892 457.815 921.107 461.1C922.727 457.725 925.922 456.69 928.397 456.69C932.357 456.69 936.137 458.715 936.137 464.79V480H932.402V465.78C932.402 461.82 930.197 460.155 927.137 460.155ZM952.291 460.02C948.511 460.02 945.901 462.09 945.226 466.23H959.221C958.951 461.91 956.071 460.02 952.291 460.02ZM962.821 469.245H945.046C945.271 473.97 947.791 477.255 952.696 477.255C956.836 477.255 958.501 475.32 959.176 472.35L962.596 473.115C961.741 478.29 956.836 480.585 952.741 480.585C946.351 480.585 941.266 476.04 941.266 468.57C941.266 461.28 946.171 456.69 952.381 456.69C958.546 456.69 962.821 461.055 962.821 467.895V469.245ZM978.105 460.155C974.415 460.155 971.76 462.27 971.76 466.905V480H968.025V457.32H971.76V460.83C973.29 457.905 976.575 456.69 979.23 456.69C983.28 456.69 986.97 458.715 986.97 464.79V480H983.235V465.87C983.235 461.685 980.985 460.155 978.105 460.155ZM995.17 451.785L998.905 451.065V457.32H1004.85V460.47H998.905V474.6C998.905 476.265 999.715 477.12 1001.7 477.12C1002.78 477.12 1003.32 476.985 1004.08 476.805L1004.8 479.955C1003.77 480.27 1002.33 480.585 1001.2 480.585C997.105 480.585 995.17 478.29 995.17 474.735V460.47H990.715V457.32H995.17V451.785Z" fill="black"/>
<path d="M1230.73 480H1226.81L1215.79 450.48H1220.11L1228.88 475.185L1237.57 450.48H1241.75L1230.73 480ZM1246.4 457.32H1250.18V480H1246.4V457.32ZM1248.29 447.825C1249.68 447.825 1250.76 448.905 1250.76 450.345C1250.76 451.785 1249.68 452.82 1248.29 452.82C1246.85 452.82 1245.77 451.785 1245.77 450.345C1245.77 448.905 1246.85 447.825 1248.29 447.825ZM1268.86 456.69C1273.54 456.69 1278.99 460.38 1278.99 468.3C1278.99 476.58 1273.77 480.585 1268.41 480.585C1265.35 480.585 1262.61 478.74 1260.85 475.59V487.875H1257.12V457.32H1260.85V461.73C1262.16 459.39 1264.72 456.69 1268.86 456.69ZM1268.01 460.02C1264.23 460.02 1260.85 462.72 1260.85 468.57C1260.85 474.195 1264.23 477.255 1267.96 477.255C1271.52 477.255 1275.21 474.42 1275.21 468.39C1275.21 462.765 1271.47 460.02 1268.01 460.02ZM1295.89 456.69C1300.57 456.69 1306.01 460.38 1306.01 468.3C1306.01 476.58 1300.79 480.585 1295.44 480.585C1292.38 480.585 1289.63 478.74 1287.88 475.59V487.875H1284.14V457.32H1287.88V461.73C1289.18 459.39 1291.75 456.69 1295.89 456.69ZM1295.03 460.02C1291.25 460.02 1287.88 462.72 1287.88 468.57C1287.88 474.195 1291.25 477.255 1294.99 477.255C1298.54 477.255 1302.23 474.42 1302.23 468.39C1302.23 462.765 1298.5 460.02 1295.03 460.02ZM1310.32 463.395C1310.32 458.76 1314.64 456.69 1318.24 456.69C1322.56 456.69 1325.89 458.58 1327.1 463.845L1323.73 464.565C1323.32 461.01 1321.16 459.885 1318.24 459.885C1315.63 459.885 1313.96 461.235 1313.96 463.17C1313.96 464.52 1314.73 465.825 1317.07 466.32L1321.75 467.445C1325.53 468.3 1327.37 470.235 1327.37 473.295C1327.37 478.335 1322.96 480.585 1318.69 480.585C1314.64 480.585 1309.96 478.38 1309.15 473.025L1312.48 472.305C1313.02 475.5 1315.22 477.39 1318.69 477.39C1321.75 477.39 1323.73 475.995 1323.73 473.925C1323.73 472.215 1322.96 471.315 1319.86 470.595L1315.76 469.56C1312.07 468.66 1310.32 466.545 1310.32 463.395Z" fill="black"/>
<path d="M615.899 75.64H621.179V92.62H642.359V75.64H647.579V115H642.359V97.42H621.179V115H615.899V75.64ZM669.552 83.92C677.472 83.92 684.012 89.92 684.012 99.82C684.012 109.72 677.472 115.78 669.552 115.78C661.572 115.78 655.092 109.72 655.092 99.82C655.092 89.92 661.572 83.92 669.552 83.92ZM669.552 88.36C664.452 88.36 660.132 92.14 660.132 99.82C660.132 107.56 664.452 111.34 669.552 111.34C674.652 111.34 678.972 107.56 678.972 99.82C678.972 92.14 674.652 88.36 669.552 88.36ZM732.346 84.76L721.606 115H717.226L709.786 93.88L702.166 115H697.966L687.166 84.76H692.746L700.066 108.04L708.106 84.76H711.646L719.506 108.4L726.826 84.76H732.346Z" fill="black"/>
<path d="M653.814 818H648.714L639.774 787.34L631.254 818H625.674L613.194 778.64H618.954L628.374 811.04L637.194 778.64H642.234L651.474 810.92L660.594 778.64H666.114L653.814 818ZM671.698 777.32H676.678V792.44C678.718 788.54 683.218 786.92 686.638 786.92C692.158 786.92 696.958 789.62 696.958 797.72V818H691.978V799.34C691.978 793.58 688.978 791.54 685.198 791.54C680.278 791.54 676.678 794.36 676.678 800.54V818H671.698V777.32ZM708.373 828.32C706.453 828.32 704.593 827.78 703.453 827.24L704.293 822.98C705.133 823.4 706.633 824 708.733 824C713.293 824 715.093 820.04 713.293 815.54L702.193 787.76H707.833L716.833 813.2L725.293 787.76H730.873L718.633 820.34C716.593 825.8 713.533 828.32 708.373 828.32Z" fill="black"/>
<path d="M862.674 531.5L672.401 764L482.128 531.5" stroke="black" stroke-width="2" stroke-linecap="round" stroke-linejoin="round"/>
<path d="M672.401 764L88.8964 531" stroke="black" stroke-width="2" stroke-linecap="round"/>
<path d="M672.401 764L1255.09 532" stroke="black" stroke-width="2" stroke-linecap="round"/>
<path d="M862.674 398.5L672.401 166L482.128 398.5" stroke="black" stroke-width="2" stroke-linecap="round" stroke-linejoin="round"/>
<path d="M672.401 166L88.8964 399" stroke="black" stroke-width="2" stroke-linecap="round"/>
<path d="M672.401 166L1255.09 398" stroke="black" stroke-width="2" stroke-linecap="round"/>
</svg>
