<svg width="1097" height="661" viewBox="0 0 1097 661" fill="none" xmlns="http://www.w3.org/2000/svg">
<rect y="233.449" width="334.321" height="191.611" rx="19.9595" fill="#1C1C1E"/>
<path d="M130.226 337.254L125.677 320.378H128.402L131.536 333.57H131.606L135.162 320.378H137.641L141.196 333.57H141.278L144.401 320.378H147.137L142.576 337.254H140.062L136.436 324.565H136.366L132.741 337.254H130.226ZM149.196 337.254V324.881H151.733V337.254H149.196ZM150.459 322.916C150.045 322.916 149.691 322.772 149.394 322.483C149.106 322.187 148.962 321.836 148.962 321.431C148.962 321.017 149.106 320.666 149.394 320.378C149.691 320.09 150.045 319.945 150.459 319.945C150.88 319.945 151.234 320.09 151.523 320.378C151.819 320.666 151.967 321.017 151.967 321.431C151.967 321.836 151.819 322.187 151.523 322.483C151.234 322.772 150.88 322.916 150.459 322.916ZM159.171 337.5C158.15 337.5 157.269 337.344 156.528 337.032C155.788 336.72 155.203 336.283 154.774 335.722C154.353 335.16 154.096 334.509 154.002 333.769V333.687H156.517L156.54 333.78C156.665 334.326 156.945 334.755 157.382 335.067C157.819 335.379 158.423 335.535 159.195 335.535C159.702 335.535 160.138 335.468 160.505 335.336C160.871 335.203 161.152 335.016 161.347 334.775C161.549 334.525 161.651 334.233 161.651 333.897V333.886C161.651 333.488 161.514 333.165 161.241 332.915C160.976 332.666 160.509 332.459 159.838 332.295L157.826 331.839C157.039 331.652 156.384 331.406 155.862 331.102C155.347 330.79 154.961 330.408 154.704 329.956C154.447 329.504 154.318 328.978 154.318 328.377V328.366C154.318 327.625 154.521 326.978 154.926 326.424C155.332 325.863 155.893 325.426 156.61 325.114C157.335 324.795 158.17 324.635 159.113 324.635C160.08 324.635 160.914 324.799 161.616 325.126C162.325 325.446 162.879 325.886 163.276 326.448C163.674 327.001 163.896 327.625 163.943 328.319L163.955 328.436H161.557L161.546 328.366C161.468 327.843 161.218 327.418 160.797 327.091C160.384 326.763 159.822 326.6 159.113 326.6C158.653 326.6 158.255 326.666 157.92 326.799C157.585 326.931 157.324 327.122 157.136 327.372C156.957 327.613 156.868 327.902 156.868 328.237V328.249C156.868 328.498 156.926 328.724 157.043 328.927C157.168 329.13 157.366 329.305 157.639 329.453C157.92 329.601 158.279 329.73 158.715 329.839L160.727 330.295C161.982 330.584 162.879 330.997 163.417 331.535C163.955 332.065 164.224 332.775 164.224 333.664V333.675C164.224 334.432 164.005 335.098 163.569 335.675C163.132 336.244 162.532 336.693 161.768 337.02C161.011 337.34 160.146 337.5 159.171 337.5ZM166.481 337.254V320.226H169.03V326.88H169.112C169.432 326.171 169.911 325.621 170.551 325.231C171.198 324.834 171.977 324.635 172.89 324.635C173.786 324.635 174.558 324.838 175.205 325.243C175.86 325.641 176.367 326.206 176.726 326.939C177.084 327.672 177.264 328.537 177.264 329.535V337.254H174.726V330.038C174.726 329.009 174.484 328.214 174.001 327.652C173.525 327.091 172.839 326.81 171.942 326.81C171.358 326.81 170.847 326.951 170.41 327.231C169.974 327.504 169.635 327.882 169.393 328.366C169.151 328.849 169.03 329.414 169.03 330.061V337.254H166.481ZM180.024 337.254V320.226H182.573V337.254H180.024ZM185.473 337.254V324.881H188.011V337.254H185.473ZM186.737 322.916C186.323 322.916 185.969 322.772 185.672 322.483C185.384 322.187 185.24 321.836 185.24 321.431C185.24 321.017 185.384 320.666 185.672 320.378C185.969 320.09 186.323 319.945 186.737 319.945C187.158 319.945 187.512 320.09 187.801 320.378C188.097 320.666 188.245 321.017 188.245 321.431C188.245 321.836 188.097 322.187 187.801 322.483C187.512 322.772 187.158 322.916 186.737 322.916ZM195.449 337.5C194.428 337.5 193.547 337.344 192.806 337.032C192.066 336.72 191.481 336.283 191.052 335.722C190.631 335.16 190.374 334.509 190.28 333.769V333.687H192.795L192.818 333.78C192.943 334.326 193.223 334.755 193.66 335.067C194.097 335.379 194.701 335.535 195.473 335.535C195.98 335.535 196.416 335.468 196.783 335.336C197.149 335.203 197.43 335.016 197.625 334.775C197.827 334.525 197.929 334.233 197.929 333.897V333.886C197.929 333.488 197.792 333.165 197.519 332.915C197.254 332.666 196.786 332.459 196.116 332.295L194.104 331.839C193.317 331.652 192.662 331.406 192.14 331.102C191.625 330.79 191.239 330.408 190.982 329.956C190.725 329.504 190.596 328.978 190.596 328.377V328.366C190.596 327.625 190.799 326.978 191.204 326.424C191.609 325.863 192.171 325.426 192.888 325.114C193.613 324.795 194.447 324.635 195.391 324.635C196.358 324.635 197.192 324.799 197.894 325.126C198.603 325.446 199.157 325.886 199.554 326.448C199.952 327.001 200.174 327.625 200.221 328.319L200.233 328.436H197.835L197.823 328.366C197.745 327.843 197.496 327.418 197.075 327.091C196.662 326.763 196.1 326.6 195.391 326.6C194.931 326.6 194.533 326.666 194.198 326.799C193.863 326.931 193.602 327.122 193.414 327.372C193.235 327.613 193.145 327.902 193.145 328.237V328.249C193.145 328.498 193.204 328.724 193.321 328.927C193.446 329.13 193.644 329.305 193.917 329.453C194.198 329.601 194.557 329.73 194.993 329.839L197.005 330.295C198.26 330.584 199.157 330.997 199.695 331.535C200.233 332.065 200.502 332.775 200.502 333.664V333.675C200.502 334.432 200.283 335.098 199.847 335.675C199.41 336.244 198.81 336.693 198.046 337.02C197.289 337.34 196.424 337.5 195.449 337.5ZM207.062 337.464C205.807 337.464 204.879 337.192 204.279 336.646C203.679 336.1 203.379 335.215 203.379 333.991V326.892H201.578V324.881H203.379V321.676H205.975V324.881H208.361V326.892H205.975V333.757C205.975 334.389 206.111 334.829 206.384 335.079C206.665 335.32 207.078 335.441 207.624 335.441C207.772 335.441 207.905 335.437 208.021 335.429C208.146 335.414 208.259 335.398 208.361 335.383V337.359C208.205 337.383 208.014 337.406 207.788 337.429C207.561 337.453 207.32 337.464 207.062 337.464Z" fill="#8D77F8"/>
<rect x="381" y="233.449" width="334.321" height="191.611" rx="19.9595" fill="#1C1C1E"/>
<path d="M529.658 331.488V329.29H534.032C535.17 329.29 536.051 328.997 536.675 328.412C537.306 327.82 537.622 327.001 537.622 325.957V325.933C537.622 324.873 537.306 324.05 536.675 323.465C536.051 322.881 535.17 322.588 534.032 322.588H529.658V320.378H534.686C535.794 320.378 536.768 320.612 537.61 321.08C538.452 321.54 539.111 322.187 539.587 323.021C540.062 323.848 540.3 324.81 540.3 325.91V325.933C540.3 327.032 540.062 328.003 539.587 328.845C539.111 329.679 538.452 330.33 537.61 330.798C536.768 331.258 535.794 331.488 534.686 331.488H529.658ZM528.348 337.254V320.378H530.967V337.254H528.348ZM542.522 337.254V335.453L548.405 329.5C549.153 328.744 549.726 328.116 550.124 327.617C550.522 327.118 550.794 326.674 550.943 326.284C551.091 325.894 551.165 325.477 551.165 325.033V325.009C551.165 324.471 551.04 323.996 550.79 323.582C550.549 323.161 550.206 322.834 549.761 322.6C549.325 322.358 548.814 322.238 548.229 322.238C547.582 322.238 547.005 322.374 546.498 322.647C545.992 322.912 545.594 323.274 545.306 323.734C545.017 324.194 544.873 324.713 544.873 325.29V325.36H542.382V325.29C542.382 324.276 542.639 323.376 543.154 322.588C543.668 321.801 544.366 321.185 545.247 320.741C546.136 320.296 547.13 320.074 548.229 320.074C549.313 320.074 550.268 320.281 551.095 320.694C551.929 321.107 552.584 321.676 553.059 322.401C553.535 323.119 553.773 323.933 553.773 324.845V324.869C553.773 325.508 553.656 326.12 553.422 326.705C553.188 327.282 552.786 327.921 552.217 328.623C551.648 329.325 550.857 330.175 549.843 331.173L545.2 335.745L546.054 334.143V335.745L545.212 335.032H554.042V337.254H542.522ZM558.147 331.488V329.29H562.521C563.659 329.29 564.54 328.997 565.164 328.412C565.795 327.82 566.111 327.001 566.111 325.957V325.933C566.111 324.873 565.795 324.05 565.164 323.465C564.54 322.881 563.659 322.588 562.521 322.588H558.147V320.378H563.176C564.283 320.378 565.257 320.612 566.099 321.08C566.941 321.54 567.6 322.187 568.076 323.021C568.551 323.848 568.789 324.81 568.789 325.91V325.933C568.789 327.032 568.551 328.003 568.076 328.845C567.6 329.679 566.941 330.33 566.099 330.798C565.257 331.258 564.283 331.488 563.176 331.488H558.147ZM556.837 337.254V320.378H559.456V337.254H556.837Z" fill="#8D77F8"/>
<rect x="762" y="233.449" width="334.321" height="191.611" rx="19.9595" fill="#1C1C1E"/>
<path d="M912.809 337.558C911.601 337.558 910.513 337.355 909.547 336.95C908.58 336.544 907.753 335.96 907.067 335.196C906.381 334.424 905.855 333.496 905.488 332.412C905.122 331.328 904.939 330.108 904.939 328.752V328.74C904.939 326.962 905.258 325.426 905.898 324.132C906.545 322.838 907.453 321.84 908.623 321.138C909.8 320.429 911.184 320.074 912.774 320.074C914.084 320.074 915.23 320.304 916.213 320.764C917.203 321.224 918.01 321.859 918.634 322.67C919.265 323.473 919.694 324.389 919.92 325.419L919.967 325.606H917.277L917.23 325.489C916.895 324.506 916.345 323.746 915.581 323.208C914.825 322.67 913.893 322.401 912.786 322.401C911.718 322.401 910.798 322.655 910.026 323.161C909.254 323.66 908.662 324.385 908.248 325.337C907.835 326.28 907.629 327.411 907.629 328.728V328.74C907.629 329.746 907.746 330.65 907.979 331.453C908.221 332.256 908.568 332.938 909.02 333.5C909.48 334.061 910.03 334.49 910.669 334.786C911.309 335.083 912.03 335.231 912.833 335.231C913.745 335.231 914.548 335.051 915.242 334.693C915.944 334.334 916.49 333.835 916.879 333.196C917.277 332.549 917.48 331.796 917.488 330.939V330.646H913.078V328.506H920.084V330.307C920.084 331.43 919.916 332.439 919.581 333.336C919.253 334.233 918.774 334.997 918.142 335.628C917.519 336.26 916.755 336.739 915.85 337.067C914.954 337.394 913.94 337.558 912.809 337.558ZM922.645 337.254V324.881H925.183V337.254H922.645ZM923.908 322.916C923.495 322.916 923.14 322.772 922.844 322.483C922.555 322.187 922.411 321.836 922.411 321.431C922.411 321.017 922.555 320.666 922.844 320.378C923.14 320.09 923.495 319.945 923.908 319.945C924.329 319.945 924.684 320.09 924.972 320.378C925.269 320.666 925.417 321.017 925.417 321.431C925.417 321.836 925.269 322.187 924.972 322.483C924.684 322.772 924.329 322.916 923.908 322.916ZM928.773 337.254V326.892H927.007V324.881H928.773V323.559C928.773 322.756 928.906 322.093 929.171 321.571C929.436 321.041 929.837 320.647 930.375 320.39C930.921 320.132 931.615 320.004 932.457 320.004C932.722 320.004 932.983 320.015 933.241 320.039C933.498 320.054 933.716 320.078 933.896 320.109V321.98C933.771 321.965 933.631 321.953 933.475 321.945C933.319 321.937 933.159 321.933 932.995 321.933C932.41 321.933 931.978 322.074 931.697 322.354C931.416 322.635 931.276 323.06 931.276 323.629V324.881H933.837V326.892H931.311V337.254H928.773ZM940.421 337.464C939.166 337.464 938.238 337.192 937.638 336.646C937.038 336.1 936.737 335.215 936.737 333.991V326.892H934.936V324.881H936.737V321.676H939.334V324.881H941.72V326.892H939.334V333.757C939.334 334.389 939.47 334.829 939.743 335.079C940.024 335.32 940.437 335.441 940.983 335.441C941.131 335.441 941.263 335.437 941.38 335.429C941.505 335.414 941.618 335.398 941.72 335.383V337.359C941.564 337.383 941.373 337.406 941.146 337.429C940.92 337.453 940.679 337.464 940.421 337.464ZM948.549 337.5C947.528 337.5 946.647 337.344 945.906 337.032C945.166 336.72 944.581 336.283 944.152 335.722C943.731 335.16 943.474 334.509 943.38 333.769V333.687H945.895L945.918 333.78C946.043 334.326 946.324 334.755 946.76 335.067C947.197 335.379 947.801 335.535 948.573 335.535C949.08 335.535 949.516 335.468 949.883 335.336C950.249 335.203 950.53 335.016 950.725 334.775C950.927 334.525 951.029 334.233 951.029 333.897V333.886C951.029 333.488 950.892 333.165 950.619 332.915C950.354 332.666 949.887 332.459 949.216 332.295L947.205 331.839C946.417 331.652 945.762 331.406 945.24 331.102C944.725 330.79 944.339 330.408 944.082 329.956C943.825 329.504 943.696 328.978 943.696 328.377V328.366C943.696 327.625 943.899 326.978 944.304 326.424C944.71 325.863 945.271 325.426 945.988 325.114C946.713 324.795 947.548 324.635 948.491 324.635C949.458 324.635 950.292 324.799 950.994 325.126C951.703 325.446 952.257 325.886 952.654 326.448C953.052 327.001 953.274 327.625 953.321 328.319L953.333 328.436H950.935L950.924 328.366C950.846 327.843 950.596 327.418 950.175 327.091C949.762 326.763 949.2 326.6 948.491 326.6C948.031 326.6 947.633 326.666 947.298 326.799C946.963 326.931 946.702 327.122 946.515 327.372C946.335 327.613 946.246 327.902 946.246 328.237V328.249C946.246 328.498 946.304 328.724 946.421 328.927C946.546 329.13 946.745 329.305 947.017 329.453C947.298 329.601 947.657 329.73 948.093 329.839L950.105 330.295C951.36 330.584 952.257 330.997 952.795 331.535C953.333 332.065 953.602 332.775 953.602 333.664V333.675C953.602 334.432 953.383 335.098 952.947 335.675C952.51 336.244 951.91 336.693 951.146 337.02C950.389 337.34 949.524 337.5 948.549 337.5Z" fill="#8D77F8"/>
<path d="M930.414 67.035C929.633 66.254 928.367 66.254 927.586 67.035L914.858 79.7629C914.077 80.544 914.077 81.8103 914.858 82.5914C915.639 83.3724 916.905 83.3724 917.686 82.5914L929 71.2776L940.314 82.5914C941.095 83.3724 942.361 83.3724 943.142 82.5914C943.923 81.8103 943.923 80.544 943.142 79.7629L930.414 67.035ZM929 233.449L931 233.449L931 68.4492L929 68.4492L927 68.4492L927 233.449L929 233.449Z" fill="#1C1C1E"/>
<path d="M168.414 67.035C167.633 66.254 166.367 66.254 165.586 67.035L152.858 79.7629C152.077 80.544 152.077 81.8103 152.858 82.5914C153.639 83.3724 154.905 83.3724 155.686 82.5914L167 71.2776L178.314 82.5914C179.095 83.3724 180.361 83.3724 181.142 82.5914C181.923 81.8103 181.923 80.544 181.142 79.7629L168.414 67.035ZM167 233.449L169 233.449L169 68.4492L167 68.4492L165 68.4492L165 233.449L167 233.449Z" fill="#1C1C1E"/>
<path d="M549.414 591.863C548.633 592.644 547.367 592.644 546.586 591.863L533.858 579.136C533.077 578.354 533.077 577.088 533.858 576.307C534.639 575.526 535.905 575.526 536.686 576.307L548 587.621L559.314 576.307C560.095 575.526 561.361 575.526 562.142 576.307C562.923 577.088 562.923 578.354 562.142 579.136L549.414 591.863ZM548 425.449L550 425.449L550 590.449L548 590.449L546 590.449L546 425.449L548 425.449Z" fill="#1C1C1E"/>
<path d="M769.682 7.85922C769.892 2.96922 773.522 1.37922 776.552 1.37922C780.212 1.37922 782.642 3.44922 782.642 6.74922C782.642 9.02922 781.472 11.4892 778.322 14.5192L773.552 19.0192H782.882V21.4492H770.162V19.4692L776.252 13.4392C778.832 10.8592 779.972 8.87922 779.972 6.92922C779.972 5.27922 779.012 3.80922 776.312 3.80922C774.152 3.80922 772.142 5.18922 772.142 8.33922L769.682 7.85922ZM786.426 25.4692V23.8492C787.416 23.5192 788.286 22.7992 788.466 21.5992C787.266 21.5392 786.486 20.8192 786.486 19.7392C786.486 18.7792 787.266 17.9392 788.286 17.9392C789.546 17.9392 790.266 19.0492 790.266 20.6692C790.266 22.9792 788.886 24.6292 786.426 25.4692ZM798.945 21.4492H796.395V6.50922C795.525 7.13922 793.875 7.43922 791.385 7.43922V5.12922C795.435 4.88922 796.545 4.64922 796.785 1.37922H798.945V21.4492ZM828.169 8.21922C826.099 8.21922 824.569 9.62922 824.569 12.7192V21.4492H822.049V12.1192C822.049 9.32922 820.579 8.21922 818.659 8.21922C816.529 8.21922 814.939 9.62922 814.939 12.7192V21.4492H812.449V6.32922H814.939V8.63922C815.929 6.68922 817.909 5.90922 819.649 5.90922C821.479 5.90922 823.339 6.65922 824.149 8.84922C825.229 6.59922 827.359 5.90922 829.009 5.90922C831.649 5.90922 834.169 7.25922 834.169 11.3092V21.4492H831.679V11.9692C831.679 9.32922 830.209 8.21922 828.169 8.21922ZM838.728 6.32922H841.248V21.4492H838.728V6.32922ZM839.988 -0.000782251C840.918 -0.000782251 841.638 0.719217 841.638 1.67922C841.638 2.63922 840.918 3.32922 839.988 3.32922C839.028 3.32922 838.308 2.63922 838.308 1.67922C838.308 0.719217 839.028 -0.000782251 839.988 -0.000782251ZM845.876 1.10922H848.366V21.4492H845.876V1.10922ZM852.996 1.10922H855.486V21.4492H852.996V1.10922ZM861.735 17.9392C862.755 17.9392 863.565 18.7792 863.565 19.7992C863.565 20.8192 862.755 21.6292 861.735 21.6292C860.685 21.6292 859.875 20.8192 859.875 19.7992C859.875 18.7792 860.685 17.9392 861.735 17.9392ZM884.153 21.4492H881.543L874.193 1.76922H877.073L882.923 18.2392L888.713 1.76922H891.503L884.153 21.4492ZM894.597 6.32922H897.117V21.4492H894.597V6.32922ZM895.857 -0.000782251C896.787 -0.000782251 897.507 0.719217 897.507 1.67922C897.507 2.63922 896.787 3.32922 895.857 3.32922C894.897 3.32922 894.177 2.63922 894.177 1.67922C894.177 0.719217 894.897 -0.000782251 895.857 -0.000782251ZM909.576 5.90922C912.696 5.90922 916.326 8.36922 916.326 13.6492C916.326 19.1692 912.846 21.8392 909.276 21.8392C907.236 21.8392 905.406 20.6092 904.236 18.5092V26.6992H901.746V6.32922H904.236V9.26922C905.106 7.70922 906.816 5.90922 909.576 5.90922ZM909.006 8.12922C906.486 8.12922 904.236 9.92922 904.236 13.8292C904.236 17.5792 906.486 19.6192 908.976 19.6192C911.346 19.6192 913.806 17.7292 913.806 13.7092C913.806 9.95922 911.316 8.12922 909.006 8.12922ZM927.593 5.90922C930.713 5.90922 934.343 8.36922 934.343 13.6492C934.343 19.1692 930.863 21.8392 927.293 21.8392C925.253 21.8392 923.423 20.6092 922.253 18.5092V26.6992H919.763V6.32922H922.253V9.26922C923.123 7.70922 924.833 5.90922 927.593 5.90922ZM927.023 8.12922C924.503 8.12922 922.253 9.92922 922.253 13.8292C922.253 17.5792 924.503 19.6192 926.993 19.6192C929.363 19.6192 931.823 17.7292 931.823 13.7092C931.823 9.95922 929.333 8.12922 927.023 8.12922ZM937.211 10.3792C937.211 7.28922 940.091 5.90922 942.491 5.90922C945.371 5.90922 947.591 7.16922 948.401 10.6792L946.151 11.1592C945.881 8.78922 944.441 8.03922 942.491 8.03922C940.751 8.03922 939.641 8.93922 939.641 10.2292C939.641 11.1292 940.151 11.9992 941.711 12.3292L944.831 13.0792C947.351 13.6492 948.581 14.9392 948.581 16.9792C948.581 20.3392 945.641 21.8392 942.791 21.8392C940.091 21.8392 936.971 20.3692 936.431 16.7992L938.651 16.3192C939.011 18.4492 940.481 19.7092 942.791 19.7092C944.831 19.7092 946.151 18.7792 946.151 17.3992C946.151 16.2592 945.641 15.6592 943.571 15.1792L940.841 14.4892C938.381 13.8892 937.211 12.4792 937.211 10.3792ZM950.821 13.9792V11.7592H959.491V13.9792H950.821ZM968.435 20.7292C965.255 20.7292 961.865 18.2992 961.865 13.0192C961.865 8.21922 965.135 5.90922 968.615 5.90922C970.745 5.90922 972.365 7.01922 973.355 9.14922V6.32922H975.875V19.6492C975.875 24.3892 973.205 26.9092 968.645 26.9092C965.915 26.9092 962.645 25.5892 961.895 21.7792L964.355 21.4492C964.745 23.8792 966.695 24.6292 968.825 24.6292C972.035 24.6292 973.355 23.1292 973.355 19.6792V17.3392C972.605 19.0492 971.165 20.7292 968.435 20.7292ZM968.855 8.12922C966.515 8.12922 964.385 9.77922 964.385 13.0792C964.385 16.7692 966.365 18.5092 968.765 18.5092C971.315 18.5092 973.355 16.8292 973.355 13.2292C973.355 9.95922 971.345 8.12922 968.855 8.12922ZM980.496 6.32922H983.016V21.4492H980.496V6.32922ZM981.756 -0.000782251C982.686 -0.000782251 983.406 0.719217 983.406 1.67922C983.406 2.63922 982.686 3.32922 981.756 3.32922C980.796 3.32922 980.076 2.63922 980.076 1.67922C980.076 0.719217 980.796 -0.000782251 981.756 -0.000782251ZM988.334 21.4492V8.42922H986.264V6.32922H988.334V5.69922C988.334 2.63922 990.104 0.599217 993.044 0.599217C994.064 0.599217 994.934 0.839218 995.654 1.13922L995.204 3.08922C994.544 2.90922 993.914 2.72922 993.164 2.72922C991.604 2.72922 990.854 3.68922 990.854 5.51922V6.32922H994.874V8.42922H990.854V21.4492H988.334ZM998.241 2.63922L1000.73 2.15922V6.32922H1004.69V8.42922H1000.73V17.8492C1000.73 18.9592 1001.27 19.5292 1002.59 19.5292C1003.31 19.5292 1003.67 19.4392 1004.18 19.3192L1004.66 21.4192C1003.97 21.6292 1003.01 21.8392 1002.26 21.8392C999.531 21.8392 998.241 20.3092 998.241 17.9392V8.42922H995.271V6.32922H998.241V2.63922ZM1007.44 10.3792C1007.44 7.28922 1010.32 5.90922 1012.72 5.90922C1015.6 5.90922 1017.82 7.16922 1018.63 10.6792L1016.38 11.1592C1016.11 8.78922 1014.67 8.03922 1012.72 8.03922C1010.98 8.03922 1009.87 8.93922 1009.87 10.2292C1009.87 11.1292 1010.38 11.9992 1011.94 12.3292L1015.06 13.0792C1017.58 13.6492 1018.81 14.9392 1018.81 16.9792C1018.81 20.3392 1015.87 21.8392 1013.02 21.8392C1010.32 21.8392 1007.2 20.3692 1006.66 16.7992L1008.88 16.3192C1009.24 18.4492 1010.71 19.7092 1013.02 19.7092C1015.06 19.7092 1016.38 18.7792 1016.38 17.3992C1016.38 16.2592 1015.87 15.6592 1013.8 15.1792L1011.07 14.4892C1008.61 13.8892 1007.44 12.4792 1007.44 10.3792ZM1021.2 7.85922C1021.41 2.96922 1025.04 1.37922 1028.07 1.37922C1031.73 1.37922 1034.16 3.44922 1034.16 6.74922C1034.16 9.02922 1032.99 11.4892 1029.84 14.5192L1025.07 19.0192H1034.4V21.4492H1021.68V19.4692L1027.77 13.4392C1030.35 10.8592 1031.49 8.87922 1031.49 6.92922C1031.49 5.27922 1030.53 3.80922 1027.83 3.80922C1025.67 3.80922 1023.66 5.18922 1023.66 8.33922L1021.2 7.85922ZM1045.14 1.37922C1049.34 1.37922 1052.7 4.43922 1052.7 11.6092C1052.7 18.8092 1049.34 21.8392 1045.14 21.8392C1040.97 21.8392 1037.58 18.8092 1037.58 11.6092C1037.58 4.43922 1040.97 1.37922 1045.14 1.37922ZM1045.14 3.89922C1042.5 3.89922 1040.31 5.93922 1040.31 11.6092C1040.31 17.3392 1042.5 19.3192 1045.14 19.3192C1047.78 19.3192 1049.94 17.3392 1049.94 11.6092C1049.94 5.93922 1047.78 3.89922 1045.14 3.89922ZM1055.71 7.85922C1055.92 2.96922 1059.55 1.37922 1062.58 1.37922C1066.24 1.37922 1068.67 3.44922 1068.67 6.74922C1068.67 9.02922 1067.5 11.4892 1064.35 14.5192L1059.58 19.0192H1068.91V21.4492H1056.19V19.4692L1062.28 13.4392C1064.86 10.8592 1066 8.87922 1066 6.92922C1066 5.27922 1065.04 3.80922 1062.34 3.80922C1060.18 3.80922 1058.17 5.18922 1058.17 8.33922L1055.71 7.85922ZM1083.68 21.4492H1081.13V16.4092H1071.38V14.3692L1079.81 1.76922H1083.68V14.0692H1086.47V16.4092H1083.68V21.4492ZM1074.11 14.0692H1081.13V3.77922L1074.11 14.0692Z" fill="black"/>
<path d="M11.7455 17.8592C11.9555 12.9692 15.5855 11.3792 18.6155 11.3792C22.2755 11.3792 24.7055 13.4492 24.7055 16.7492C24.7055 19.0292 23.5355 21.4892 20.3855 24.5192L15.6155 29.0192H24.9455V31.4492H12.2255V29.4692L18.3155 23.4392C20.8955 20.8592 22.0355 18.8792 22.0355 16.9292C22.0355 15.2792 21.0755 13.8092 18.3755 13.8092C16.2155 13.8092 14.2055 15.1892 14.2055 18.3392L11.7455 17.8592ZM39.6795 17.0492C39.3795 14.7092 37.7895 13.8392 35.8395 13.8392C32.8395 13.8392 31.0095 15.8792 30.6495 21.6092C31.6395 19.8092 33.3795 18.7592 35.5995 18.7592C39.1695 18.7592 41.9295 20.9792 41.9295 25.1192C41.9295 28.8092 39.5895 31.8392 35.2695 31.8392C30.7995 31.8392 28.1295 28.5092 28.1295 22.3592C28.1295 16.0892 30.7995 11.3792 35.9295 11.3792C38.0895 11.3792 41.5395 12.3992 42.0795 16.6592L39.6795 17.0492ZM35.2995 29.2892C37.8495 29.2892 39.2295 27.3992 39.2295 25.1792C39.2295 22.7792 37.8795 21.1892 35.2995 21.1892C33.1095 21.1892 31.0695 22.3892 31.0695 25.1792C31.0695 27.3392 32.3295 29.2892 35.2995 29.2892ZM47.7854 26.1692C48.0854 28.4792 49.7054 29.3792 51.7154 29.3792C54.5954 29.3792 56.3654 27.2792 56.6954 21.5192C55.7354 23.4092 54.0254 24.4592 51.8354 24.4592C48.2654 24.4592 45.5054 22.2392 45.5054 18.0992C45.5054 14.4092 47.8754 11.3792 52.1354 11.3792C56.6654 11.3792 59.3354 14.7092 59.3354 20.8592C59.3354 27.0992 56.7254 31.8392 51.5054 31.8392C49.4054 31.8392 45.8954 30.8192 45.3854 26.5592L47.7854 26.1692ZM52.1354 13.8992C49.5854 13.8992 48.1754 15.8192 48.1754 18.0392C48.1754 20.4392 49.5554 22.0292 52.1654 22.0292C54.3554 22.0292 56.3954 20.8292 56.3954 18.0092C56.3954 15.8792 55.1354 13.8992 52.1354 13.8992ZM78.2871 11.3792C82.4871 11.3792 85.8471 14.4392 85.8471 21.6092C85.8471 28.8092 82.4871 31.8392 78.2871 31.8392C74.1171 31.8392 70.7271 28.8092 70.7271 21.6092C70.7271 14.4392 74.1171 11.3792 78.2871 11.3792ZM78.2871 13.8992C75.6471 13.8992 73.4571 15.9392 73.4571 21.6092C73.4571 27.3392 75.6471 29.3192 78.2871 29.3192C80.9271 29.3192 83.0871 27.3392 83.0871 21.6092C83.0871 15.9392 80.9271 13.8992 78.2871 13.8992ZM96.7149 11.3792C100.915 11.3792 104.275 14.4392 104.275 21.6092C104.275 28.8092 100.915 31.8392 96.7149 31.8392C92.5449 31.8392 89.1549 28.8092 89.1549 21.6092C89.1549 14.4392 92.5449 11.3792 96.7149 11.3792ZM96.7149 13.8992C94.0749 13.8992 91.8849 15.9392 91.8849 21.6092C91.8849 27.3392 94.0749 29.3192 96.7149 29.3192C99.3549 29.3192 101.515 27.3392 101.515 21.6092C101.515 15.9392 99.3549 13.8992 96.7149 13.8992ZM115.143 11.3792C119.343 11.3792 122.703 14.4392 122.703 21.6092C122.703 28.8092 119.343 31.8392 115.143 31.8392C110.973 31.8392 107.583 28.8092 107.583 21.6092C107.583 14.4392 110.973 11.3792 115.143 11.3792ZM115.143 13.8992C112.503 13.8992 110.313 15.9392 110.313 21.6092C110.313 27.3392 112.503 29.3192 115.143 29.3192C117.783 29.3192 119.943 27.3392 119.943 21.6092C119.943 15.9392 117.783 13.8992 115.143 13.8992ZM155.456 16.3292L150.086 31.4492H147.896L144.176 20.8892L140.366 31.4492H138.266L132.866 16.3292H135.656L139.316 27.9692L143.336 16.3292H145.106L149.036 28.1492L152.696 16.3292H155.456ZM158.194 16.3292H160.714V31.4492H158.194V16.3292ZM159.454 9.99922C160.384 9.99922 161.104 10.7192 161.104 11.6792C161.104 12.6392 160.384 13.3292 159.454 13.3292C158.494 13.3292 157.774 12.6392 157.774 11.6792C157.774 10.7192 158.494 9.99922 159.454 9.99922ZM164.772 20.3792C164.772 17.2892 167.652 15.9092 170.052 15.9092C172.932 15.9092 175.152 17.1692 175.962 20.6792L173.712 21.1592C173.442 18.7892 172.002 18.0392 170.052 18.0392C168.312 18.0392 167.202 18.9392 167.202 20.2292C167.202 21.1292 167.712 21.9992 169.272 22.3292L172.392 23.0792C174.912 23.6492 176.142 24.9392 176.142 26.9792C176.142 30.3392 173.202 31.8392 170.352 31.8392C167.652 31.8392 164.532 30.3692 163.992 26.7992L166.212 26.3192C166.572 28.4492 168.042 29.7092 170.352 29.7092C172.392 29.7092 173.712 28.7792 173.712 27.3992C173.712 26.2592 173.202 25.6592 171.132 25.1792L168.402 24.4892C165.942 23.8892 164.772 22.4792 164.772 20.3792ZM179.493 11.1092H181.983V18.6692C183.003 16.7192 185.253 15.9092 186.963 15.9092C189.723 15.9092 192.123 17.2592 192.123 21.3092V31.4492H189.633V22.1192C189.633 19.2392 188.133 18.2192 186.243 18.2192C183.783 18.2192 181.983 19.6292 181.983 22.7192V31.4492H179.493V11.1092ZM196.69 11.1092H199.18V31.4492H196.69V11.1092ZM203.809 16.3292H206.329V31.4492H203.809V16.3292ZM205.069 9.99922C205.999 9.99922 206.719 10.7192 206.719 11.6792C206.719 12.6392 205.999 13.3292 205.069 13.3292C204.109 13.3292 203.389 12.6392 203.389 11.6792C203.389 10.7192 204.109 9.99922 205.069 9.99922ZM210.387 20.3792C210.387 17.2892 213.267 15.9092 215.667 15.9092C218.547 15.9092 220.767 17.1692 221.577 20.6792L219.327 21.1592C219.057 18.7892 217.617 18.0392 215.667 18.0392C213.927 18.0392 212.817 18.9392 212.817 20.2292C212.817 21.1292 213.327 21.9992 214.887 22.3292L218.007 23.0792C220.527 23.6492 221.757 24.9392 221.757 26.9792C221.757 30.3392 218.817 31.8392 215.967 31.8392C213.267 31.8392 210.147 30.3692 209.607 26.7992L211.827 26.3192C212.187 28.4492 213.657 29.7092 215.967 29.7092C218.007 29.7092 219.327 28.7792 219.327 27.3992C219.327 26.2592 218.817 25.6592 216.747 25.1792L214.017 24.4892C211.557 23.8892 210.387 22.4792 210.387 20.3792ZM226.008 12.6392L228.498 12.1592V16.3292H232.458V18.4292H228.498V27.8492C228.498 28.9592 229.038 29.5292 230.358 29.5292C231.078 29.5292 231.438 29.4392 231.948 29.3192L232.428 31.4192C231.738 31.6292 230.778 31.8392 230.028 31.8392C227.298 31.8392 226.008 30.3092 226.008 27.9392V18.4292H223.038V16.3292H226.008V12.6392ZM243.858 16.3292H246.378V31.4492H243.858V16.3292ZM245.118 9.99922C246.048 9.99922 246.768 10.7192 246.768 11.6792C246.768 12.6392 246.048 13.3292 245.118 13.3292C244.158 13.3292 243.438 12.6392 243.438 11.6792C243.438 10.7192 244.158 9.99922 245.118 9.99922ZM258.132 17.8592C258.342 12.9692 261.972 11.3792 265.002 11.3792C268.662 11.3792 271.092 13.4492 271.092 16.7492C271.092 19.0292 269.922 21.4892 266.772 24.5192L262.002 29.0192H271.332V31.4492H258.612V29.4692L264.702 23.4392C267.282 20.8592 268.422 18.8792 268.422 16.9292C268.422 15.2792 267.462 13.8092 264.762 13.8092C262.602 13.8092 260.592 15.1892 260.592 18.3392L258.132 17.8592ZM282.076 11.3792C286.276 11.3792 289.636 14.4392 289.636 21.6092C289.636 28.8092 286.276 31.8392 282.076 31.8392C277.906 31.8392 274.516 28.8092 274.516 21.6092C274.516 14.4392 277.906 11.3792 282.076 11.3792ZM282.076 13.8992C279.436 13.8992 277.246 15.9392 277.246 21.6092C277.246 27.3392 279.436 29.3192 282.076 29.3192C284.716 29.3192 286.876 27.3392 286.876 21.6092C286.876 15.9392 284.716 13.8992 282.076 13.8992ZM292.644 17.8592C292.854 12.9692 296.484 11.3792 299.514 11.3792C303.174 11.3792 305.604 13.4492 305.604 16.7492C305.604 19.0292 304.434 21.4892 301.284 24.5192L296.514 29.0192H305.844V31.4492H293.124V29.4692L299.214 23.4392C301.794 20.8592 302.934 18.8792 302.934 16.9292C302.934 15.2792 301.974 13.8092 299.274 13.8092C297.114 13.8092 295.104 15.1892 295.104 18.3392L292.644 17.8592ZM320.616 31.4492H318.066V26.4092H308.316V24.3692L316.746 11.7692H320.616V24.0692H323.406V26.4092H320.616V31.4492ZM311.046 24.0692H318.066V13.7792L311.046 24.0692Z" fill="black"/>
<path d="M391.469 641.859C391.679 636.969 395.309 635.379 398.339 635.379C401.999 635.379 404.429 637.449 404.429 640.749C404.429 643.029 403.259 645.489 400.109 648.519L395.339 653.019H404.669V655.449H391.949V653.469L398.039 647.439C400.619 644.859 401.759 642.879 401.759 640.929C401.759 639.279 400.799 637.809 398.099 637.809C395.939 637.809 393.929 639.189 393.929 642.339L391.469 641.859ZM412.327 655.449H409.657C410.527 648.339 414.217 642.219 417.517 638.199H407.167V635.769H420.037V638.409C417.427 641.619 413.167 647.949 412.327 655.449ZM422.324 640.899C422.864 637.029 425.684 635.379 428.594 635.379C432.344 635.379 434.324 637.779 434.324 640.419C434.324 642.579 433.244 644.499 430.844 645.399C433.124 645.969 434.924 647.349 434.924 650.229C434.924 653.589 432.134 655.839 428.684 655.839C425.384 655.839 422.354 654.099 421.874 650.349L424.364 649.839C424.664 652.419 426.194 653.409 428.594 653.409C430.934 653.409 432.254 652.179 432.254 650.229C432.254 647.499 429.884 646.749 427.604 646.749H425.804V644.349H427.454C430.304 644.349 431.654 642.969 431.654 640.929C431.654 638.949 430.424 637.809 428.414 637.809C426.224 637.809 424.994 639.189 424.874 641.379L422.324 640.899ZM462.905 642.219C460.835 642.219 459.305 643.629 459.305 646.719V655.449H456.785V646.119C456.785 643.329 455.315 642.219 453.395 642.219C451.265 642.219 449.675 643.629 449.675 646.719V655.449H447.185V640.329H449.675V642.639C450.665 640.689 452.645 639.909 454.385 639.909C456.215 639.909 458.075 640.659 458.885 642.849C459.965 640.599 462.095 639.909 463.745 639.909C466.385 639.909 468.905 641.259 468.905 645.309V655.449H466.415V645.969C466.415 643.329 464.945 642.219 462.905 642.219ZM473.464 640.329H475.984V655.449H473.464V640.329ZM474.724 633.999C475.654 633.999 476.374 634.719 476.374 635.679C476.374 636.639 475.654 637.329 474.724 637.329C473.764 637.329 473.044 636.639 473.044 635.679C473.044 634.719 473.764 633.999 474.724 633.999ZM480.613 635.109H483.103V655.449H480.613V635.109ZM487.732 635.109H490.222V655.449H487.732V635.109ZM494.851 640.329H497.371V655.449H494.851V640.329ZM496.111 633.999C497.041 633.999 497.761 634.719 497.761 635.679C497.761 636.639 497.041 637.329 496.111 637.329C495.151 637.329 494.431 636.639 494.431 635.679C494.431 634.719 495.151 633.999 496.111 633.999ZM508.089 639.909C512.049 639.909 515.319 642.909 515.319 647.859C515.319 652.809 512.049 655.839 508.089 655.839C504.099 655.839 500.859 652.809 500.859 647.859C500.859 642.909 504.099 639.909 508.089 639.909ZM508.089 642.129C505.539 642.129 503.379 644.019 503.379 647.859C503.379 651.729 505.539 653.619 508.089 653.619C510.639 653.619 512.799 651.729 512.799 647.859C512.799 644.019 510.639 642.129 508.089 642.129ZM525.507 642.219C523.047 642.219 521.277 643.629 521.277 646.719V655.449H518.787V640.329H521.277V642.669C522.297 640.719 524.487 639.909 526.257 639.909C528.957 639.909 531.417 641.259 531.417 645.309V655.449H528.927V646.029C528.927 643.239 527.427 642.219 525.507 642.219ZM542.194 642.129C539.674 642.129 537.934 643.509 537.484 646.269H546.814C546.634 643.389 544.714 642.129 542.194 642.129ZM549.214 648.279H537.364C537.514 651.429 539.194 653.619 542.464 653.619C545.224 653.619 546.334 652.329 546.784 650.349L549.064 650.859C548.494 654.309 545.224 655.839 542.494 655.839C538.234 655.839 534.844 652.809 534.844 647.829C534.844 642.969 538.114 639.909 542.254 639.909C546.364 639.909 549.214 642.819 549.214 647.379V648.279ZM559.403 642.609C557.243 642.609 555.173 644.079 555.173 648.789V655.449H552.683V640.329H555.173V643.749C556.343 640.689 558.743 639.909 560.123 639.909C560.663 639.909 561.143 639.999 561.503 640.149L561.203 642.879C560.723 642.729 560.213 642.609 559.403 642.609ZM579.966 639.909C583.086 639.909 586.716 642.369 586.716 647.649C586.716 653.169 583.236 655.839 579.666 655.839C577.626 655.839 575.796 654.609 574.626 652.509V660.699H572.136V640.329H574.626V643.269C575.496 641.709 577.206 639.909 579.966 639.909ZM579.396 642.129C576.876 642.129 574.626 643.929 574.626 647.829C574.626 651.579 576.876 653.619 579.366 653.619C581.736 653.619 584.196 651.729 584.196 647.709C584.196 643.959 581.706 642.129 579.396 642.129ZM595.764 655.839C592.584 655.839 589.014 653.289 589.014 647.859C589.014 642.489 592.554 639.909 595.674 639.909C598.224 639.909 599.904 640.959 600.954 643.479V640.329H603.444V655.449H600.954V652.059C600.234 654.009 598.584 655.839 595.764 655.839ZM596.184 642.129C593.904 642.129 591.534 643.929 591.534 647.919C591.534 651.879 593.904 653.619 596.184 653.619C598.734 653.619 600.954 651.969 600.954 647.919C600.954 643.989 598.704 642.129 596.184 642.129ZM609.194 660.609C608.234 660.609 607.304 660.339 606.734 660.069L607.154 657.939C607.574 658.149 608.324 658.449 609.374 658.449C611.654 658.449 612.554 656.469 611.654 654.219L606.104 640.329H608.924L613.424 653.049L617.654 640.329H620.444L614.324 656.619C613.304 659.349 611.774 660.609 609.194 660.609ZM638.921 642.219C636.851 642.219 635.321 643.629 635.321 646.719V655.449H632.801V646.119C632.801 643.329 631.331 642.219 629.411 642.219C627.281 642.219 625.691 643.629 625.691 646.719V655.449H623.201V640.329H625.691V642.639C626.681 640.689 628.661 639.909 630.401 639.909C632.231 639.909 634.091 640.659 634.901 642.849C635.981 640.599 638.111 639.909 639.761 639.909C642.401 639.909 644.921 641.259 644.921 645.309V655.449H642.431V645.969C642.431 643.329 640.961 642.219 638.921 642.219ZM655.69 642.129C653.17 642.129 651.43 643.509 650.98 646.269H660.31C660.13 643.389 658.21 642.129 655.69 642.129ZM662.71 648.279H650.86C651.01 651.429 652.69 653.619 655.96 653.619C658.72 653.619 659.83 652.329 660.28 650.349L662.56 650.859C661.99 654.309 658.72 655.839 655.99 655.839C651.73 655.839 648.34 652.809 648.34 647.829C648.34 642.969 651.61 639.909 655.75 639.909C659.86 639.909 662.71 642.819 662.71 647.379V648.279ZM672.899 642.219C670.439 642.219 668.669 643.629 668.669 646.719V655.449H666.179V640.329H668.669V642.669C669.689 640.719 671.879 639.909 673.649 639.909C676.349 639.909 678.809 641.259 678.809 645.309V655.449H676.319V646.029C676.319 643.239 674.819 642.219 672.899 642.219ZM684.276 636.639L686.766 636.159V640.329H690.726V642.429H686.766V651.849C686.766 652.959 687.306 653.529 688.626 653.529C689.346 653.529 689.706 653.439 690.216 653.319L690.696 655.419C690.006 655.629 689.046 655.839 688.296 655.839C685.566 655.839 684.276 654.309 684.276 651.939V642.429H681.306V640.329H684.276V636.639ZM693.47 644.379C693.47 641.289 696.35 639.909 698.75 639.909C701.63 639.909 703.85 641.169 704.66 644.679L702.41 645.159C702.14 642.789 700.7 642.039 698.75 642.039C697.01 642.039 695.9 642.939 695.9 644.229C695.9 645.129 696.41 645.999 697.97 646.329L701.09 647.079C703.61 647.649 704.84 648.939 704.84 650.979C704.84 654.339 701.9 655.839 699.05 655.839C696.35 655.839 693.23 654.369 692.69 650.799L694.91 650.319C695.27 652.449 696.74 653.709 699.05 653.709C701.09 653.709 702.41 652.779 702.41 651.399C702.41 650.259 701.9 649.659 699.83 649.179L697.1 648.489C694.64 647.889 693.47 646.479 693.47 644.379Z" fill="black"/>
</svg>
