<svg width="432" height="299" viewBox="0 0 432 299" fill="none" xmlns="http://www.w3.org/2000/svg">
<rect width="432" height="299" fill="#CB1765"/>
<rect width="432" height="299" fill="#22AD5C"/>
<rect x="124" y="130.726" width="26.7763" height="26.7763" rx="13.3881" fill="#EDF2F1"/>
<g clip-path="url(#clip0_376_2862)">
<path d="M134.687 140.239C134.687 139.96 134.605 139.687 134.45 139.456C134.295 139.224 134.075 139.043 133.817 138.937C133.56 138.83 133.276 138.802 133.003 138.856C132.73 138.911 132.479 139.045 132.281 139.242C132.084 139.439 131.95 139.69 131.896 139.964C131.841 140.237 131.869 140.52 131.976 140.778C132.083 141.035 132.263 141.256 132.495 141.41C132.727 141.565 132.999 141.648 133.278 141.648C133.652 141.648 134.01 141.499 134.274 141.235C134.538 140.971 134.687 140.612 134.687 140.239ZM132.573 140.239C132.573 140.099 132.615 139.963 132.692 139.847C132.769 139.731 132.88 139.641 133.008 139.588C133.137 139.534 133.279 139.52 133.415 139.548C133.552 139.575 133.678 139.642 133.776 139.74C133.875 139.839 133.942 139.965 133.969 140.101C133.996 140.238 133.982 140.38 133.929 140.508C133.876 140.637 133.785 140.747 133.669 140.825C133.554 140.902 133.417 140.943 133.278 140.943C133.091 140.943 132.912 140.869 132.78 140.737C132.648 140.605 132.574 140.425 132.573 140.239Z" fill="black"/>
<path d="M141.219 140.05C140.947 139.776 140.624 139.559 140.268 139.41C139.912 139.262 139.53 139.185 139.144 139.184H139.13C138.305 139.184 137.499 139.535 136.859 140.175C136.208 140.826 135.676 141.816 135.436 142.822C135.375 143.073 135.335 143.329 135.316 143.586C135.291 143.985 135.176 144.372 134.979 144.719C134.842 144.957 134.674 145.175 134.48 145.369L132.734 147.158C132.461 147.431 132.432 147.713 132.456 147.901C132.483 148.119 132.6 148.336 132.791 148.528C132.983 148.72 133.201 148.836 133.419 148.864C133.454 148.868 133.489 148.87 133.524 148.87C133.704 148.87 133.937 148.811 134.164 148.584L135.909 146.796C136.118 146.587 136.355 146.409 136.613 146.267C136.944 146.089 137.309 145.984 137.684 145.96C137.943 145.94 138.199 145.899 138.452 145.837C139.455 145.595 140.443 145.062 141.094 144.41C141.737 143.767 142.089 142.955 142.085 142.125C142.084 141.739 142.007 141.357 141.859 141.001C141.71 140.645 141.493 140.322 141.219 140.05ZM133.664 148.087C133.577 148.174 133.526 148.167 133.507 148.165C133.447 148.157 133.368 148.108 133.29 148.03C133.212 147.952 133.163 147.873 133.155 147.812C133.152 147.793 133.146 147.742 133.234 147.654L134.629 146.225L135.061 146.657L133.664 148.087ZM135.559 146.158L135.119 145.718C135.296 145.522 135.453 145.307 135.586 145.078C135.73 145.335 135.942 145.547 136.2 145.692C135.971 145.825 135.756 145.981 135.559 146.158V146.158ZM140.596 143.912C140.041 144.467 139.156 144.943 138.287 145.152C137.422 145.361 136.697 145.278 136.349 144.929C135.605 144.185 136.152 141.878 137.358 140.673C137.91 140.121 138.536 139.891 139.123 139.891C139.722 139.891 140.296 140.128 140.721 140.548C141.506 141.333 141.729 142.779 140.596 143.912Z" fill="black"/>
</g>
<path d="M125.532 167.26H125.011L126.517 163.161H127.029L128.534 167.26H128.014L126.789 163.809H126.757L125.532 167.26ZM125.724 165.659H127.822V166.099H125.724V165.659ZM129.581 163.161V167.26H129.109V163.161H129.581ZM130.919 163.161V167.26H130.447V163.161H130.919ZM135.548 164.874L135.123 164.994C135.097 164.924 135.057 164.855 135.005 164.788C134.955 164.72 134.885 164.664 134.797 164.62C134.709 164.576 134.596 164.554 134.459 164.554C134.271 164.554 134.114 164.597 133.988 164.684C133.864 164.769 133.802 164.878 133.802 165.01C133.802 165.128 133.845 165.221 133.93 165.289C134.016 165.357 134.149 165.413 134.331 165.459L134.787 165.571C135.062 165.638 135.267 165.74 135.402 165.877C135.536 166.013 135.604 166.189 135.604 166.404C135.604 166.58 135.553 166.737 135.452 166.876C135.352 167.015 135.211 167.124 135.031 167.204C134.851 167.284 134.642 167.324 134.403 167.324C134.089 167.324 133.829 167.256 133.624 167.12C133.418 166.984 133.288 166.785 133.234 166.524L133.682 166.412C133.725 166.577 133.805 166.701 133.924 166.784C134.044 166.867 134.201 166.908 134.395 166.908C134.615 166.908 134.79 166.861 134.919 166.768C135.05 166.673 135.115 166.56 135.115 166.428C135.115 166.321 135.078 166.231 135.003 166.159C134.928 166.086 134.814 166.031 134.659 165.995L134.146 165.875C133.865 165.808 133.658 165.705 133.526 165.565C133.395 165.423 133.33 165.247 133.33 165.034C133.33 164.861 133.378 164.707 133.476 164.574C133.575 164.44 133.709 164.336 133.878 164.26C134.049 164.184 134.243 164.146 134.459 164.146C134.763 164.146 135.002 164.212 135.175 164.346C135.35 164.479 135.474 164.655 135.548 164.874ZM136.315 168.413V164.186H136.771V164.674H136.827C136.862 164.621 136.91 164.553 136.972 164.47C137.034 164.386 137.124 164.311 137.24 164.246C137.357 164.179 137.516 164.146 137.716 164.146C137.975 164.146 138.203 164.21 138.401 164.34C138.598 164.469 138.752 164.653 138.863 164.89C138.974 165.128 139.029 165.408 139.029 165.731C139.029 166.057 138.974 166.339 138.863 166.578C138.752 166.815 138.599 166.999 138.403 167.13C138.207 167.26 137.98 167.324 137.724 167.324C137.527 167.324 137.369 167.292 137.25 167.226C137.131 167.16 137.04 167.084 136.976 167C136.911 166.915 136.862 166.844 136.827 166.788H136.787V168.413H136.315ZM136.779 165.723C136.779 165.955 136.813 166.16 136.881 166.338C136.949 166.514 137.049 166.652 137.18 166.752C137.31 166.851 137.471 166.9 137.66 166.9C137.858 166.9 138.022 166.848 138.155 166.744C138.288 166.638 138.388 166.497 138.455 166.32C138.523 166.141 138.557 165.942 138.557 165.723C138.557 165.507 138.524 165.312 138.457 165.138C138.391 164.964 138.292 164.826 138.159 164.724C138.026 164.621 137.86 164.57 137.66 164.57C137.468 164.57 137.306 164.619 137.176 164.716C137.045 164.812 136.946 164.947 136.879 165.12C136.813 165.293 136.779 165.493 136.779 165.723ZM140.999 167.324C140.722 167.324 140.478 167.258 140.268 167.126C140.06 166.994 139.897 166.809 139.78 166.572C139.664 166.334 139.606 166.057 139.606 165.739C139.606 165.419 139.664 165.139 139.78 164.9C139.897 164.661 140.06 164.476 140.268 164.344C140.478 164.212 140.722 164.146 140.999 164.146C141.277 164.146 141.52 164.212 141.728 164.344C141.937 164.476 142.1 164.661 142.216 164.9C142.334 165.139 142.392 165.419 142.392 165.739C142.392 166.057 142.334 166.334 142.216 166.572C142.1 166.809 141.937 166.994 141.728 167.126C141.52 167.258 141.277 167.324 140.999 167.324ZM140.999 166.9C141.21 166.9 141.383 166.846 141.52 166.738C141.656 166.63 141.757 166.488 141.822 166.312C141.887 166.135 141.92 165.945 141.92 165.739C141.92 165.533 141.887 165.342 141.822 165.164C141.757 164.987 141.656 164.844 141.52 164.734C141.383 164.625 141.21 164.57 140.999 164.57C140.788 164.57 140.615 164.625 140.479 164.734C140.343 164.844 140.242 164.987 140.176 165.164C140.111 165.342 140.078 165.533 140.078 165.739C140.078 165.945 140.111 166.135 140.176 166.312C140.242 166.488 140.343 166.63 140.479 166.738C140.615 166.846 140.788 166.9 140.999 166.9ZM143.114 167.26V164.186H143.57V164.65H143.602C143.658 164.498 143.759 164.374 143.906 164.28C144.053 164.185 144.219 164.138 144.403 164.138C144.437 164.138 144.481 164.138 144.533 164.14C144.585 164.141 144.624 164.143 144.651 164.146V164.626C144.635 164.622 144.598 164.616 144.541 164.608C144.485 164.599 144.425 164.594 144.363 164.594C144.213 164.594 144.08 164.625 143.962 164.688C143.846 164.749 143.754 164.835 143.686 164.944C143.619 165.052 143.586 165.176 143.586 165.315V167.26H143.114ZM146.741 164.186V164.586H145.147V164.186H146.741ZM145.612 163.449H146.084V166.38C146.084 166.513 146.104 166.613 146.142 166.68C146.182 166.745 146.233 166.789 146.294 166.812C146.357 166.833 146.423 166.844 146.493 166.844C146.545 166.844 146.587 166.841 146.621 166.836C146.654 166.829 146.681 166.824 146.701 166.82L146.797 167.244C146.765 167.256 146.72 167.268 146.663 167.28C146.605 167.294 146.533 167.3 146.445 167.3C146.311 167.3 146.18 167.272 146.052 167.214C145.925 167.157 145.82 167.07 145.736 166.952C145.653 166.835 145.612 166.687 145.612 166.508V163.449ZM149.574 164.874L149.15 164.994C149.123 164.924 149.084 164.855 149.032 164.788C148.981 164.72 148.912 164.664 148.824 164.62C148.736 164.576 148.623 164.554 148.485 164.554C148.297 164.554 148.14 164.597 148.015 164.684C147.891 164.769 147.829 164.878 147.829 165.01C147.829 165.128 147.872 165.221 147.957 165.289C148.042 165.357 148.176 165.413 148.357 165.459L148.814 165.571C149.089 165.638 149.293 165.74 149.428 165.877C149.563 166.013 149.63 166.189 149.63 166.404C149.63 166.58 149.58 166.737 149.478 166.876C149.378 167.015 149.238 167.124 149.058 167.204C148.878 167.284 148.668 167.324 148.429 167.324C148.116 167.324 147.856 167.256 147.651 167.12C147.445 166.984 147.315 166.785 147.26 166.524L147.709 166.412C147.751 166.577 147.832 166.701 147.951 166.784C148.071 166.867 148.228 166.908 148.421 166.908C148.642 166.908 148.816 166.861 148.946 166.768C149.077 166.673 149.142 166.56 149.142 166.428C149.142 166.321 149.105 166.231 149.03 166.159C148.955 166.086 148.84 166.031 148.686 165.995L148.173 165.875C147.892 165.808 147.685 165.705 147.553 165.565C147.422 165.423 147.356 165.247 147.356 165.034C147.356 164.861 147.405 164.707 147.503 164.574C147.601 164.44 147.735 164.336 147.905 164.26C148.076 164.184 148.269 164.146 148.485 164.146C148.79 164.146 149.029 164.212 149.202 164.346C149.377 164.479 149.501 164.655 149.574 164.874Z" fill="#1E1E1E"/>
<rect x="163.46" y="128" width="30.6804" height="30.6804" rx="15.3402" fill="white"/>
<path d="M174.724 147.151C175.744 148.171 177.095 148.733 178.53 148.733C179.965 148.733 181.317 148.171 182.336 147.151C184.435 145.053 184.435 141.638 182.336 139.539C181.317 138.519 179.965 137.958 178.53 137.958C177.096 137.958 175.744 138.519 174.724 139.539C172.626 141.638 172.626 145.053 174.724 147.151ZM181.575 146.39C181.011 146.956 180.3 147.353 179.523 147.536C179.518 146.674 179.838 145.843 180.433 145.248C181.059 144.622 181.904 144.264 182.735 144.252C182.564 145.062 182.161 145.805 181.575 146.39ZM182.827 143.18C181.683 143.168 180.521 143.639 179.672 144.487C178.847 145.312 178.419 146.468 178.454 147.653C177.337 147.635 176.272 147.182 175.485 146.39C174.697 145.602 174.247 144.538 174.23 143.423C174.271 143.425 174.313 143.431 174.354 143.431C175.492 143.431 176.593 142.998 177.388 142.204C178.239 141.353 178.711 140.191 178.696 139.043C179.781 139.082 180.81 139.531 181.575 140.301C182.342 141.067 182.789 142.096 182.827 143.18ZM175.485 140.301C176.07 139.713 176.813 139.307 177.624 139.133C177.614 139.97 177.255 140.815 176.628 141.443C176.033 142.036 175.206 142.356 174.347 142.353C174.527 141.576 174.921 140.865 175.485 140.301Z" fill="black"/>
<path d="M169.009 164.717V164.203H172.596V164.717H171.092V168.986H170.513V164.717H169.009ZM174.399 169.061C174.053 169.061 173.755 168.985 173.505 168.832C173.255 168.678 173.063 168.463 172.928 168.188C172.794 167.911 172.727 167.588 172.727 167.221C172.727 166.853 172.794 166.53 172.928 166.249C173.063 165.967 173.252 165.748 173.493 165.591C173.736 165.432 174.019 165.352 174.343 165.352C174.53 165.352 174.714 165.384 174.896 165.446C175.079 165.508 175.244 165.609 175.394 165.749C175.543 165.888 175.662 166.072 175.751 166.301C175.84 166.53 175.884 166.811 175.884 167.146V167.38H173.119V166.903H175.324C175.324 166.701 175.283 166.52 175.202 166.361C175.123 166.203 175.009 166.077 174.861 165.985C174.715 165.894 174.542 165.848 174.343 165.848C174.123 165.848 173.933 165.902 173.773 166.011C173.614 166.118 173.492 166.259 173.406 166.431C173.321 166.604 173.278 166.79 173.278 166.987V167.305C173.278 167.576 173.325 167.805 173.418 167.994C173.513 168.181 173.645 168.323 173.813 168.421C173.981 168.518 174.176 168.566 174.399 168.566C174.544 168.566 174.675 168.546 174.791 168.505C174.91 168.463 175.012 168.401 175.097 168.318C175.183 168.234 175.249 168.13 175.296 168.006L175.828 168.155C175.772 168.336 175.678 168.494 175.546 168.631C175.413 168.767 175.25 168.873 175.055 168.949C174.861 169.024 174.642 169.061 174.399 169.061ZM177.274 166.828V168.986H176.723V165.399H177.255V165.96H177.302C177.386 165.778 177.514 165.631 177.685 165.521C177.856 165.409 178.077 165.352 178.348 165.352C178.591 165.352 178.804 165.402 178.986 165.502C179.168 165.6 179.31 165.749 179.411 165.95C179.512 166.15 179.563 166.402 179.563 166.707V168.986H179.012V166.744C179.012 166.463 178.938 166.243 178.792 166.086C178.646 165.927 178.445 165.848 178.189 165.848C178.013 165.848 177.856 165.886 177.718 165.962C177.581 166.038 177.472 166.15 177.393 166.296C177.314 166.442 177.274 166.62 177.274 166.828ZM181.121 166.828V168.986H180.57V165.399H181.102V165.96H181.149C181.233 165.778 181.361 165.631 181.532 165.521C181.703 165.409 181.924 165.352 182.195 165.352C182.438 165.352 182.651 165.402 182.833 165.502C183.015 165.6 183.157 165.749 183.258 165.95C183.359 166.15 183.41 166.402 183.41 166.707V168.986H182.859V166.744C182.859 166.463 182.785 166.243 182.639 166.086C182.493 165.927 182.292 165.848 182.037 165.848C181.861 165.848 181.703 165.886 181.565 165.962C181.428 166.038 181.32 166.15 181.24 166.296C181.161 166.442 181.121 166.62 181.121 166.828ZM184.417 168.986V165.399H184.968V168.986H184.417ZM184.697 164.801C184.59 164.801 184.497 164.765 184.419 164.692C184.343 164.618 184.305 164.53 184.305 164.428C184.305 164.325 184.343 164.237 184.419 164.164C184.497 164.091 184.59 164.054 184.697 164.054C184.805 164.054 184.896 164.091 184.973 164.164C185.051 164.237 185.09 164.325 185.09 164.428C185.09 164.53 185.051 164.618 184.973 164.692C184.896 164.765 184.805 164.801 184.697 164.801ZM188.519 166.203L188.023 166.343C187.992 166.26 187.946 166.18 187.886 166.102C187.826 166.023 187.746 165.957 187.643 165.906C187.54 165.855 187.408 165.829 187.248 165.829C187.029 165.829 186.846 165.879 186.699 165.981C186.554 166.08 186.482 166.207 186.482 166.361C186.482 166.498 186.532 166.607 186.632 166.686C186.731 166.765 186.887 166.832 187.099 166.885L187.631 167.015C187.952 167.093 188.191 167.212 188.348 167.373C188.505 167.531 188.584 167.736 188.584 167.987C188.584 168.192 188.525 168.376 188.406 168.538C188.29 168.7 188.126 168.828 187.916 168.921C187.706 169.014 187.461 169.061 187.183 169.061C186.817 169.061 186.514 168.982 186.274 168.823C186.034 168.664 185.883 168.432 185.819 168.127L186.342 167.996C186.392 168.189 186.486 168.334 186.624 168.431C186.765 168.527 186.948 168.575 187.173 168.575C187.43 168.575 187.634 168.521 187.785 168.412C187.938 168.301 188.014 168.169 188.014 168.015C188.014 167.89 187.97 167.786 187.883 167.702C187.796 167.616 187.662 167.552 187.482 167.51L186.884 167.37C186.555 167.292 186.314 167.172 186.16 167.008C186.007 166.843 185.931 166.637 185.931 166.389C185.931 166.187 185.988 166.008 186.101 165.852C186.217 165.697 186.373 165.574 186.571 165.486C186.77 165.397 186.996 165.352 187.248 165.352C187.603 165.352 187.882 165.43 188.084 165.586C188.288 165.742 188.433 165.947 188.519 166.203Z" fill="#1E1E1E"/>
<rect x="206.824" y="130.726" width="27.7158" height="26.7763" rx="13.3881" fill="#EDF2F1"/>
<path d="M224.068 146.04L223.298 145.27C223.23 145.207 223.184 145.125 223.166 145.035C223.147 144.945 223.157 144.851 223.195 144.767C223.358 144.415 223.445 144.032 223.448 143.644C223.45 143.629 223.45 143.613 223.448 143.597C223.45 143.035 223.276 142.487 222.95 142.028C222.321 141.149 221.488 140.437 220.522 139.952C219.909 139.652 219.218 139.55 218.544 139.66C217.871 139.771 217.249 140.088 216.764 140.567L216.449 140.882C215.964 141.369 215.644 141.996 215.534 142.674C215.423 143.352 215.528 144.048 215.833 144.664L215.88 144.744C215.63 145.004 215.488 145.35 215.486 145.711C215.488 145.961 215.556 146.205 215.683 146.419C215.81 146.634 215.992 146.811 216.209 146.932C216.427 147.053 216.673 147.115 216.922 147.11C217.172 147.105 217.415 147.034 217.628 146.905C217.712 146.97 217.788 147.041 217.872 147.102C218.05 147.225 218.243 147.326 218.445 147.402H218.488C218.572 147.435 218.661 147.464 218.755 147.492H218.826C218.972 147.529 219.121 147.553 219.272 147.562H219.404H219.46H219.563C219.662 147.562 219.756 147.562 219.855 147.534H219.934C220.165 147.494 220.39 147.423 220.602 147.323C220.686 147.289 220.778 147.28 220.867 147.297C220.957 147.315 221.039 147.358 221.104 147.421L221.79 148.107C222.088 148.406 222.491 148.575 222.913 148.577C223.266 148.573 223.604 148.43 223.852 148.178L224.031 147.999C224.29 147.741 224.439 147.393 224.446 147.027C224.453 146.662 224.317 146.308 224.068 146.04ZM216.881 146.19C216.788 146.19 216.697 146.163 216.62 146.111C216.543 146.06 216.483 145.986 216.447 145.901C216.411 145.815 216.402 145.72 216.42 145.629C216.438 145.538 216.483 145.454 216.549 145.389C216.615 145.323 216.698 145.278 216.789 145.26C216.881 145.242 216.975 145.251 217.061 145.287C217.147 145.322 217.22 145.383 217.272 145.46C217.323 145.537 217.351 145.628 217.351 145.721C217.351 145.845 217.301 145.965 217.213 146.053C217.125 146.141 217.006 146.19 216.881 146.19ZM218.337 146.256L218.215 146.162C218.264 146.02 218.289 145.871 218.29 145.721C218.29 145.347 218.142 144.989 217.878 144.724C217.613 144.46 217.255 144.311 216.881 144.311C216.82 144.311 216.764 144.311 216.703 144.311L216.66 144.236C216.442 143.797 216.366 143.3 216.445 142.816C216.523 142.331 216.751 141.883 217.097 141.535L217.412 141.22C217.764 140.882 218.214 140.663 218.697 140.592C219.18 140.521 219.674 140.603 220.108 140.826C220.897 141.221 221.583 141.795 222.109 142.503L218.337 146.256ZM223.401 147.37L223.227 147.548C223.03 147.745 222.725 147.708 222.471 147.454L221.785 146.773C221.583 146.572 221.325 146.438 221.045 146.386C220.765 146.335 220.476 146.37 220.216 146.486C220.068 146.559 219.91 146.608 219.747 146.632C219.657 146.649 219.565 146.657 219.474 146.656H219.314H219.267L222.495 143.428C222.528 143.75 222.472 144.075 222.335 144.368C222.219 144.628 222.184 144.917 222.235 145.197C222.286 145.477 222.421 145.735 222.621 145.937L223.392 146.712C223.479 146.799 223.529 146.916 223.531 147.039C223.533 147.162 223.486 147.281 223.401 147.37Z" fill="black"/>
<path d="M207.74 167.26V163.161H209.126C209.447 163.161 209.71 163.219 209.914 163.335C210.12 163.45 210.272 163.605 210.371 163.801C210.47 163.997 210.519 164.216 210.519 164.458C210.519 164.699 210.47 164.919 210.371 165.116C210.273 165.314 210.123 165.471 209.918 165.589C209.714 165.705 209.453 165.763 209.134 165.763H208.141V165.323H209.118C209.338 165.323 209.515 165.285 209.648 165.209C209.782 165.132 209.878 165.03 209.938 164.9C210 164.769 210.03 164.622 210.03 164.458C210.03 164.294 210 164.147 209.938 164.017C209.878 163.888 209.781 163.787 209.646 163.713C209.511 163.638 209.333 163.601 209.11 163.601H208.237V167.26H207.74ZM211.255 167.26V164.186H211.727V167.26H211.255ZM211.495 163.673C211.403 163.673 211.323 163.642 211.257 163.579C211.191 163.516 211.158 163.441 211.158 163.353C211.158 163.265 211.191 163.189 211.257 163.127C211.323 163.064 211.403 163.033 211.495 163.033C211.587 163.033 211.666 163.064 211.731 163.127C211.798 163.189 211.831 163.265 211.831 163.353C211.831 163.441 211.798 163.516 211.731 163.579C211.666 163.642 211.587 163.673 211.495 163.673ZM213.065 165.411V167.26H212.592V164.186H213.049V164.666H213.089C213.161 164.51 213.27 164.384 213.417 164.29C213.564 164.194 213.753 164.146 213.986 164.146C214.194 164.146 214.376 164.188 214.532 164.274C214.688 164.358 214.81 164.486 214.896 164.658C214.983 164.829 215.026 165.045 215.026 165.307V167.26H214.554V165.339C214.554 165.097 214.491 164.909 214.366 164.774C214.24 164.638 214.068 164.57 213.849 164.57C213.699 164.57 213.564 164.603 213.445 164.668C213.328 164.733 213.235 164.829 213.167 164.954C213.099 165.08 213.065 165.232 213.065 165.411ZM217.131 168.477C216.903 168.477 216.707 168.448 216.542 168.389C216.378 168.332 216.241 168.256 216.132 168.161C216.024 168.068 215.938 167.968 215.874 167.861L216.25 167.597C216.293 167.653 216.347 167.717 216.412 167.789C216.478 167.862 216.567 167.926 216.68 167.979C216.795 168.034 216.945 168.061 217.131 168.061C217.379 168.061 217.584 168.001 217.745 167.881C217.907 167.761 217.988 167.573 217.988 167.316V166.692H217.948C217.913 166.748 217.864 166.817 217.8 166.9C217.737 166.981 217.646 167.054 217.527 167.118C217.41 167.181 217.251 167.212 217.051 167.212C216.803 167.212 216.58 167.154 216.382 167.036C216.186 166.919 216.031 166.748 215.916 166.524C215.802 166.3 215.746 166.027 215.746 165.707C215.746 165.392 215.801 165.118 215.912 164.884C216.023 164.649 216.177 164.468 216.374 164.34C216.572 164.21 216.8 164.146 217.059 164.146C217.259 164.146 217.418 164.179 217.535 164.246C217.654 164.311 217.745 164.386 217.808 164.47C217.872 164.553 217.921 164.621 217.956 164.674H218.004V164.186H218.46V167.348C218.46 167.613 218.4 167.828 218.28 167.993C218.161 168.16 218.001 168.282 217.8 168.359C217.599 168.438 217.376 168.477 217.131 168.477ZM217.115 166.788C217.304 166.788 217.465 166.745 217.595 166.658C217.726 166.571 217.826 166.446 217.894 166.283C217.962 166.121 217.996 165.926 217.996 165.699C217.996 165.477 217.962 165.282 217.896 165.112C217.829 164.943 217.73 164.81 217.599 164.714C217.469 164.618 217.307 164.57 217.115 164.57C216.915 164.57 216.748 164.621 216.614 164.722C216.482 164.824 216.383 164.96 216.316 165.13C216.251 165.301 216.218 165.491 216.218 165.699C216.218 165.912 216.251 166.101 216.318 166.265C216.386 166.428 216.486 166.556 216.618 166.65C216.752 166.742 216.917 166.788 217.115 166.788ZM220.974 167.26V163.161H222.36C222.681 163.161 222.944 163.219 223.148 163.335C223.354 163.45 223.506 163.605 223.605 163.801C223.704 163.997 223.753 164.216 223.753 164.458C223.753 164.699 223.704 164.919 223.605 165.116C223.507 165.314 223.357 165.471 223.152 165.589C222.948 165.705 222.687 165.763 222.368 165.763H221.375V165.323H222.352C222.572 165.323 222.749 165.285 222.882 165.209C223.016 165.132 223.112 165.03 223.172 164.9C223.234 164.769 223.264 164.622 223.264 164.458C223.264 164.294 223.234 164.147 223.172 164.017C223.112 163.888 223.015 163.787 222.88 163.713C222.745 163.638 222.566 163.601 222.344 163.601H221.471V167.26H220.974ZM225.705 167.324C225.427 167.324 225.184 167.258 224.974 167.126C224.766 166.994 224.603 166.809 224.486 166.572C224.369 166.334 224.311 166.057 224.311 165.739C224.311 165.419 224.369 165.139 224.486 164.9C224.603 164.661 224.766 164.476 224.974 164.344C225.184 164.212 225.427 164.146 225.705 164.146C225.982 164.146 226.225 164.212 226.433 164.344C226.643 164.476 226.806 164.661 226.922 164.9C227.039 165.139 227.098 165.419 227.098 165.739C227.098 166.057 227.039 166.334 226.922 166.572C226.806 166.809 226.643 166.994 226.433 167.126C226.225 167.258 225.982 167.324 225.705 167.324ZM225.705 166.9C225.916 166.9 226.089 166.846 226.225 166.738C226.361 166.63 226.462 166.488 226.527 166.312C226.593 166.135 226.626 165.945 226.626 165.739C226.626 165.533 226.593 165.342 226.527 165.164C226.462 164.987 226.361 164.844 226.225 164.734C226.089 164.625 225.916 164.57 225.705 164.57C225.494 164.57 225.32 164.625 225.184 164.734C225.048 164.844 224.947 164.987 224.882 165.164C224.817 165.342 224.784 165.533 224.784 165.739C224.784 165.945 224.817 166.135 224.882 166.312C224.947 166.488 225.048 166.63 225.184 166.738C225.32 166.846 225.494 166.9 225.705 166.9ZM228.292 165.411V167.26H227.819V164.186H228.275V164.666H228.316C228.388 164.51 228.497 164.384 228.644 164.29C228.791 164.194 228.98 164.146 229.212 164.146C229.421 164.146 229.603 164.188 229.759 164.274C229.915 164.358 230.036 164.486 230.123 164.658C230.21 164.829 230.253 165.045 230.253 165.307V167.26H229.781V165.339C229.781 165.097 229.718 164.909 229.593 164.774C229.467 164.638 229.295 164.57 229.076 164.57C228.925 164.57 228.791 164.603 228.672 164.668C228.554 164.733 228.462 164.829 228.394 164.954C228.326 165.08 228.292 165.232 228.292 165.411ZM232.358 168.477C232.129 168.477 231.933 168.448 231.769 168.389C231.605 168.332 231.468 168.256 231.359 168.161C231.251 168.068 231.165 167.968 231.101 167.861L231.477 167.597C231.52 167.653 231.574 167.717 231.639 167.789C231.704 167.862 231.794 167.926 231.907 167.979C232.022 168.034 232.172 168.061 232.358 168.061C232.606 168.061 232.811 168.001 232.972 167.881C233.134 167.761 233.214 167.573 233.214 167.316V166.692H233.174C233.14 166.748 233.09 166.817 233.026 166.9C232.964 166.981 232.873 167.054 232.754 167.118C232.637 167.181 232.478 167.212 232.278 167.212C232.029 167.212 231.807 167.154 231.609 167.036C231.413 166.919 231.257 166.748 231.143 166.524C231.029 166.3 230.972 166.027 230.972 165.707C230.972 165.392 231.028 165.118 231.139 164.884C231.249 164.649 231.403 164.468 231.601 164.34C231.799 164.21 232.027 164.146 232.286 164.146C232.486 164.146 232.645 164.179 232.762 164.246C232.881 164.311 232.972 164.386 233.034 164.47C233.098 164.553 233.148 164.621 233.182 164.674H233.23V164.186H233.687V167.348C233.687 167.613 233.627 167.828 233.507 167.993C233.388 168.16 233.228 168.282 233.026 168.359C232.826 168.438 232.603 168.477 232.358 168.477ZM232.342 166.788C232.531 166.788 232.691 166.745 232.822 166.658C232.953 166.571 233.052 166.446 233.12 166.283C233.188 166.121 233.222 165.926 233.222 165.699C233.222 165.477 233.189 165.282 233.122 165.112C233.056 164.943 232.957 164.81 232.826 164.714C232.695 164.618 232.534 164.57 232.342 164.57C232.141 164.57 231.975 164.621 231.841 164.722C231.709 164.824 231.61 164.96 231.543 165.13C231.478 165.301 231.445 165.491 231.445 165.699C231.445 165.912 231.478 166.101 231.545 166.265C231.613 166.428 231.713 166.556 231.845 166.65C231.979 166.742 232.144 166.788 232.342 166.788Z" fill="#1E1E1E"/>
<rect x="247.223" y="130.726" width="26.7763" height="26.7763" rx="13.3881" fill="#EDF2F1"/>
<path d="M259.63 146.004C260.872 146.527 262.238 145.737 263.113 144.265C264.041 142.707 263.769 140.871 262.508 140.164C261.246 139.457 259.471 140.147 258.544 141.705C257.775 142.997 257.826 144.475 258.586 145.347L257.555 147.055L258.656 147.617L259.63 146.004ZM262.294 143.806C262.106 144.121 261.89 144.375 261.662 144.574V140.845C261.797 140.869 261.92 140.911 262.027 140.971C262.673 141.333 263.063 142.514 262.294 143.806ZM260.223 145.148V141.221C260.541 141 260.874 140.877 261.182 140.837V144.904C260.853 145.078 260.519 145.154 260.223 145.148ZM259.743 145.054C259.704 145.038 259.666 145.02 259.63 145C258.984 144.638 258.595 143.457 259.363 142.165C259.48 141.969 259.608 141.796 259.743 141.646V145.054Z" fill="black"/>
<path d="M253.67 167.26V163.161H255.055C255.377 163.161 255.64 163.219 255.844 163.335C256.049 163.45 256.202 163.605 256.3 163.801C256.399 163.997 256.449 164.216 256.449 164.458C256.449 164.699 256.399 164.919 256.3 165.116C256.203 165.314 256.052 165.471 255.848 165.589C255.644 165.705 255.382 165.763 255.063 165.763H254.07V165.323H255.047C255.267 165.323 255.444 165.285 255.578 165.209C255.711 165.132 255.808 165.03 255.868 164.9C255.929 164.769 255.96 164.622 255.96 164.458C255.96 164.294 255.929 164.147 255.868 164.017C255.808 163.888 255.711 163.787 255.576 163.713C255.441 163.638 255.262 163.601 255.039 163.601H254.166V167.26H253.67ZM258.089 167.332C257.894 167.332 257.717 167.296 257.559 167.222C257.4 167.148 257.274 167.04 257.18 166.9C257.087 166.759 257.04 166.588 257.04 166.388C257.04 166.211 257.075 166.069 257.144 165.959C257.214 165.848 257.306 165.762 257.422 165.699C257.539 165.636 257.667 165.59 257.807 165.559C257.948 165.527 258.09 165.501 258.233 165.483C258.42 165.459 258.571 165.441 258.688 165.429C258.805 165.415 258.89 165.393 258.944 165.363C258.998 165.332 259.026 165.279 259.026 165.203V165.186C259.026 164.989 258.972 164.836 258.864 164.726C258.757 164.617 258.595 164.562 258.377 164.562C258.152 164.562 257.975 164.611 257.847 164.71C257.719 164.809 257.629 164.914 257.577 165.026L257.128 164.866C257.208 164.679 257.315 164.534 257.448 164.43C257.583 164.324 257.73 164.251 257.889 164.21C258.049 164.167 258.206 164.146 258.361 164.146C258.46 164.146 258.573 164.158 258.702 164.182C258.831 164.204 258.956 164.252 259.076 164.324C259.197 164.396 259.298 164.505 259.378 164.65C259.458 164.795 259.498 164.99 259.498 165.235V167.26H259.026V166.844H259.002C258.97 166.911 258.916 166.982 258.842 167.058C258.767 167.134 258.668 167.199 258.543 167.252C258.419 167.306 258.268 167.332 258.089 167.332ZM258.161 166.908C258.348 166.908 258.505 166.871 258.633 166.798C258.763 166.725 258.86 166.63 258.926 166.514C258.992 166.398 259.026 166.275 259.026 166.147V165.715C259.006 165.739 258.962 165.761 258.894 165.781C258.827 165.8 258.75 165.816 258.662 165.831C258.575 165.844 258.49 165.856 258.407 165.867C258.326 165.876 258.26 165.884 258.209 165.891C258.086 165.907 257.972 165.933 257.865 165.969C257.759 166.004 257.674 166.057 257.609 166.127C257.545 166.197 257.512 166.291 257.512 166.412C257.512 166.576 257.573 166.7 257.695 166.784C257.817 166.867 257.973 166.908 258.161 166.908ZM261.522 167.324C261.265 167.324 261.039 167.26 260.843 167.13C260.647 166.999 260.493 166.815 260.383 166.578C260.272 166.339 260.216 166.057 260.216 165.731C260.216 165.408 260.272 165.128 260.383 164.89C260.493 164.653 260.647 164.469 260.845 164.34C261.043 164.21 261.271 164.146 261.53 164.146C261.73 164.146 261.888 164.179 262.004 164.246C262.121 164.311 262.211 164.386 262.272 164.47C262.335 164.553 262.384 164.621 262.418 164.674H262.458V163.161H262.931V167.26H262.474V166.788H262.418C262.384 166.844 262.334 166.915 262.27 167C262.206 167.084 262.115 167.16 261.996 167.226C261.877 167.292 261.719 167.324 261.522 167.324ZM261.586 166.9C261.775 166.9 261.935 166.851 262.066 166.752C262.197 166.652 262.296 166.514 262.364 166.338C262.432 166.16 262.466 165.955 262.466 165.723C262.466 165.493 262.433 165.293 262.366 165.12C262.3 164.947 262.201 164.812 262.07 164.716C261.939 164.619 261.778 164.57 261.586 164.57C261.385 164.57 261.219 164.621 261.085 164.724C260.953 164.826 260.854 164.964 260.787 165.138C260.722 165.312 260.689 165.507 260.689 165.723C260.689 165.942 260.722 166.141 260.789 166.32C260.857 166.497 260.957 166.638 261.089 166.744C261.223 166.848 261.388 166.9 261.586 166.9ZM265.151 167.324C264.855 167.324 264.599 167.259 264.384 167.128C264.171 166.996 264.006 166.812 263.89 166.576C263.775 166.338 263.718 166.062 263.718 165.747C263.718 165.432 263.775 165.154 263.89 164.914C264.006 164.673 264.167 164.485 264.374 164.35C264.582 164.214 264.825 164.146 265.103 164.146C265.263 164.146 265.421 164.172 265.577 164.226C265.733 164.279 265.876 164.366 266.004 164.486C266.132 164.605 266.234 164.762 266.31 164.958C266.386 165.154 266.424 165.396 266.424 165.683V165.883H264.054V165.475H265.944C265.944 165.301 265.909 165.146 265.84 165.01C265.771 164.874 265.674 164.767 265.547 164.688C265.422 164.609 265.274 164.57 265.103 164.57C264.915 164.57 264.752 164.617 264.614 164.71C264.478 164.802 264.374 164.922 264.3 165.07C264.227 165.219 264.19 165.377 264.19 165.547V165.819C264.19 166.051 264.23 166.248 264.31 166.41C264.392 166.57 264.504 166.692 264.648 166.776C264.793 166.859 264.96 166.9 265.151 166.9C265.275 166.9 265.387 166.883 265.487 166.848C265.589 166.812 265.676 166.759 265.749 166.688C265.823 166.616 265.88 166.526 265.92 166.42L266.376 166.548C266.328 166.703 266.247 166.839 266.134 166.956C266.02 167.072 265.88 167.163 265.713 167.228C265.547 167.292 265.359 167.324 265.151 167.324ZM267.615 163.161V167.26H267.143V163.161H267.615Z" fill="#1E1E1E"/>
<rect x="286.683" y="130.726" width="29.125" height="26.7763" rx="13.3881" fill="#EDF2F1"/>
<g clip-path="url(#clip1_376_2862)">
<path d="M298.779 140.239C298.779 139.96 298.696 139.687 298.541 139.456C298.387 139.224 298.167 139.043 297.909 138.937C297.652 138.83 297.368 138.802 297.095 138.856C296.821 138.911 296.57 139.045 296.373 139.242C296.176 139.439 296.042 139.69 295.988 139.964C295.933 140.237 295.961 140.52 296.068 140.778C296.174 141.035 296.355 141.256 296.587 141.41C296.819 141.565 297.091 141.648 297.37 141.648C297.743 141.648 298.102 141.499 298.366 141.235C298.63 140.971 298.779 140.612 298.779 140.239ZM296.665 140.239C296.665 140.099 296.706 139.963 296.784 139.847C296.861 139.731 296.971 139.641 297.1 139.588C297.229 139.534 297.371 139.52 297.507 139.548C297.644 139.575 297.769 139.642 297.868 139.74C297.967 139.839 298.034 139.965 298.061 140.101C298.088 140.238 298.074 140.38 298.021 140.508C297.967 140.637 297.877 140.747 297.761 140.825C297.645 140.902 297.509 140.943 297.37 140.943C297.183 140.943 297.004 140.869 296.872 140.737C296.74 140.605 296.665 140.425 296.665 140.239Z" fill="black"/>
<path d="M305.311 140.05C305.039 139.776 304.716 139.559 304.36 139.41C304.004 139.262 303.622 139.185 303.236 139.184H303.222C302.397 139.184 301.591 139.535 300.951 140.175C300.3 140.826 299.768 141.816 299.528 142.822C299.467 143.073 299.427 143.329 299.407 143.586C299.382 143.985 299.267 144.372 299.071 144.719C298.934 144.957 298.766 145.175 298.572 145.369L296.826 147.158C296.553 147.431 296.524 147.713 296.548 147.901C296.575 148.119 296.691 148.336 296.883 148.528C297.075 148.72 297.292 148.836 297.511 148.864C297.545 148.868 297.58 148.87 297.615 148.87C297.796 148.87 298.028 148.811 298.256 148.584L300.001 146.796C300.21 146.587 300.447 146.409 300.705 146.267C301.036 146.089 301.401 145.984 301.775 145.96C302.034 145.94 302.291 145.899 302.544 145.837C303.546 145.595 304.534 145.062 305.186 144.41C305.829 143.767 306.181 142.955 306.177 142.125C306.176 141.739 306.099 141.357 305.95 141.001C305.802 140.645 305.584 140.322 305.311 140.05ZM297.756 148.087C297.669 148.174 297.618 148.167 297.599 148.165C297.539 148.157 297.46 148.108 297.382 148.03C297.303 147.952 297.254 147.873 297.247 147.812C297.244 147.793 297.238 147.742 297.325 147.654L298.721 146.225L299.153 146.657L297.756 148.087ZM299.651 146.158L299.211 145.718C299.388 145.522 299.545 145.307 299.678 145.078C299.822 145.335 300.034 145.547 300.291 145.692C300.062 145.825 299.848 145.981 299.651 146.158V146.158ZM304.688 143.912C304.132 144.467 303.247 144.943 302.378 145.152C301.514 145.361 300.789 145.278 300.44 144.929C299.697 144.185 300.244 141.878 301.449 140.673C302.001 140.121 302.627 139.891 303.215 139.891C303.813 139.891 304.387 140.128 304.813 140.548C305.598 141.333 305.821 142.779 304.688 143.912Z" fill="black"/>
</g>
<path d="M287.464 167.26V163.161H288.898C289.183 163.161 289.419 163.21 289.604 163.309C289.79 163.406 289.928 163.538 290.019 163.703C290.109 163.867 290.155 164.049 290.155 164.25C290.155 164.426 290.123 164.571 290.061 164.686C289.999 164.801 289.918 164.892 289.817 164.958C289.716 165.025 289.608 165.074 289.49 165.106V165.146C289.616 165.154 289.742 165.199 289.869 165.279C289.995 165.359 290.101 165.473 290.187 165.623C290.272 165.772 290.315 165.955 290.315 166.171C290.315 166.377 290.268 166.562 290.175 166.726C290.081 166.89 289.934 167.02 289.732 167.116C289.531 167.212 289.269 167.26 288.946 167.26H287.464ZM287.961 166.82H288.946C289.27 166.82 289.5 166.757 289.636 166.632C289.774 166.505 289.843 166.352 289.843 166.171C289.843 166.033 289.807 165.904 289.736 165.787C289.666 165.668 289.565 165.574 289.434 165.503C289.303 165.431 289.149 165.395 288.97 165.395H287.961V166.82ZM287.961 164.962H288.882C289.031 164.962 289.166 164.933 289.286 164.874C289.408 164.815 289.504 164.733 289.574 164.626C289.646 164.519 289.682 164.394 289.682 164.25C289.682 164.069 289.62 163.917 289.494 163.791C289.369 163.664 289.17 163.601 288.898 163.601H287.961V164.962ZM291.971 167.332C291.777 167.332 291.6 167.296 291.441 167.222C291.282 167.148 291.156 167.04 291.063 166.9C290.969 166.759 290.923 166.588 290.923 166.388C290.923 166.211 290.957 166.069 291.027 165.959C291.096 165.848 291.189 165.762 291.305 165.699C291.421 165.636 291.549 165.59 291.689 165.559C291.831 165.527 291.973 165.501 292.116 165.483C292.302 165.459 292.454 165.441 292.57 165.429C292.687 165.415 292.773 165.393 292.826 165.363C292.881 165.332 292.908 165.279 292.908 165.203V165.186C292.908 164.989 292.854 164.836 292.746 164.726C292.639 164.617 292.477 164.562 292.26 164.562C292.034 164.562 291.857 164.611 291.729 164.71C291.601 164.809 291.511 164.914 291.459 165.026L291.011 164.866C291.091 164.679 291.197 164.534 291.331 164.43C291.466 164.324 291.612 164.251 291.771 164.21C291.931 164.167 292.089 164.146 292.244 164.146C292.342 164.146 292.456 164.158 292.584 164.182C292.713 164.204 292.838 164.252 292.958 164.324C293.08 164.396 293.181 164.505 293.261 164.65C293.341 164.795 293.381 164.99 293.381 165.235V167.26H292.908V166.844H292.884C292.852 166.911 292.799 166.982 292.724 167.058C292.649 167.134 292.55 167.199 292.426 167.252C292.302 167.306 292.15 167.332 291.971 167.332ZM292.044 166.908C292.23 166.908 292.388 166.871 292.516 166.798C292.645 166.725 292.743 166.63 292.808 166.514C292.875 166.398 292.908 166.275 292.908 166.147V165.715C292.888 165.739 292.844 165.761 292.776 165.781C292.709 165.8 292.632 165.816 292.544 165.831C292.457 165.844 292.373 165.856 292.29 165.867C292.208 165.876 292.142 165.884 292.092 165.891C291.969 165.907 291.854 165.933 291.747 165.969C291.642 166.004 291.556 166.057 291.491 166.127C291.427 166.197 291.395 166.291 291.395 166.412C291.395 166.576 291.456 166.7 291.577 166.784C291.7 166.867 291.855 166.908 292.044 166.908ZM295.404 167.324C295.148 167.324 294.922 167.26 294.725 167.13C294.529 166.999 294.376 166.815 294.265 166.578C294.154 166.339 294.099 166.057 294.099 165.731C294.099 165.408 294.154 165.128 294.265 164.89C294.376 164.653 294.53 164.469 294.727 164.34C294.925 164.21 295.153 164.146 295.412 164.146C295.612 164.146 295.77 164.179 295.887 164.246C296.004 164.311 296.093 164.386 296.155 164.47C296.218 164.553 296.266 164.621 296.301 164.674H296.341V163.161H296.813V167.26H296.357V166.788H296.301C296.266 166.844 296.217 166.915 296.153 167C296.089 167.084 295.997 167.16 295.879 167.226C295.76 167.292 295.602 167.324 295.404 167.324ZM295.468 166.9C295.658 166.9 295.818 166.851 295.949 166.752C296.079 166.652 296.179 166.514 296.247 166.338C296.315 166.16 296.349 165.955 296.349 165.723C296.349 165.493 296.316 165.293 296.249 165.12C296.182 164.947 296.083 164.812 295.953 164.716C295.822 164.619 295.66 164.57 295.468 164.57C295.268 164.57 295.101 164.621 294.968 164.724C294.836 164.826 294.736 164.964 294.669 165.138C294.604 165.312 294.571 165.507 294.571 165.723C294.571 165.942 294.605 166.141 294.671 166.32C294.739 166.497 294.84 166.638 294.972 166.744C295.105 166.848 295.271 166.9 295.468 166.9ZM297.744 167.26V164.186H298.201V164.666H298.241C298.305 164.502 298.408 164.374 298.551 164.284C298.694 164.192 298.865 164.146 299.065 164.146C299.268 164.146 299.437 164.192 299.572 164.284C299.708 164.374 299.814 164.502 299.89 164.666H299.922C300.001 164.507 300.119 164.381 300.277 164.288C300.434 164.193 300.623 164.146 300.843 164.146C301.118 164.146 301.343 164.232 301.518 164.404C301.692 164.575 301.78 164.841 301.78 165.203V167.26H301.307V165.203C301.307 164.976 301.245 164.813 301.121 164.716C300.997 164.619 300.851 164.57 300.683 164.57C300.467 164.57 300.299 164.635 300.18 164.766C300.062 164.896 300.002 165.06 300.002 165.259V167.26H299.522V165.154C299.522 164.98 299.465 164.839 299.352 164.732C299.238 164.624 299.092 164.57 298.913 164.57C298.791 164.57 298.676 164.603 298.569 164.668C298.464 164.733 298.378 164.824 298.313 164.94C298.249 165.055 298.217 165.188 298.217 165.339V167.26H297.744ZM302.644 167.26V164.186H303.116V167.26H302.644ZM302.884 163.673C302.792 163.673 302.712 163.642 302.646 163.579C302.58 163.516 302.548 163.441 302.548 163.353C302.548 163.265 302.58 163.189 302.646 163.127C302.712 163.064 302.792 163.033 302.884 163.033C302.976 163.033 303.055 163.064 303.12 163.127C303.187 163.189 303.22 163.265 303.22 163.353C303.22 163.441 303.187 163.516 303.12 163.579C303.055 163.642 302.976 163.673 302.884 163.673ZM304.454 165.411V167.26H303.981V164.186H304.438V164.666H304.478C304.55 164.51 304.659 164.384 304.806 164.29C304.953 164.194 305.142 164.146 305.375 164.146C305.583 164.146 305.765 164.188 305.921 164.274C306.077 164.358 306.199 164.486 306.285 164.658C306.372 164.829 306.416 165.045 306.416 165.307V167.26H305.943V165.339C305.943 165.097 305.88 164.909 305.755 164.774C305.63 164.638 305.457 164.57 305.239 164.57C305.088 164.57 304.953 164.603 304.834 164.668C304.717 164.733 304.624 164.829 304.556 164.954C304.488 165.08 304.454 165.232 304.454 165.411ZM308.616 164.186V164.586H307.023V164.186H308.616ZM307.487 163.449H307.959V166.38C307.959 166.513 307.979 166.613 308.018 166.68C308.058 166.745 308.108 166.789 308.17 166.812C308.232 166.833 308.298 166.844 308.368 166.844C308.42 166.844 308.463 166.841 308.496 166.836C308.529 166.829 308.556 166.824 308.576 166.82L308.672 167.244C308.64 167.256 308.595 167.268 308.538 167.28C308.481 167.294 308.408 167.3 308.32 167.3C308.186 167.3 308.056 167.272 307.927 167.214C307.801 167.157 307.695 167.07 307.611 166.952C307.528 166.835 307.487 166.687 307.487 166.508V163.449ZM310.543 167.324C310.265 167.324 310.022 167.258 309.812 167.126C309.604 166.994 309.441 166.809 309.324 166.572C309.208 166.334 309.15 166.057 309.15 165.739C309.15 165.419 309.208 165.139 309.324 164.9C309.441 164.661 309.604 164.476 309.812 164.344C310.022 164.212 310.265 164.146 310.543 164.146C310.82 164.146 311.063 164.212 311.271 164.344C311.481 164.476 311.644 164.661 311.76 164.9C311.877 165.139 311.936 165.419 311.936 165.739C311.936 166.057 311.877 166.334 311.76 166.572C311.644 166.809 311.481 166.994 311.271 167.126C311.063 167.258 310.82 167.324 310.543 167.324ZM310.543 166.9C310.754 166.9 310.927 166.846 311.063 166.738C311.199 166.63 311.3 166.488 311.366 166.312C311.431 166.135 311.464 165.945 311.464 165.739C311.464 165.533 311.431 165.342 311.366 165.164C311.3 164.987 311.199 164.844 311.063 164.734C310.927 164.625 310.754 164.57 310.543 164.57C310.332 164.57 310.158 164.625 310.022 164.734C309.886 164.844 309.785 164.987 309.72 165.164C309.655 165.342 309.622 165.533 309.622 165.739C309.622 165.945 309.655 166.135 309.72 166.312C309.785 166.488 309.886 166.63 310.022 166.738C310.158 166.846 310.332 166.9 310.543 166.9ZM313.13 165.411V167.26H312.657V164.186H313.114V164.666H313.154C313.226 164.51 313.335 164.384 313.482 164.29C313.629 164.194 313.818 164.146 314.05 164.146C314.259 164.146 314.441 164.188 314.597 164.274C314.753 164.358 314.875 164.486 314.961 164.658C315.048 164.829 315.091 165.045 315.091 165.307V167.26H314.619V165.339C314.619 165.097 314.556 164.909 314.431 164.774C314.305 164.638 314.133 164.57 313.914 164.57C313.764 164.57 313.629 164.603 313.51 164.668C313.393 164.733 313.3 164.829 313.232 164.954C313.164 165.08 313.13 165.232 313.13 165.411Z" fill="#1E1E1E"/>
<defs>
<clipPath id="clip0_376_2862">
<rect width="11.2742" height="11.2742" fill="white" transform="translate(131.516 138.477)"/>
</clipPath>
<clipPath id="clip1_376_2862">
<rect width="11.2742" height="11.2742" fill="white" transform="translate(295.608 138.477)"/>
</clipPath>
</defs>
</svg>
