<svg width="2511" height="690" viewBox="0 0 2511 690" fill="none" xmlns="http://www.w3.org/2000/svg">
<path d="M73.6348 88L84.481 21.8898H90.9371L80.0909 88H73.6348ZM43.5495 69.6647L44.5824 63.2087H93.9069L92.8739 69.6647H43.5495ZM50.3929 88L61.2391 21.8898H67.6952L56.849 88H50.3929ZM47.4231 46.6811L48.4561 40.225H97.7805L96.7475 46.6811H47.4231ZM127.365 88.9039C122.932 88.9039 119.016 88.1184 115.615 86.5474C112.237 84.9549 109.601 82.7706 107.707 79.9945C105.813 77.1968 104.877 74.0118 104.898 70.4395C104.877 67.6418 105.426 65.0594 106.545 62.6922C107.664 60.3034 109.192 58.3128 111.128 56.7203C113.087 55.1063 115.271 54.0841 117.681 53.6537V53.2663C114.518 52.4485 112 50.6731 110.128 47.94C108.255 45.1854 107.33 42.0542 107.352 38.5464C107.33 35.1893 108.18 32.1872 109.902 29.5402C111.623 26.8932 113.991 24.8058 117.003 23.2778C120.038 21.7499 123.492 20.9859 127.365 20.9859C131.196 20.9859 134.618 21.7499 137.631 23.2778C140.643 24.8058 143.011 26.8932 144.732 29.5402C146.475 32.1872 147.358 35.1893 147.379 38.5464C147.358 42.0542 146.4 45.1854 144.506 47.94C142.634 50.6731 140.149 52.4485 137.05 53.2663V53.6537C139.438 54.0841 141.59 55.1063 143.506 56.7203C145.421 58.3128 146.949 60.3034 148.089 62.6922C149.23 65.0594 149.811 67.6418 149.833 70.4395C149.811 74.0118 148.843 77.1968 146.927 79.9945C145.034 82.7706 142.397 84.9549 139.019 86.5474C135.662 88.1184 131.777 88.9039 127.365 88.9039ZM127.365 81.8022C130.357 81.8022 132.939 81.318 135.113 80.3495C137.286 79.3811 138.965 78.0146 140.149 76.2499C141.332 74.4853 141.935 72.4193 141.956 70.0521C141.935 67.5558 141.289 65.3499 140.019 63.4346C138.75 61.5193 137.017 60.0129 134.822 58.9154C132.649 57.8178 130.163 57.2691 127.365 57.2691C124.546 57.2691 122.028 57.8178 119.812 58.9154C117.617 60.0129 115.884 61.5193 114.615 63.4346C113.367 65.3499 112.753 67.5558 112.775 70.0521C112.753 72.4193 113.324 74.4853 114.486 76.2499C115.669 78.0146 117.359 79.3811 119.554 80.3495C121.749 81.318 124.353 81.8022 127.365 81.8022ZM127.365 50.4256C129.733 50.4256 131.831 49.9522 133.66 49.0053C135.511 48.0584 136.964 46.7349 138.018 45.0348C139.072 43.3347 139.611 41.3441 139.632 39.0629C139.611 36.8248 139.083 34.8772 138.05 33.2202C137.017 31.5416 135.586 30.2504 133.757 29.3465C131.928 28.4212 129.797 27.9585 127.365 27.9585C124.891 27.9585 122.728 28.4212 120.877 29.3465C119.026 30.2504 117.595 31.5416 116.584 33.2202C115.572 34.8772 115.077 36.8248 115.099 39.0629C115.077 41.3441 115.583 43.3347 116.616 45.0348C117.671 46.7349 119.123 48.0584 120.974 49.0053C122.825 49.9522 124.955 50.4256 127.365 50.4256ZM163.366 88V21.8898H203.265V28.9915H171.372V51.3295H201.199V58.4312H171.372V80.8983H203.781V88H163.366ZM220.406 88H212.013L236.288 21.8898H244.551L268.826 88H260.433L240.678 32.3486H240.161L220.406 88ZM223.505 62.1757H257.334V69.2774H223.505V62.1757ZM298.096 21.8898V88H290.091V30.2827H289.704L273.563 40.9998V32.8651L290.091 21.8898H298.096ZM320.983 88H312.59L336.865 21.8898H345.129L369.404 88H361.011L341.255 32.3486H340.739L320.983 88ZM324.082 62.1757H357.912V69.2774H324.082V62.1757ZM382.413 88H374.02L398.295 21.8898H406.559L430.833 88H422.44L402.685 32.3486H402.168L382.413 88ZM385.512 62.1757H419.342V69.2774H385.512V62.1757Z" fill="#1E1E1E"/>
<path d="M745.635 88L756.481 21.8898H762.937L752.091 88H745.635ZM715.549 69.6647L716.582 63.2087H765.907L764.874 69.6647H715.549ZM722.393 88L733.239 21.8898H739.695L728.849 88H722.393ZM719.423 46.6811L720.456 40.225H769.781L768.748 46.6811H719.423ZM799.753 88.9039C794.889 88.9039 790.747 87.5804 787.325 84.9334C783.903 82.2649 781.288 78.402 779.481 73.3447C777.673 68.2659 776.769 62.1327 776.769 54.9449C776.769 47.8002 777.673 41.6992 779.481 36.6419C781.31 31.5631 783.935 27.6895 787.357 25.021C790.8 22.3309 794.932 20.9859 799.753 20.9859C804.573 20.9859 808.695 22.3309 812.116 25.021C815.559 27.6895 818.185 31.5631 819.993 36.6419C821.822 41.6992 822.736 47.8002 822.736 54.9449C822.736 62.1327 821.833 68.2659 820.025 73.3447C818.217 78.402 815.603 82.2649 812.181 84.9334C808.759 87.5804 804.616 88.9039 799.753 88.9039ZM799.753 81.8022C804.573 81.8022 808.318 79.478 810.986 74.8296C813.655 70.1812 814.989 63.553 814.989 54.9449C814.989 49.2205 814.376 44.3462 813.149 40.3219C811.944 36.2976 810.201 33.2309 807.92 31.122C805.66 29.013 802.938 27.9585 799.753 27.9585C794.975 27.9585 791.242 30.3149 788.552 35.0279C785.862 39.7193 784.517 46.3583 784.517 54.9449C784.517 60.6693 785.119 65.5329 786.324 69.5356C787.529 73.5384 789.262 76.5835 791.521 78.671C793.802 80.7584 796.546 81.8022 799.753 81.8022ZM856.566 88.9039C851.703 88.9039 847.56 87.5804 844.138 84.9334C840.717 82.2649 838.102 78.402 836.294 73.3447C834.487 68.2659 833.583 62.1327 833.583 54.9449C833.583 47.8002 834.487 41.6992 836.294 36.6419C838.123 31.5631 840.749 27.6895 844.171 25.021C847.614 22.3309 851.746 20.9859 856.566 20.9859C861.387 20.9859 865.508 22.3309 868.93 25.021C872.373 27.6895 874.998 31.5631 876.806 36.6419C878.635 41.6992 879.55 47.8002 879.55 54.9449C879.55 62.1327 878.646 68.2659 876.838 73.3447C875.031 78.402 872.416 82.2649 868.994 84.9334C865.573 87.5804 861.43 88.9039 856.566 88.9039ZM856.566 81.8022C861.387 81.8022 865.131 79.478 867.8 74.8296C870.468 70.1812 871.803 63.553 871.803 54.9449C871.803 49.2205 871.189 44.3462 869.963 40.3219C868.758 36.2976 867.014 33.2309 864.733 31.122C862.474 29.013 859.751 27.9585 856.566 27.9585C851.789 27.9585 848.055 30.3149 845.365 35.0279C842.675 39.7193 841.33 46.3583 841.33 54.9449C841.33 60.6693 841.933 65.5329 843.138 69.5356C844.343 73.5384 846.075 76.5835 848.335 78.671C850.616 80.7584 853.36 81.8022 856.566 81.8022ZM914.155 88.9039C909.894 88.9039 906.095 88.1722 902.76 86.7088C899.445 85.2454 896.809 83.2117 894.851 80.6078C892.914 77.9823 891.86 74.9372 891.687 71.4724H899.822C899.994 73.6029 900.726 75.4429 902.017 76.9924C903.308 78.5203 904.998 79.7039 907.085 80.5432C909.173 81.3825 911.486 81.8022 914.025 81.8022C916.866 81.8022 919.384 81.3072 921.579 80.3173C923.774 79.3273 925.496 77.95 926.744 76.1854C927.992 74.4207 928.616 72.3763 928.616 70.0521C928.616 67.6203 928.014 65.4791 926.808 63.6283C925.603 61.756 923.839 60.2927 921.514 59.2382C919.19 58.1837 916.35 57.6564 912.992 57.6564H907.698V50.5548H912.992C915.618 50.5548 917.921 50.0813 919.9 49.1344C921.902 48.1875 923.462 46.8533 924.581 45.1316C925.722 43.41 926.292 41.3871 926.292 39.0629C926.292 36.8248 925.797 34.8772 924.807 33.2202C923.817 31.5631 922.418 30.2719 920.611 29.3465C918.824 28.4212 916.715 27.9585 914.284 27.9585C912.002 27.9585 909.85 28.3781 907.828 29.2174C905.826 30.0352 904.191 31.2296 902.921 32.8005C901.651 34.35 900.963 36.2223 900.855 38.4173H893.108C893.237 34.9526 894.281 31.9182 896.239 29.3143C898.197 26.6888 900.758 24.6444 903.922 23.181C907.107 21.7176 910.604 20.9859 914.413 20.9859C918.502 20.9859 922.009 21.8144 924.936 23.4715C927.863 25.107 930.112 27.2698 931.683 29.9599C933.254 32.6499 934.039 35.5551 934.039 38.6756C934.039 42.3986 933.06 45.5728 931.102 48.1983C929.165 50.8238 926.529 52.6422 923.193 53.6537V54.1702C927.368 54.8588 930.628 56.6342 932.974 59.4964C935.32 62.3371 936.493 65.8557 936.493 70.0521C936.493 73.646 935.513 76.874 933.555 79.7362C931.618 82.5769 928.971 84.815 925.614 86.4505C922.257 88.0861 918.437 88.9039 914.155 88.9039ZM970.742 20.9859C973.454 21.0074 976.165 21.5239 978.877 22.5354C981.588 23.5468 984.063 25.2254 986.301 27.5711C988.539 29.8953 990.336 33.0695 991.692 37.0938C993.048 41.1181 993.726 46.1646 993.726 52.2333C993.726 58.1084 993.166 63.327 992.047 67.8893C990.95 72.4301 989.357 76.2607 987.27 79.3811C985.204 82.5016 982.686 84.8688 979.716 86.4828C976.768 88.0968 973.432 88.9039 969.709 88.9039C966.008 88.9039 962.704 88.1722 959.799 86.7088C956.915 85.2239 954.548 83.1687 952.697 80.5432C950.868 77.8962 949.695 74.8296 949.179 71.3433H957.055C957.765 74.3777 959.175 76.8848 961.284 78.8647C963.414 80.823 966.223 81.8022 969.709 81.8022C974.809 81.8022 978.834 79.5748 981.782 75.1201C984.752 70.6654 986.237 64.3708 986.237 56.2361H985.72C984.515 58.0438 983.084 59.604 981.427 60.9168C979.77 62.2295 977.93 63.2409 975.907 63.9511C973.884 64.6613 971.732 65.0164 969.451 65.0164C965.663 65.0164 962.188 64.0802 959.024 62.208C955.882 60.3142 953.364 57.721 951.471 54.4284C949.598 51.1143 948.662 47.3267 948.662 43.0657C948.662 39.0199 949.566 35.3184 951.374 31.9612C953.203 28.5826 955.764 25.8925 959.057 23.8912C962.371 21.8898 966.266 20.9214 970.742 20.9859ZM970.742 28.0876C968.03 28.0876 965.588 28.7655 963.414 30.1213C961.262 31.4555 959.552 33.2632 958.282 35.5444C957.034 37.804 956.41 40.3111 956.41 43.0657C956.41 45.8203 957.012 48.3274 958.217 50.587C959.444 52.8251 961.112 54.6113 963.221 55.9456C965.351 57.2583 967.772 57.9147 970.484 57.9147C972.528 57.9147 974.433 57.5166 976.197 56.7203C977.962 55.9025 979.501 54.7942 980.814 53.3954C982.148 51.9751 983.192 50.3718 983.945 48.5856C984.698 46.7779 985.075 44.8949 985.075 42.9366C985.075 40.3541 984.45 37.9331 983.202 35.6735C981.976 33.4139 980.276 31.5846 978.102 30.1858C975.95 28.787 973.497 28.0876 970.742 28.0876ZM1004.87 74.4422V67.857L1033.92 21.8898H1038.7V32.0904H1035.47L1013.52 66.8241V67.3406H1052.65V74.4422H1004.87ZM1035.99 88V72.4409V69.3742V21.8898H1043.61V88H1035.99ZM1085.79 20.9859C1088.5 21.0074 1091.21 21.5239 1093.92 22.5354C1096.64 23.5468 1099.11 25.2254 1101.35 27.5711C1103.59 29.8953 1105.38 33.0695 1106.74 37.0938C1108.1 41.1181 1108.77 46.1646 1108.77 52.2333C1108.77 58.1084 1108.21 63.327 1107.09 67.8893C1106 72.4301 1104.4 76.2607 1102.32 79.3811C1100.25 82.5016 1097.73 84.8688 1094.76 86.4828C1091.82 88.0968 1088.48 88.9039 1084.76 88.9039C1081.05 88.9039 1077.75 88.1722 1074.85 86.7088C1071.96 85.2239 1069.6 83.1687 1067.74 80.5432C1065.92 77.8962 1064.74 74.8296 1064.23 71.3433H1072.1C1072.81 74.3777 1074.22 76.8848 1076.33 78.8647C1078.46 80.823 1081.27 81.8022 1084.76 81.8022C1089.86 81.8022 1093.88 79.5748 1096.83 75.1201C1099.8 70.6654 1101.28 64.3708 1101.28 56.2361H1100.77C1099.56 58.0438 1098.13 59.604 1096.47 60.9168C1094.82 62.2295 1092.98 63.2409 1090.95 63.9511C1088.93 64.6613 1086.78 65.0164 1084.5 65.0164C1080.71 65.0164 1077.24 64.0802 1074.07 62.208C1070.93 60.3142 1068.41 57.721 1066.52 54.4284C1064.65 51.1143 1063.71 47.3267 1063.71 43.0657C1063.71 39.0199 1064.61 35.3184 1066.42 31.9612C1068.25 28.5826 1070.81 25.8925 1074.1 23.8912C1077.42 21.8898 1081.31 20.9214 1085.79 20.9859ZM1085.79 28.0876C1083.08 28.0876 1080.64 28.7655 1078.46 30.1213C1076.31 31.4555 1074.6 33.2632 1073.33 35.5444C1072.08 37.804 1071.46 40.3111 1071.46 43.0657C1071.46 45.8203 1072.06 48.3274 1073.26 50.587C1074.49 52.8251 1076.16 54.6113 1078.27 55.9456C1080.4 57.2583 1082.82 57.9147 1085.53 57.9147C1087.58 57.9147 1089.48 57.5166 1091.24 56.7203C1093.01 55.9025 1094.55 54.7942 1095.86 53.3954C1097.2 51.9751 1098.24 50.3718 1098.99 48.5856C1099.75 46.7779 1100.12 44.8949 1100.12 42.9366C1100.12 40.3541 1099.5 37.9331 1098.25 35.6735C1097.02 33.4139 1095.32 31.5846 1093.15 30.1858C1091 28.787 1088.54 28.0876 1085.79 28.0876Z" fill="#1E1E1E"/>
<path d="M1426.63 88L1437.48 21.8898H1443.94L1433.09 88H1426.63ZM1396.55 69.6647L1397.58 63.2087H1446.91L1445.87 69.6647H1396.55ZM1403.39 88L1414.24 21.8898H1420.7L1409.85 88H1403.39ZM1400.42 46.6811L1401.46 40.225H1450.78L1449.75 46.6811H1400.42ZM1480.75 88.9039C1475.89 88.9039 1471.75 87.5804 1468.32 84.9334C1464.9 82.2649 1462.29 78.402 1460.48 73.3447C1458.67 68.2659 1457.77 62.1327 1457.77 54.9449C1457.77 47.8002 1458.67 41.6992 1460.48 36.6419C1462.31 31.5631 1464.94 27.6895 1468.36 25.021C1471.8 22.3309 1475.93 20.9859 1480.75 20.9859C1485.57 20.9859 1489.69 22.3309 1493.12 25.021C1496.56 27.6895 1499.18 31.5631 1500.99 36.6419C1502.82 41.6992 1503.74 47.8002 1503.74 54.9449C1503.74 62.1327 1502.83 68.2659 1501.02 73.3447C1499.22 78.402 1496.6 82.2649 1493.18 84.9334C1489.76 87.5804 1485.62 88.9039 1480.75 88.9039ZM1480.75 81.8022C1485.57 81.8022 1489.32 79.478 1491.99 74.8296C1494.65 70.1812 1495.99 63.553 1495.99 54.9449C1495.99 49.2205 1495.38 44.3462 1494.15 40.3219C1492.94 36.2976 1491.2 33.2309 1488.92 31.122C1486.66 29.013 1483.94 27.9585 1480.75 27.9585C1475.98 27.9585 1472.24 30.3149 1469.55 35.0279C1466.86 39.7193 1465.52 46.3583 1465.52 54.9449C1465.52 60.6693 1466.12 65.5329 1467.32 69.5356C1468.53 73.5384 1470.26 76.5835 1472.52 78.671C1474.8 80.7584 1477.55 81.8022 1480.75 81.8022ZM1537.57 88.9039C1532.7 88.9039 1528.56 87.5804 1525.14 84.9334C1521.72 82.2649 1519.1 78.402 1517.29 73.3447C1515.49 68.2659 1514.58 62.1327 1514.58 54.9449C1514.58 47.8002 1515.49 41.6992 1517.29 36.6419C1519.12 31.5631 1521.75 27.6895 1525.17 25.021C1528.61 22.3309 1532.75 20.9859 1537.57 20.9859C1542.39 20.9859 1546.51 22.3309 1549.93 25.021C1553.37 27.6895 1556 31.5631 1557.81 36.6419C1559.64 41.6992 1560.55 47.8002 1560.55 54.9449C1560.55 62.1327 1559.65 68.2659 1557.84 73.3447C1556.03 78.402 1553.42 82.2649 1549.99 84.9334C1546.57 87.5804 1542.43 88.9039 1537.57 88.9039ZM1537.57 81.8022C1542.39 81.8022 1546.13 79.478 1548.8 74.8296C1551.47 70.1812 1552.8 63.553 1552.8 54.9449C1552.8 49.2205 1552.19 44.3462 1550.96 40.3219C1549.76 36.2976 1548.01 33.2309 1545.73 31.122C1543.47 29.013 1540.75 27.9585 1537.57 27.9585C1532.79 27.9585 1529.06 30.3149 1526.37 35.0279C1523.67 39.7193 1522.33 46.3583 1522.33 54.9449C1522.33 60.6693 1522.93 65.5329 1524.14 69.5356C1525.34 73.5384 1527.08 76.5835 1529.33 78.671C1531.62 80.7584 1534.36 81.8022 1537.57 81.8022ZM1596.06 21.8898V88H1588.05V30.2827H1587.67L1571.53 40.9998V32.8651L1588.05 21.8898H1596.06ZM1616.23 88V21.8898H1655.87V28.9915H1624.24V51.3295H1652.9V58.4312H1624.24V88H1616.23ZM1668.42 88V82.1895L1690.24 58.302C1692.81 55.5044 1694.91 53.0726 1696.57 51.0067C1698.23 48.9192 1699.46 46.9609 1700.25 45.1316C1701.07 43.2809 1701.48 41.3441 1701.48 39.3212C1701.48 36.997 1700.92 34.9848 1699.8 33.2847C1698.7 31.5846 1697.2 30.2719 1695.28 29.3465C1693.36 28.4212 1691.21 27.9585 1688.82 27.9585C1686.28 27.9585 1684.07 28.4857 1682.17 29.5402C1680.3 30.5732 1678.85 32.0258 1677.82 33.8981C1676.81 35.7703 1676.3 37.9654 1676.3 40.4833H1668.68C1668.68 36.6096 1669.57 33.2094 1671.36 30.2827C1673.15 27.3559 1675.58 25.0748 1678.66 23.4392C1681.75 21.8037 1685.23 20.9859 1689.08 20.9859C1692.96 20.9859 1696.39 21.8037 1699.38 23.4392C1702.37 25.0748 1704.72 27.2806 1706.42 30.0567C1708.12 32.8328 1708.97 35.921 1708.97 39.3212C1708.97 41.753 1708.53 44.131 1707.64 46.4551C1706.78 48.7578 1705.28 51.3295 1703.12 54.1702C1700.99 56.9893 1698.03 60.4325 1694.25 64.4999L1679.4 80.3818V80.8983H1710.13V88H1668.42ZM1744.51 20.9859C1747.22 21.0074 1749.93 21.5239 1752.64 22.5354C1755.35 23.5468 1757.83 25.2254 1760.07 27.5711C1762.31 29.8953 1764.1 33.0695 1765.46 37.0938C1766.81 41.1181 1767.49 46.1646 1767.49 52.2333C1767.49 58.1084 1766.93 63.327 1765.81 67.8893C1764.72 72.4301 1763.12 76.2607 1761.04 79.3811C1758.97 82.5016 1756.45 84.8688 1753.48 86.4828C1750.53 88.0968 1747.2 88.9039 1743.47 88.9039C1739.77 88.9039 1736.47 88.1722 1733.56 86.7088C1730.68 85.2239 1728.31 83.1687 1726.46 80.5432C1724.63 77.8962 1723.46 74.8296 1722.94 71.3433H1730.82C1731.53 74.3777 1732.94 76.8848 1735.05 78.8647C1737.18 80.823 1739.99 81.8022 1743.47 81.8022C1748.58 81.8022 1752.6 79.5748 1755.55 75.1201C1758.52 70.6654 1760 64.3708 1760 56.2361H1759.49C1758.28 58.0438 1756.85 59.604 1755.19 60.9168C1753.54 62.2295 1751.7 63.2409 1749.67 63.9511C1747.65 64.6613 1745.5 65.0164 1743.22 65.0164C1739.43 65.0164 1735.95 64.0802 1732.79 62.208C1729.65 60.3142 1727.13 57.721 1725.24 54.4284C1723.36 51.1143 1722.43 47.3267 1722.43 43.0657C1722.43 39.0199 1723.33 35.3184 1725.14 31.9612C1726.97 28.5826 1729.53 25.8925 1732.82 23.8912C1736.14 21.8898 1740.03 20.9214 1744.51 20.9859ZM1744.51 28.0876C1741.8 28.0876 1739.35 28.7655 1737.18 30.1213C1735.03 31.4555 1733.32 33.2632 1732.05 35.5444C1730.8 37.804 1730.18 40.3111 1730.18 43.0657C1730.18 45.8203 1730.78 48.3274 1731.98 50.587C1733.21 52.8251 1734.88 54.6113 1736.99 55.9456C1739.12 57.2583 1741.54 57.9147 1744.25 57.9147C1746.29 57.9147 1748.2 57.5166 1749.96 56.7203C1751.73 55.9025 1753.27 54.7942 1754.58 53.3954C1755.91 51.9751 1756.96 50.3718 1757.71 48.5856C1758.46 46.7779 1758.84 44.8949 1758.84 42.9366C1758.84 40.3541 1758.22 37.9331 1756.97 35.6735C1755.74 33.4139 1754.04 31.5846 1751.87 30.1858C1749.72 28.787 1747.26 28.0876 1744.51 28.0876Z" fill="#1E1E1E"/>
<path d="M2107.63 88L2118.48 21.8898H2124.94L2114.09 88H2107.63ZM2077.55 69.6647L2078.58 63.2087H2127.91L2126.87 69.6647H2077.55ZM2084.39 88L2095.24 21.8898H2101.7L2090.85 88H2084.39ZM2081.42 46.6811L2082.46 40.225H2131.78L2130.75 46.6811H2081.42ZM2161.75 88.9039C2156.89 88.9039 2152.75 87.5804 2149.32 84.9334C2145.9 82.2649 2143.29 78.402 2141.48 73.3447C2139.67 68.2659 2138.77 62.1327 2138.77 54.9449C2138.77 47.8002 2139.67 41.6992 2141.48 36.6419C2143.31 31.5631 2145.94 27.6895 2149.36 25.021C2152.8 22.3309 2156.93 20.9859 2161.75 20.9859C2166.57 20.9859 2170.69 22.3309 2174.12 25.021C2177.56 27.6895 2180.18 31.5631 2181.99 36.6419C2183.82 41.6992 2184.74 47.8002 2184.74 54.9449C2184.74 62.1327 2183.83 68.2659 2182.02 73.3447C2180.22 78.402 2177.6 82.2649 2174.18 84.9334C2170.76 87.5804 2166.62 88.9039 2161.75 88.9039ZM2161.75 81.8022C2166.57 81.8022 2170.32 79.478 2172.99 74.8296C2175.65 70.1812 2176.99 63.553 2176.99 54.9449C2176.99 49.2205 2176.38 44.3462 2175.15 40.3219C2173.94 36.2976 2172.2 33.2309 2169.92 31.122C2167.66 29.013 2164.94 27.9585 2161.75 27.9585C2156.98 27.9585 2153.24 30.3149 2150.55 35.0279C2147.86 39.7193 2146.52 46.3583 2146.52 54.9449C2146.52 60.6693 2147.12 65.5329 2148.32 69.5356C2149.53 73.5384 2151.26 76.5835 2153.52 78.671C2155.8 80.7584 2158.55 81.8022 2161.75 81.8022ZM2218.57 88.9039C2213.7 88.9039 2209.56 87.5804 2206.14 84.9334C2202.72 82.2649 2200.1 78.402 2198.29 73.3447C2196.49 68.2659 2195.58 62.1327 2195.58 54.9449C2195.58 47.8002 2196.49 41.6992 2198.29 36.6419C2200.12 31.5631 2202.75 27.6895 2206.17 25.021C2209.61 22.3309 2213.75 20.9859 2218.57 20.9859C2223.39 20.9859 2227.51 22.3309 2230.93 25.021C2234.37 27.6895 2237 31.5631 2238.81 36.6419C2240.64 41.6992 2241.55 47.8002 2241.55 54.9449C2241.55 62.1327 2240.65 68.2659 2238.84 73.3447C2237.03 78.402 2234.42 82.2649 2230.99 84.9334C2227.57 87.5804 2223.43 88.9039 2218.57 88.9039ZM2218.57 81.8022C2223.39 81.8022 2227.13 79.478 2229.8 74.8296C2232.47 70.1812 2233.8 63.553 2233.8 54.9449C2233.8 49.2205 2233.19 44.3462 2231.96 40.3219C2230.76 36.2976 2229.01 33.2309 2226.73 31.122C2224.47 29.013 2221.75 27.9585 2218.57 27.9585C2213.79 27.9585 2210.06 30.3149 2207.37 35.0279C2204.67 39.7193 2203.33 46.3583 2203.33 54.9449C2203.33 60.6693 2203.93 65.5329 2205.14 69.5356C2206.34 73.5384 2208.08 76.5835 2210.33 78.671C2212.62 80.7584 2215.36 81.8022 2218.57 81.8022ZM2277.06 21.8898V88H2269.05V30.2827H2268.67L2252.53 40.9998V32.8651L2269.05 21.8898H2277.06ZM2317.63 88.9039C2312.77 88.9039 2308.63 87.5804 2305.21 84.9334C2301.79 82.2649 2299.17 78.402 2297.36 73.3447C2295.56 68.2659 2294.65 62.1327 2294.65 54.9449C2294.65 47.8002 2295.56 41.6992 2297.36 36.6419C2299.19 31.5631 2301.82 27.6895 2305.24 25.021C2308.68 22.3309 2312.81 20.9859 2317.63 20.9859C2322.46 20.9859 2326.58 22.3309 2330 25.021C2333.44 27.6895 2336.07 31.5631 2337.87 36.6419C2339.7 41.6992 2340.62 47.8002 2340.62 54.9449C2340.62 62.1327 2339.71 68.2659 2337.91 73.3447C2336.1 78.402 2333.48 82.2649 2330.06 84.9334C2326.64 87.5804 2322.5 88.9039 2317.63 88.9039ZM2317.63 81.8022C2322.46 81.8022 2326.2 79.478 2328.87 74.8296C2331.54 70.1812 2332.87 63.553 2332.87 54.9449C2332.87 49.2205 2332.26 44.3462 2331.03 40.3219C2329.83 36.2976 2328.08 33.2309 2325.8 31.122C2323.54 29.013 2320.82 27.9585 2317.63 27.9585C2312.86 27.9585 2309.12 30.3149 2306.43 35.0279C2303.74 39.7193 2302.4 46.3583 2302.4 54.9449C2302.4 60.6693 2303 65.5329 2304.21 69.5356C2305.41 73.5384 2307.14 76.5835 2309.4 78.671C2311.68 80.7584 2314.43 81.8022 2317.63 81.8022ZM2376.13 21.8898V88H2368.12V30.2827H2367.73L2351.59 40.9998V32.8651L2368.12 21.8898H2376.13ZM2393.59 74.4422V67.857L2422.64 21.8898H2427.42V32.0904H2424.19L2402.24 66.8241V67.3406H2441.37V74.4422H2393.59ZM2424.71 88V72.4409V69.3742V21.8898H2432.33V88H2424.71Z" fill="#1E1E1E"/>
<rect x="2511" y="135" width="555" height="498" rx="30" transform="rotate(90 2511 135)" fill="#001014"/>
<rect x="1840" y="135" width="555" height="498" rx="30" transform="rotate(90 1840 135)" fill="#001F29"/>
<rect x="1169" y="135" width="555" height="498" rx="30" transform="rotate(90 1169 135)" fill="#003949"/>
<rect x="498" y="135" width="555" height="498" rx="30" transform="rotate(90 498 135)" fill="#8EA1AA"/>
</svg>
