<svg width="293" height="293" viewBox="0 0 293 293" fill="none" xmlns="http://www.w3.org/2000/svg">
<rect width="293" height="293" rx="146.5" fill="#2D2C2F"/>
<rect x="20.37" y="20.37" width="252.26" height="252.26" rx="126.13" stroke="#54B65B" stroke-width="14.74" stroke-linecap="round"/>
<path d="M143.6 77.2181C145.006 75.1916 148.011 75.2161 149.383 77.2653L170.974 109.497C172.753 112.153 170.334 115.607 167.231 114.844L147.23 109.926C146.768 109.812 146.285 109.81 145.821 109.92L124.896 114.888C121.772 115.63 119.382 112.125 121.212 109.488L143.6 77.2181Z" fill="#54B65B"/>
<path d="M146 166L146 107" stroke="#54B65B" stroke-width="20"/>
<path d="M132.025 222.248C131.005 222.248 130.104 222.08 129.32 221.742C128.537 221.404 127.922 220.936 127.476 220.337C127.03 219.738 126.807 219.05 126.807 218.273V218.254C126.807 217.674 126.935 217.143 127.189 216.658C127.451 216.174 127.811 215.767 128.269 215.435C128.728 215.098 129.26 214.865 129.865 214.738V214.69C129.094 214.467 128.473 214.085 128.002 213.543C127.537 213.002 127.304 212.365 127.304 211.632V211.613C127.304 210.912 127.505 210.288 127.906 209.74C128.314 209.186 128.874 208.753 129.588 208.441C130.301 208.122 131.114 207.963 132.025 207.963C132.948 207.963 133.764 208.122 134.471 208.441C135.184 208.753 135.742 209.186 136.143 209.74C136.544 210.288 136.745 210.912 136.745 211.613V211.632C136.745 212.365 136.513 213.002 136.048 213.543C135.589 214.085 134.971 214.467 134.194 214.69V214.738C134.799 214.865 135.331 215.098 135.79 215.435C136.248 215.767 136.605 216.174 136.86 216.658C137.121 217.143 137.252 217.674 137.252 218.254V218.273C137.252 219.05 137.029 219.738 136.583 220.337C136.143 220.936 135.528 221.404 134.738 221.742C133.955 222.08 133.05 222.248 132.025 222.248ZM132.025 220.538C132.617 220.538 133.136 220.436 133.582 220.232C134.035 220.022 134.388 219.735 134.643 219.372C134.904 219.009 135.035 218.595 135.035 218.13V218.111C135.035 217.639 134.907 217.222 134.652 216.859C134.398 216.496 134.044 216.212 133.592 216.009C133.139 215.798 132.617 215.693 132.025 215.693C131.439 215.693 130.919 215.798 130.467 216.009C130.015 216.212 129.658 216.496 129.397 216.859C129.142 217.222 129.015 217.639 129.015 218.111V218.13C129.015 218.595 129.145 219.009 129.406 219.372C129.668 219.735 130.024 220.022 130.477 220.232C130.929 220.436 131.445 220.538 132.025 220.538ZM132.025 213.964C132.541 213.964 132.993 213.875 133.382 213.696C133.77 213.511 134.073 213.26 134.289 212.941C134.512 212.616 134.624 212.244 134.624 211.823V211.804C134.624 211.384 134.512 211.014 134.289 210.696C134.073 210.371 133.77 210.119 133.382 209.941C132.993 209.756 132.541 209.664 132.025 209.664C131.515 209.664 131.066 209.756 130.677 209.941C130.289 210.119 129.983 210.371 129.76 210.696C129.543 211.014 129.435 211.384 129.435 211.804V211.823C129.435 212.244 129.543 212.616 129.76 212.941C129.983 213.26 130.289 213.511 130.677 213.696C131.066 213.875 131.515 213.964 132.025 213.964ZM140.92 222V207.667H142.994V222H140.92ZM147.418 222L143.72 217.165L145.22 215.846L149.931 222H147.418ZM142.764 218.493L142.698 216.037H143.137L147.227 211.68H149.664L144.972 216.458L144.255 217.002L142.764 218.493ZM150.496 222V211.68H152.579V213.266H152.713C152.942 212.706 153.299 212.269 153.783 211.957C154.274 211.638 154.86 211.479 155.542 211.479C156.007 211.479 156.427 211.556 156.803 211.709C157.179 211.861 157.5 212.078 157.768 212.358C158.042 212.639 158.252 212.97 158.399 213.352H158.542C158.714 212.976 158.956 212.648 159.268 212.368C159.58 212.088 159.943 211.871 160.358 211.718C160.772 211.559 161.218 211.479 161.695 211.479C162.39 211.479 162.982 211.616 163.473 211.89C163.97 212.158 164.349 212.546 164.61 213.056C164.877 213.566 165.011 214.177 165.011 214.891V222H162.938V215.387C162.938 214.916 162.864 214.524 162.718 214.212C162.571 213.894 162.352 213.655 162.058 213.495C161.765 213.336 161.396 213.257 160.95 213.257C160.517 213.257 160.138 213.355 159.813 213.553C159.488 213.75 159.233 214.018 159.048 214.355C158.87 214.687 158.781 215.063 158.781 215.483V222H156.717V215.187C156.717 214.792 156.637 214.451 156.478 214.164C156.319 213.871 156.089 213.648 155.79 213.495C155.497 213.336 155.147 213.257 154.739 213.257C154.325 213.257 153.955 213.365 153.63 213.581C153.305 213.792 153.047 214.078 152.856 214.441C152.672 214.805 152.579 215.209 152.579 215.655V222H150.496Z" fill="#AAABA9"/>
</svg>
