<svg width="293" height="293" viewBox="0 0 293 293" fill="none" xmlns="http://www.w3.org/2000/svg">
<rect width="293" height="293" rx="146.5" fill="#2D2C2F"/>
<rect x="20.37" y="20.37" width="252.26" height="252.26" rx="126.13" stroke="#54B65B" stroke-width="14.74" stroke-linecap="round"/>
<path d="M132.026 223.793C131.006 223.793 130.105 223.625 129.321 223.287C128.538 222.949 127.923 222.481 127.477 221.882C127.031 221.283 126.808 220.595 126.808 219.818V219.799C126.808 219.219 126.936 218.687 127.19 218.203C127.452 217.719 127.812 217.311 128.27 216.98C128.729 216.643 129.261 216.41 129.866 216.283V216.235C129.095 216.012 128.474 215.63 128.003 215.088C127.538 214.547 127.305 213.91 127.305 213.177V213.158C127.305 212.457 127.506 211.833 127.907 211.285C128.315 210.731 128.875 210.298 129.589 209.985C130.302 209.667 131.115 209.508 132.026 209.508C132.949 209.508 133.765 209.667 134.472 209.985C135.185 210.298 135.743 210.731 136.144 211.285C136.545 211.833 136.746 212.457 136.746 213.158V213.177C136.746 213.91 136.514 214.547 136.049 215.088C135.59 215.63 134.972 216.012 134.195 216.235V216.283C134.8 216.41 135.332 216.643 135.791 216.98C136.249 217.311 136.606 217.719 136.861 218.203C137.122 218.687 137.253 219.219 137.253 219.799V219.818C137.253 220.595 137.03 221.283 136.584 221.882C136.144 222.481 135.529 222.949 134.739 223.287C133.956 223.625 133.051 223.793 132.026 223.793ZM132.026 222.083C132.618 222.083 133.137 221.981 133.583 221.777C134.036 221.567 134.389 221.28 134.644 220.917C134.905 220.554 135.036 220.14 135.036 219.675V219.656C135.036 219.184 134.908 218.767 134.653 218.404C134.399 218.041 134.045 217.757 133.593 217.554C133.14 217.343 132.618 217.238 132.026 217.238C131.44 217.238 130.92 217.343 130.468 217.554C130.016 217.757 129.659 218.041 129.398 218.404C129.143 218.767 129.016 219.184 129.016 219.656V219.675C129.016 220.14 129.146 220.554 129.407 220.917C129.669 221.28 130.025 221.567 130.478 221.777C130.93 221.981 131.446 222.083 132.026 222.083ZM132.026 215.509C132.542 215.509 132.994 215.419 133.383 215.241C133.771 215.056 134.074 214.805 134.29 214.486C134.513 214.161 134.625 213.789 134.625 213.368V213.349C134.625 212.929 134.513 212.559 134.29 212.241C134.074 211.916 133.771 211.664 133.383 211.486C132.994 211.301 132.542 211.209 132.026 211.209C131.516 211.209 131.067 211.301 130.678 211.486C130.29 211.664 129.984 211.916 129.761 212.241C129.544 212.559 129.436 212.929 129.436 213.349V213.368C129.436 213.789 129.544 214.161 129.761 214.486C129.984 214.805 130.29 215.056 130.678 215.241C131.067 215.419 131.516 215.509 132.026 215.509ZM140.921 223.545V209.211H142.995V223.545H140.921ZM147.419 223.545L143.721 218.71L145.221 217.391L149.932 223.545H147.419ZM142.765 220.038L142.699 217.582H143.138L147.228 213.225H149.665L144.973 218.003L144.256 218.547L142.765 220.038ZM150.497 223.545V213.225H152.58V214.811H152.714C152.943 214.25 153.3 213.814 153.784 213.502C154.275 213.183 154.861 213.024 155.542 213.024C156.008 213.024 156.428 213.101 156.804 213.253C157.18 213.406 157.501 213.623 157.769 213.903C158.043 214.184 158.253 214.515 158.4 214.897H158.543C158.715 214.521 158.957 214.193 159.269 213.913C159.581 213.633 159.944 213.416 160.359 213.263C160.773 213.104 161.219 213.024 161.696 213.024C162.391 213.024 162.983 213.161 163.474 213.435C163.971 213.703 164.35 214.091 164.611 214.601C164.878 215.11 165.012 215.722 165.012 216.436V223.545H162.939V216.932C162.939 216.461 162.865 216.069 162.719 215.757C162.572 215.439 162.353 215.2 162.059 215.04C161.766 214.881 161.397 214.801 160.951 214.801C160.518 214.801 160.139 214.9 159.814 215.098C159.489 215.295 159.234 215.563 159.049 215.9C158.871 216.232 158.782 216.608 158.782 217.028V223.545H156.718V216.732C156.718 216.337 156.638 215.996 156.479 215.709C156.32 215.416 156.09 215.193 155.791 215.04C155.498 214.881 155.148 214.801 154.74 214.801C154.326 214.801 153.956 214.91 153.631 215.126C153.306 215.337 153.048 215.623 152.857 215.986C152.673 216.35 152.58 216.754 152.58 217.2V223.545H150.497Z" fill="white"/>
<path d="M147.029 258.316C145.99 258.316 145.082 258.153 144.305 257.828C143.534 257.504 142.926 257.048 142.48 256.462C142.034 255.876 141.779 255.194 141.716 254.417L141.706 254.293H143.818L143.828 254.398C143.872 254.812 144.038 255.175 144.324 255.487C144.611 255.793 144.993 256.032 145.471 256.204C145.949 256.37 146.497 256.452 147.115 256.452C147.701 256.452 148.22 256.363 148.672 256.185C149.125 256 149.478 255.745 149.733 255.42C149.988 255.096 150.115 254.723 150.115 254.302V254.293C150.115 253.758 149.914 253.318 149.513 252.974C149.112 252.63 148.456 252.359 147.545 252.162L146.044 251.837C144.649 251.538 143.63 251.066 142.987 250.423C142.35 249.773 142.031 248.939 142.031 247.919V247.91C142.037 247.113 142.254 246.416 142.681 245.817C143.108 245.212 143.697 244.74 144.449 244.403C145.2 244.065 146.06 243.896 147.029 243.896C148.003 243.896 148.854 244.062 149.58 244.393C150.313 244.724 150.889 245.18 151.31 245.76C151.736 246.333 151.975 246.983 152.026 247.709L152.036 247.843H149.953L149.934 247.719C149.87 247.33 149.711 246.989 149.456 246.696C149.207 246.403 148.873 246.174 148.452 246.008C148.038 245.836 147.554 245.753 147 245.76C146.459 245.76 145.978 245.842 145.557 246.008C145.137 246.174 144.805 246.409 144.563 246.715C144.321 247.015 144.2 247.378 144.2 247.805V247.814C144.2 248.324 144.398 248.751 144.793 249.095C145.188 249.432 145.828 249.697 146.713 249.888L148.214 250.213C149.176 250.416 149.956 250.687 150.555 251.025C151.154 251.362 151.59 251.78 151.864 252.277C152.144 252.774 152.284 253.366 152.284 254.054V254.064C152.284 254.936 152.071 255.691 151.644 256.328C151.217 256.959 150.609 257.449 149.819 257.8C149.029 258.144 148.099 258.316 147.029 258.316Z" fill="#AAABA9"/>
<path d="M144.6 91.9915C146.006 89.965 149.011 89.9895 150.383 92.0388L171.974 124.271C173.753 126.926 171.334 130.38 168.231 129.617L148.23 124.699C147.768 124.586 147.285 124.584 146.821 124.694L125.896 129.661C122.772 130.403 120.382 126.899 122.212 124.261L144.6 91.9915Z" fill="#54B65B"/>
<path d="M147.001 180.773L147.001 121.773" stroke="#54B65B" stroke-width="20"/>
<path d="M141.362 45.9995V32.2107H143.312L151.071 43.2284L149.465 42.2537H150.526V32.2107H152.619V45.9995H150.679L142.91 34.9914L144.516 35.9565H143.464V45.9995H141.362Z" fill="white"/>
<path d="M33.9441 153L30.2269 139.212H32.4629L34.9952 149.943H35.1099L37.9957 139.212H39.9928L42.8882 149.943H43.0028L45.5351 139.212H47.7616L44.0444 153H42.0186L39.0564 142.69H38.9417L35.9794 153H33.9441Z" fill="#AAABA9"/>
<path d="M249.796 153V139.212H258.558V141.065H251.946V145.088H258.204V146.866H251.946V151.147H258.558V153H249.796Z" fill="#AAABA9"/>
</svg>
