<svg width="5363" height="2055" viewBox="0 0 5363 2055" fill="none" xmlns="http://www.w3.org/2000/svg">
<rect x="2648.45" y="1411" width="652" height="621" rx="50" fill="#003949"/>
<path d="M2857.31 1501C2819.29 1501 2766.76 1501 2737.14 1501C2724.59 1501 2714.45 1511.17 2714.45 1523.71V1921.18C2714.45 1933.72 2724.62 1943.89 2737.16 1943.89H2890.24C2902.79 1943.89 2912.95 1933.72 2912.95 1921.18V1751C2912.95 1743.76 2916.41 1736.95 2922.25 1732.67L2963.61 1702.4C2976.18 1693.19 2975.96 1674.34 2963.17 1665.43L2922.69 1637.24C2916.59 1632.99 2912.95 1626.03 2912.95 1618.6V1523.71C2912.95 1511.17 2923.12 1501 2935.67 1501H3000.4C3012.94 1501 3023.11 1511.17 3023.11 1523.71V1618.52C3023.11 1626 3026.79 1632.99 3032.95 1637.23L3074.79 1666.03C3087.44 1674.73 3087.98 1693.22 3075.86 1702.66L3037.32 1732.66C3031.79 1736.96 3028.56 1743.58 3028.56 1750.58V1921.18C3028.56 1933.72 3038.73 1943.89 3051.27 1943.89H3214.35C3225.26 1943.89 3234.11 1935.04 3234.11 1924.13V1523.71C3234.11 1511.17 3223.94 1501 3211.4 1501H3078.75" stroke="white" stroke-width="22.7124" stroke-linecap="round"/>
<rect x="4710.45" y="1411" width="652" height="621" rx="50" fill="#001F29"/>
<path d="M4919.31 1501C4881.29 1501 4828.76 1501 4799.14 1501C4786.59 1501 4776.45 1511.17 4776.45 1523.71V1921.18C4776.45 1933.72 4786.62 1943.89 4799.16 1943.89H4952.24C4964.79 1943.89 4974.95 1933.72 4974.95 1921.18V1751C4974.95 1743.76 4978.41 1736.95 4984.25 1732.67L5025.61 1702.4C5038.18 1693.19 5037.96 1674.34 5025.17 1665.43L4984.69 1637.24C4978.59 1632.99 4974.95 1626.03 4974.95 1618.6V1523.71C4974.95 1511.17 4985.12 1501 4997.67 1501H5062.4C5074.94 1501 5085.11 1511.17 5085.11 1523.71V1618.52C5085.11 1626 5088.79 1632.99 5094.95 1637.23L5136.79 1666.03C5149.44 1674.73 5149.98 1693.22 5137.86 1702.66L5099.32 1732.66C5093.79 1736.96 5090.56 1743.58 5090.56 1750.58V1921.18C5090.56 1933.72 5100.73 1943.89 5113.27 1943.89H5276.35C5287.26 1943.89 5296.11 1935.04 5296.11 1924.13V1523.71C5296.11 1511.17 5285.94 1501 5273.4 1501H5140.75" stroke="white" stroke-width="22.7124" stroke-linecap="round"/>
<rect x="3679.45" y="1411" width="652" height="621" rx="50" fill="#8EA1AA"/>
<path d="M3888.31 1500C3850.29 1500 3797.76 1500 3768.14 1500C3755.59 1500 3745.45 1510.17 3745.45 1522.71V1920.18C3745.45 1932.72 3755.62 1942.89 3768.16 1942.89H3921.24C3933.79 1942.89 3943.95 1932.72 3943.95 1920.18V1750C3943.95 1742.76 3947.41 1735.95 3953.25 1731.67L3994.61 1701.4C4007.18 1692.19 4006.96 1673.34 3994.17 1664.43L3953.69 1636.24C3947.59 1631.99 3943.95 1625.03 3943.95 1617.6V1522.71C3943.95 1510.17 3954.12 1500 3966.67 1500H4031.4C4043.94 1500 4054.11 1510.17 4054.11 1522.71V1617.52C4054.11 1625 4057.79 1631.99 4063.95 1636.23L4105.79 1665.03C4118.44 1673.73 4118.98 1692.22 4106.86 1701.66L4068.32 1731.66C4062.79 1735.96 4059.56 1742.58 4059.56 1749.58V1920.18C4059.56 1932.72 4069.73 1942.89 4082.27 1942.89H4245.35C4256.26 1942.89 4265.11 1934.04 4265.11 1923.13V1522.71C4265.11 1510.17 4254.94 1500 4242.4 1500H4109.75" stroke="#001F29" stroke-width="22.7124" stroke-linecap="round"/>
<path d="M2791.48 83C2753.46 83 2700.92 83 2671.3 83C2658.76 83 2648.61 93.1687 2648.61 105.712V503.179C2648.61 515.723 2658.78 525.891 2671.33 525.891H2824.41C2836.95 525.891 2847.12 515.723 2847.12 503.179V333C2847.12 325.759 2850.57 318.952 2856.42 314.675L2897.77 284.395C2910.35 275.188 2910.13 256.339 2897.34 247.432L2856.85 219.239C2850.76 214.992 2847.12 208.031 2847.12 200.601V105.712C2847.12 93.1687 2857.29 83 2869.83 83H2934.56C2947.11 83 2957.28 93.1687 2957.28 105.712V200.52C2957.28 207.996 2960.95 214.992 2967.11 219.23L3008.95 248.026C3021.6 256.733 3022.15 275.224 3010.03 284.657L2971.49 314.66C2965.96 318.963 2962.73 325.577 2962.73 332.582V503.179C2962.73 515.723 2972.9 525.891 2985.44 525.891H3148.51C3159.43 525.891 3168.27 517.045 3168.27 506.132V105.712C3168.27 93.1687 3158.1 83 3145.56 83H3012.92" stroke="#003949" stroke-width="22.7124" stroke-linecap="round"/>
<path d="M3325.82 219.292V456H3268.61V219.292H3325.82ZM3333.67 150.31C3333.67 155.232 3332.67 159.846 3330.67 164.153C3328.67 168.459 3325.98 172.228 3322.59 175.458C3319.36 178.688 3315.52 181.302 3311.06 183.302C3306.6 185.147 3301.83 186.07 3296.75 186.07C3291.83 186.07 3287.14 185.147 3282.68 183.302C3278.37 181.302 3274.6 178.688 3271.37 175.458C3268.15 172.228 3265.53 168.459 3263.53 164.153C3261.69 159.846 3260.76 155.232 3260.76 150.31C3260.76 145.235 3261.69 140.467 3263.53 136.006C3265.53 131.546 3268.15 127.701 3271.37 124.471C3274.6 121.241 3278.37 118.703 3282.68 116.858C3287.14 114.858 3291.83 113.858 3296.75 113.858C3301.83 113.858 3306.6 114.858 3311.06 116.858C3315.52 118.703 3319.36 121.241 3322.59 124.471C3325.98 127.701 3328.67 131.546 3330.67 136.006C3332.67 140.467 3333.67 145.235 3333.67 150.31ZM3437.21 248.362C3441.98 243.594 3446.98 239.21 3452.21 235.211C3457.59 231.059 3463.2 227.598 3469.05 224.829C3475.05 221.907 3481.43 219.677 3488.2 218.139C3494.97 216.447 3502.35 215.601 3510.35 215.601C3523.27 215.601 3534.72 217.831 3544.72 222.292C3554.72 226.598 3563.02 232.75 3569.64 240.748C3576.41 248.592 3581.48 258.052 3584.87 269.126C3588.4 280.046 3590.17 292.12 3590.17 305.347V456H3533.19V305.347C3533.19 290.889 3529.88 279.738 3523.27 271.894C3516.65 263.896 3506.58 259.897 3493.04 259.897C3483.2 259.897 3473.97 262.127 3465.36 266.588C3456.74 271.048 3448.59 277.123 3440.9 284.814V456H3383.92V219.292H3418.75C3426.14 219.292 3430.98 222.753 3433.29 229.674L3437.21 248.362ZM3656.92 456V262.204L3636.39 258.974C3631.93 258.052 3628.31 256.513 3625.55 254.36C3622.93 252.053 3621.62 248.823 3621.62 244.67V221.369H3656.92V203.835C3656.92 190.3 3658.92 178.149 3662.92 167.383C3667.07 156.616 3672.92 147.465 3680.45 139.928C3688.15 132.392 3697.45 126.624 3708.37 122.625C3719.29 118.626 3731.6 116.627 3745.28 116.627C3756.2 116.627 3766.36 118.088 3775.74 121.01L3774.58 149.618C3774.43 151.772 3773.82 153.54 3772.74 154.925C3771.66 156.155 3770.2 157.155 3768.35 157.924C3766.66 158.539 3764.66 159 3762.36 159.308C3760.05 159.462 3757.59 159.539 3754.97 159.539C3748.21 159.539 3742.13 160.308 3736.75 161.846C3731.52 163.23 3727.06 165.768 3723.37 169.459C3719.68 172.997 3716.83 177.765 3714.83 183.763C3712.98 189.608 3712.06 196.914 3712.06 205.681V221.369H3773.66V261.974H3713.91V456H3656.92ZM3859.44 260.359C3866.82 246.208 3875.59 235.134 3885.74 227.137C3895.89 218.985 3907.89 214.909 3921.73 214.909C3932.65 214.909 3941.42 217.293 3948.03 222.061L3944.34 264.742C3943.57 267.511 3942.42 269.51 3940.88 270.741C3939.49 271.817 3937.57 272.356 3935.11 272.356C3932.8 272.356 3929.34 271.971 3924.73 271.202C3920.27 270.433 3915.88 270.048 3911.58 270.048C3905.27 270.048 3899.66 270.971 3894.74 272.817C3889.81 274.663 3885.35 277.354 3881.36 280.892C3877.51 284.275 3874.05 288.428 3870.97 293.35C3868.05 298.272 3865.28 303.886 3862.67 310.192V456H3805.68V219.292H3839.14C3844.98 219.292 3849.06 220.369 3851.36 222.522C3853.67 224.522 3855.21 228.213 3855.98 233.596L3859.44 260.359ZM4099.7 354.949C4083.25 355.718 4069.4 357.18 4058.18 359.333C4046.95 361.332 4037.95 363.947 4031.18 367.177C4024.42 370.407 4019.57 374.175 4016.65 378.482C4013.73 382.788 4012.26 387.479 4012.26 392.555C4012.26 402.552 4015.19 409.704 4021.03 414.011C4027.03 418.318 4034.8 420.471 4044.33 420.471C4056.02 420.471 4066.1 418.394 4074.56 414.242C4083.17 409.935 4091.55 403.475 4099.7 394.862V354.949ZM3969.12 252.284C3996.35 227.367 4029.11 214.909 4067.4 214.909C4081.25 214.909 4093.63 217.216 4104.55 221.83C4115.47 226.291 4124.7 232.597 4132.23 240.748C4139.77 248.746 4145.46 258.359 4149.31 269.587C4153.31 280.815 4155.3 293.119 4155.3 306.5V456H4129.47C4124.08 456 4119.93 455.231 4117.01 453.693C4114.08 452.001 4111.78 448.694 4110.09 443.772L4105.01 426.7C4099.01 432.083 4093.17 436.851 4087.48 441.004C4081.79 445.003 4075.86 448.387 4069.71 451.155C4063.56 453.924 4056.95 456 4049.87 457.384C4042.95 458.922 4035.26 459.691 4026.8 459.691C4016.8 459.691 4007.57 458.384 3999.11 455.769C3990.66 453.001 3983.35 448.925 3977.2 443.542C3971.04 438.158 3966.28 431.468 3962.89 423.47C3959.51 415.472 3957.82 406.167 3957.82 395.554C3957.82 389.556 3958.82 383.634 3960.82 377.79C3962.82 371.791 3966.05 366.1 3970.51 360.717C3975.12 355.334 3981.04 350.258 3988.27 345.49C3995.5 340.722 4004.34 336.57 4014.8 333.032C4025.42 329.494 4037.72 326.649 4051.72 324.496C4065.71 322.189 4081.71 320.804 4099.7 320.343V306.5C4099.7 290.658 4096.32 278.969 4089.55 271.433C4082.79 263.742 4073.02 259.897 4060.25 259.897C4051.02 259.897 4043.33 260.974 4037.18 263.127C4031.18 265.28 4025.88 267.741 4021.26 270.51C4016.65 273.125 4012.42 275.509 4008.57 277.662C4004.88 279.815 4000.73 280.892 3996.12 280.892C3992.12 280.892 3988.73 279.892 3985.96 277.893C3983.2 275.739 3980.97 273.278 3979.27 270.51L3969.12 252.284ZM4349.48 260.82C4347.63 264.204 4344.78 265.896 4340.94 265.896C4338.63 265.896 4336.02 265.05 4333.09 263.358C4330.17 261.666 4326.56 259.82 4322.25 257.821C4318.1 255.668 4313.1 253.745 4307.26 252.053C4301.41 250.207 4294.49 249.285 4286.49 249.285C4279.57 249.285 4273.34 250.207 4267.8 252.053C4262.27 253.745 4257.5 256.129 4253.5 259.205C4249.66 262.281 4246.66 265.896 4244.5 270.048C4242.5 274.047 4241.5 278.431 4241.5 283.199C4241.5 289.197 4243.2 294.196 4246.58 298.195C4250.12 302.194 4254.73 305.655 4260.42 308.577C4266.11 311.499 4272.57 314.114 4279.8 316.421C4287.03 318.574 4294.41 320.958 4301.95 323.573C4309.64 326.034 4317.1 328.802 4324.33 331.878C4331.56 334.955 4338.02 338.8 4343.71 343.414C4349.4 348.028 4353.94 353.719 4357.32 360.486C4360.86 367.1 4362.63 375.098 4362.63 384.48C4362.63 395.247 4360.7 405.244 4356.86 414.472C4353.01 423.547 4347.32 431.468 4339.79 438.235C4332.25 444.849 4323.02 450.078 4312.1 453.924C4301.18 457.769 4288.57 459.691 4274.26 459.691C4257.96 459.691 4243.2 457.077 4229.97 451.847C4216.74 446.464 4205.51 439.62 4196.28 431.314L4205.97 415.626C4207.2 413.626 4208.67 412.088 4210.36 411.012C4212.05 409.935 4214.2 409.397 4216.82 409.397C4219.59 409.397 4222.51 410.473 4225.58 412.627C4228.66 414.78 4232.35 417.164 4236.66 419.779C4241.12 422.393 4246.5 424.777 4252.81 426.931C4259.11 429.084 4266.96 430.161 4276.34 430.161C4284.34 430.161 4291.34 429.161 4297.33 427.161C4303.33 425.008 4308.33 422.163 4312.33 418.625C4316.33 415.088 4319.25 411.012 4321.1 406.398C4323.1 401.783 4324.1 396.862 4324.1 391.632C4324.1 385.172 4322.33 379.866 4318.79 375.713C4315.41 371.407 4310.87 367.792 4305.18 364.87C4299.49 361.794 4292.95 359.179 4285.57 357.026C4278.34 354.719 4270.88 352.335 4263.19 349.874C4255.65 347.413 4248.19 344.644 4240.81 341.568C4233.58 338.338 4227.12 334.339 4221.43 329.571C4215.74 324.803 4211.13 318.959 4207.59 312.037C4204.21 304.962 4202.51 296.426 4202.51 286.429C4202.51 277.508 4204.36 268.972 4208.05 260.82C4211.74 252.515 4217.13 245.286 4224.2 239.133C4231.28 232.827 4239.97 227.829 4250.27 224.137C4260.58 220.446 4272.34 218.6 4285.57 218.6C4300.95 218.6 4314.71 221.061 4326.87 225.983C4339.17 230.751 4349.78 237.365 4358.7 245.824L4349.48 260.82ZM4454.27 399.707C4461.81 409.858 4470.04 417.01 4478.96 421.163C4487.88 425.316 4497.88 427.392 4508.95 427.392C4530.79 427.392 4547.55 419.625 4559.24 404.09C4570.93 388.556 4576.78 366.408 4576.78 337.646C4576.78 322.419 4575.39 309.346 4572.63 298.426C4570.01 287.505 4566.17 278.585 4561.09 271.663C4556.01 264.588 4549.78 259.436 4542.4 256.206C4535.02 252.976 4526.64 251.361 4517.25 251.361C4503.87 251.361 4492.11 254.437 4481.96 260.589C4471.96 266.742 4462.73 275.432 4454.27 286.659V399.707ZM4452.19 258.513C4462.04 246.362 4473.42 236.596 4486.34 229.213C4499.26 221.83 4514.02 218.139 4530.64 218.139C4544.17 218.139 4556.4 220.754 4567.32 225.983C4578.24 231.059 4587.54 238.672 4595.23 248.823C4602.92 258.821 4608.85 271.279 4613 286.198C4617.15 301.117 4619.23 318.267 4619.23 337.646C4619.23 354.872 4616.92 370.945 4612.31 385.864C4607.69 400.63 4601 413.473 4592.24 424.393C4583.62 435.159 4573.01 443.696 4560.4 450.002C4547.94 456.154 4533.87 459.23 4518.18 459.23C4503.87 459.23 4491.57 456.846 4481.26 452.078C4471.11 447.156 4462.12 440.389 4454.27 431.776V535.133H4412.97V222.292H4437.66C4443.5 222.292 4447.12 225.137 4448.5 230.828L4452.19 258.513ZM4798.28 350.797C4779.36 351.412 4763.21 352.95 4749.83 355.411C4736.6 357.718 4725.76 360.794 4717.3 364.639C4709 368.484 4702.92 373.022 4699.08 378.251C4695.38 383.48 4693.54 389.325 4693.54 395.785C4693.54 401.937 4694.54 407.243 4696.54 411.704C4698.54 416.164 4701.23 419.856 4704.61 422.778C4708.15 425.546 4712.23 427.623 4716.84 429.007C4721.61 430.237 4726.68 430.853 4732.07 430.853C4739.3 430.853 4745.91 430.161 4751.91 428.776C4757.91 427.238 4763.52 425.085 4768.75 422.316C4774.13 419.548 4779.21 416.241 4783.98 412.396C4788.9 408.551 4793.67 404.167 4798.28 399.246V350.797ZM4665.62 255.283C4678.54 242.825 4692.46 233.519 4707.38 227.367C4722.3 221.215 4738.83 218.139 4756.98 218.139C4770.06 218.139 4781.67 220.292 4791.82 224.599C4801.97 228.905 4810.51 234.904 4817.43 242.594C4824.35 250.284 4829.58 259.59 4833.12 270.51C4836.65 281.43 4838.42 293.427 4838.42 306.5V456H4820.2C4816.2 456 4813.12 455.385 4810.97 454.154C4808.82 452.77 4807.12 450.155 4805.89 446.31L4801.28 424.162C4795.13 429.853 4789.13 434.929 4783.28 439.389C4777.44 443.696 4771.29 447.387 4764.83 450.463C4758.37 453.385 4751.45 455.615 4744.06 457.154C4736.83 458.845 4728.76 459.691 4719.84 459.691C4710.76 459.691 4702.23 458.461 4694.23 456C4686.23 453.385 4679.23 449.54 4673.24 444.465C4667.39 439.389 4662.7 433.006 4659.16 425.316C4655.78 417.472 4654.09 408.243 4654.09 397.631C4654.09 388.402 4656.62 379.558 4661.7 371.099C4666.78 362.486 4675 354.872 4686.39 348.259C4697.77 341.645 4712.61 336.262 4730.91 332.109C4749.22 327.803 4771.67 325.342 4798.28 324.726V306.5C4798.28 288.351 4794.36 274.663 4786.51 265.434C4778.67 256.052 4767.21 251.361 4752.14 251.361C4741.99 251.361 4733.45 252.668 4726.53 255.283C4719.76 257.744 4713.84 260.589 4708.76 263.819C4703.84 266.895 4699.54 269.741 4695.85 272.356C4692.31 274.816 4688.77 276.047 4685.23 276.047C4682.46 276.047 4680.08 275.355 4678.08 273.97C4676.08 272.432 4674.39 270.587 4673.01 268.433L4665.62 255.283ZM5063.63 263.819C5062.4 265.511 5061.17 266.818 5059.94 267.741C5058.71 268.664 5057.01 269.126 5054.86 269.126C5052.55 269.126 5050.02 268.203 5047.25 266.357C5044.48 264.358 5041.02 262.204 5036.87 259.897C5032.87 257.59 5027.87 255.514 5021.87 253.668C5016.03 251.669 5008.8 250.669 5000.18 250.669C4988.65 250.669 4978.5 252.745 4969.73 256.898C4960.96 260.897 4953.58 266.742 4947.58 274.432C4941.74 282.122 4937.28 291.427 4934.2 302.348C4931.28 313.268 4929.82 325.496 4929.82 339.03C4929.82 353.181 4931.43 365.793 4934.66 376.867C4937.89 387.787 4942.43 397.015 4948.27 404.552C4954.27 411.935 4961.42 417.625 4969.73 421.624C4978.19 425.469 4987.65 427.392 4998.11 427.392C5008.1 427.392 5016.33 426.239 5022.79 423.931C5029.25 421.471 5034.56 418.779 5038.71 415.857C5043.02 412.934 5046.56 410.32 5049.32 408.012C5052.25 405.552 5055.09 404.321 5057.86 404.321C5061.24 404.321 5063.86 405.628 5065.7 408.243L5077.24 423.239C5072.16 429.545 5066.4 434.929 5059.94 439.389C5053.48 443.849 5046.48 447.618 5038.94 450.694C5031.56 453.616 5023.79 455.769 5015.64 457.154C5007.49 458.538 4999.18 459.23 4990.72 459.23C4976.11 459.23 4962.5 456.538 4949.89 451.155C4937.43 445.772 4926.59 438.005 4917.36 427.853C4908.13 417.548 4900.9 404.936 4895.67 390.017C4890.44 375.098 4887.83 358.102 4887.83 339.03C4887.83 321.65 4890.21 305.578 4894.98 290.812C4899.9 276.047 4906.98 263.358 4916.21 252.745C4925.59 241.979 4937.05 233.596 4950.58 227.598C4964.27 221.599 4979.96 218.6 4997.65 218.6C5014.1 218.6 5028.56 221.292 5041.02 226.675C5053.63 231.905 5064.78 239.364 5074.47 249.054L5063.63 263.819ZM5273.69 313.652C5273.69 304.116 5272.3 295.426 5269.54 287.582C5266.92 279.584 5263 272.74 5257.77 267.049C5252.69 261.205 5246.47 256.744 5239.08 253.668C5231.7 250.438 5223.32 248.823 5213.94 248.823C5194.25 248.823 5178.64 254.591 5167.1 266.126C5155.72 277.508 5148.64 293.35 5145.88 313.652H5273.69ZM5306.91 423.239C5301.84 429.392 5295.76 434.775 5288.68 439.389C5281.61 443.849 5274 447.541 5265.84 450.463C5257.85 453.385 5249.54 455.539 5240.93 456.923C5232.32 458.461 5223.78 459.23 5215.32 459.23C5199.17 459.23 5184.25 456.538 5170.56 451.155C5157.03 445.618 5145.26 437.62 5135.26 427.161C5125.42 416.549 5117.73 403.475 5112.19 387.941C5106.66 372.406 5103.89 354.565 5103.89 334.416C5103.89 318.113 5106.35 302.886 5111.27 288.736C5116.35 274.586 5123.57 262.358 5132.96 252.053C5142.34 241.594 5153.8 233.443 5167.33 227.598C5180.87 221.599 5196.09 218.6 5213.01 218.6C5227.01 218.6 5239.93 220.984 5251.77 225.752C5263.77 230.366 5274.07 237.134 5282.69 246.055C5291.45 254.822 5298.3 265.742 5303.22 278.815C5308.14 291.735 5310.6 306.5 5310.6 323.112C5310.6 329.571 5309.91 333.878 5308.53 336.031C5307.14 338.185 5304.53 339.261 5300.68 339.261H5144.49C5144.95 354.027 5146.95 366.869 5150.49 377.79C5154.18 388.71 5159.26 397.861 5165.72 405.244C5172.18 412.473 5179.87 417.933 5188.79 421.624C5197.71 425.162 5207.71 426.931 5218.78 426.931C5229.09 426.931 5237.93 425.777 5245.31 423.47C5252.85 421.009 5259.31 418.394 5264.69 415.626C5270.07 412.857 5274.53 410.32 5278.07 408.012C5281.76 405.552 5284.92 404.321 5287.53 404.321C5290.92 404.321 5293.53 405.628 5295.38 408.243L5306.91 423.239Z" fill="#003949"/>
<path d="M3325.66 822.292V1059H3268.44V822.292H3325.66ZM3333.5 753.31C3333.5 758.232 3332.5 762.846 3330.5 767.153C3328.5 771.459 3325.81 775.228 3322.43 778.458C3319.2 781.688 3315.35 784.302 3310.89 786.302C3306.43 788.147 3301.66 789.07 3296.59 789.07C3291.67 789.07 3286.97 788.147 3282.51 786.302C3278.21 784.302 3274.44 781.688 3271.21 778.458C3267.98 775.228 3265.36 771.459 3263.36 767.153C3261.52 762.846 3260.6 758.232 3260.6 753.31C3260.6 748.235 3261.52 743.467 3263.36 739.006C3265.36 734.546 3267.98 730.701 3271.21 727.471C3274.44 724.241 3278.21 721.703 3282.51 719.858C3286.97 717.858 3291.67 716.858 3296.59 716.858C3301.66 716.858 3306.43 717.858 3310.89 719.858C3315.35 721.703 3319.2 724.241 3322.43 727.471C3325.81 730.701 3328.5 734.546 3330.5 739.006C3332.5 743.467 3333.5 748.235 3333.5 753.31ZM3437.05 851.362C3441.81 846.594 3446.81 842.21 3452.04 838.211C3457.42 834.059 3463.04 830.598 3468.88 827.829C3474.88 824.907 3481.26 822.677 3488.03 821.139C3494.8 819.447 3502.18 818.601 3510.18 818.601C3523.1 818.601 3534.56 820.831 3544.56 825.292C3554.55 829.598 3562.86 835.75 3569.47 843.748C3576.24 851.592 3581.32 861.052 3584.7 872.126C3588.24 883.046 3590.01 895.12 3590.01 908.347V1059H3533.02V908.347C3533.02 893.889 3529.71 882.738 3523.1 874.894C3516.49 866.896 3506.41 862.897 3492.88 862.897C3483.03 862.897 3473.81 865.127 3465.19 869.588C3456.58 874.048 3448.43 880.123 3440.74 887.814V1059H3383.75V822.292H3418.59C3425.97 822.292 3430.82 825.753 3433.12 832.674L3437.05 851.362ZM3656.76 1059V865.204L3636.22 861.974C3631.76 861.052 3628.15 859.513 3625.38 857.36C3622.77 855.053 3621.46 851.823 3621.46 847.67V824.369H3656.76V806.835C3656.76 793.3 3658.76 781.149 3662.75 770.383C3666.91 759.616 3672.75 750.465 3680.29 742.928C3687.98 735.392 3697.28 729.624 3708.2 725.625C3719.12 721.626 3731.43 719.627 3745.12 719.627C3756.04 719.627 3766.19 721.088 3775.57 724.01L3774.42 752.618C3774.26 754.772 3773.65 756.54 3772.57 757.925C3771.5 759.155 3770.03 760.155 3768.19 760.924C3766.5 761.539 3764.5 762 3762.19 762.308C3759.88 762.462 3757.42 762.539 3754.81 762.539C3748.04 762.539 3741.96 763.308 3736.58 764.846C3731.35 766.23 3726.89 768.768 3723.2 772.459C3719.51 775.997 3716.66 780.765 3714.66 786.763C3712.82 792.608 3711.9 799.914 3711.9 808.681V824.369H3773.5V864.974H3713.74V1059H3656.76ZM3859.27 863.359C3866.65 849.208 3875.42 838.134 3885.57 830.137C3895.72 821.985 3907.72 817.909 3921.56 817.909C3932.48 817.909 3941.25 820.293 3947.86 825.061L3944.17 867.742C3943.4 870.511 3942.25 872.51 3940.71 873.741C3939.33 874.817 3937.41 875.356 3934.94 875.356C3932.64 875.356 3929.18 874.971 3924.56 874.202C3920.1 873.433 3915.72 873.048 3911.41 873.048C3905.11 873.048 3899.49 873.971 3894.57 875.817C3889.65 877.663 3885.19 880.354 3881.19 883.892C3877.34 887.275 3873.88 891.428 3870.81 896.35C3867.89 901.272 3865.12 906.886 3862.5 913.192V1059H3805.52V822.292H3838.97C3844.81 822.292 3848.89 823.369 3851.2 825.522C3853.5 827.522 3855.04 831.213 3855.81 836.596L3859.27 863.359ZM4099.54 957.949C4083.08 958.718 4069.24 960.18 4058.01 962.333C4046.78 964.332 4037.78 966.947 4031.02 970.177C4024.25 973.407 4019.4 977.175 4016.48 981.482C4013.56 985.788 4012.1 990.479 4012.1 995.555C4012.1 1005.55 4015.02 1012.7 4020.87 1017.01C4026.86 1021.32 4034.63 1023.47 4044.17 1023.47C4055.86 1023.47 4065.93 1021.39 4074.39 1017.24C4083 1012.94 4091.39 1006.48 4099.54 997.862V957.949ZM3968.96 855.284C3996.18 830.367 4028.94 817.909 4067.24 817.909C4081.08 817.909 4093.46 820.216 4104.38 824.83C4115.3 829.291 4124.53 835.597 4132.07 843.748C4139.6 851.746 4145.3 861.359 4149.14 872.587C4153.14 883.815 4155.14 896.119 4155.14 909.5V1059H4129.3C4123.92 1059 4119.76 1058.23 4116.84 1056.69C4113.92 1055 4111.61 1051.69 4109.92 1046.77L4104.84 1029.7C4098.85 1035.08 4093 1039.85 4087.31 1044C4081.62 1048 4075.7 1051.39 4069.55 1054.16C4063.39 1056.92 4056.78 1059 4049.7 1060.38C4042.78 1061.92 4035.09 1062.69 4026.63 1062.69C4016.64 1062.69 4007.41 1061.38 3998.95 1058.77C3990.49 1056 3983.18 1051.92 3977.03 1046.54C3970.88 1041.16 3966.11 1034.47 3962.73 1026.47C3959.34 1018.47 3957.65 1009.17 3957.65 998.554C3957.65 992.556 3958.65 986.634 3960.65 980.79C3962.65 974.791 3965.88 969.1 3970.34 963.717C3974.95 958.334 3980.88 953.258 3988.11 948.49C3995.33 943.722 4004.18 939.57 4014.64 936.032C4025.25 932.494 4037.55 929.649 4051.55 927.496C4065.55 925.189 4081.54 923.804 4099.54 923.343V909.5C4099.54 893.658 4096.15 881.969 4089.39 874.433C4082.62 866.742 4072.85 862.897 4060.09 862.897C4050.86 862.897 4043.17 863.974 4037.02 866.127C4031.02 868.28 4025.71 870.741 4021.1 873.51C4016.48 876.125 4012.25 878.509 4008.41 880.662C4004.72 882.815 4000.56 883.892 3995.95 883.892C3991.95 883.892 3988.57 882.892 3985.8 880.893C3983.03 878.739 3980.8 876.278 3979.11 873.51L3968.96 855.284ZM4349.31 863.82C4347.46 867.204 4344.62 868.896 4340.77 868.896C4338.47 868.896 4335.85 868.05 4332.93 866.358C4330.01 864.666 4326.39 862.82 4322.09 860.821C4317.93 858.668 4312.93 856.745 4307.09 855.053C4301.24 853.207 4294.32 852.285 4286.33 852.285C4279.4 852.285 4273.18 853.207 4267.64 855.053C4262.1 856.745 4257.33 859.129 4253.33 862.205C4249.49 865.281 4246.49 868.896 4244.34 873.048C4242.34 877.047 4241.34 881.431 4241.34 886.199C4241.34 892.197 4243.03 897.196 4246.41 901.195C4249.95 905.194 4254.56 908.655 4260.26 911.577C4265.95 914.499 4272.41 917.114 4279.63 919.421C4286.86 921.574 4294.25 923.958 4301.78 926.573C4309.47 929.034 4316.93 931.802 4324.16 934.878C4331.39 937.955 4337.85 941.8 4343.54 946.414C4349.23 951.028 4353.77 956.719 4357.15 963.486C4360.69 970.1 4362.46 978.098 4362.46 987.48C4362.46 998.247 4360.54 1008.24 4356.69 1017.47C4352.85 1026.55 4347.16 1034.47 4339.62 1041.24C4332.08 1047.85 4322.85 1053.08 4311.93 1056.92C4301.01 1060.77 4288.4 1062.69 4274.1 1062.69C4257.79 1062.69 4243.03 1060.08 4229.8 1054.85C4216.57 1049.46 4205.35 1042.62 4196.12 1034.31L4205.81 1018.63C4207.04 1016.63 4208.5 1015.09 4210.19 1014.01C4211.88 1012.94 4214.04 1012.4 4216.65 1012.4C4219.42 1012.4 4222.34 1013.47 4225.42 1015.63C4228.49 1017.78 4232.19 1020.16 4236.49 1022.78C4240.95 1025.39 4246.34 1027.78 4252.64 1029.93C4258.95 1032.08 4266.79 1033.16 4276.17 1033.16C4284.17 1033.16 4291.17 1032.16 4297.17 1030.16C4303.17 1028.01 4308.17 1025.16 4312.16 1021.63C4316.16 1018.09 4319.09 1014.01 4320.93 1009.4C4322.93 1004.78 4323.93 999.862 4323.93 994.632C4323.93 988.172 4322.16 982.866 4318.62 978.713C4315.24 974.407 4310.7 970.792 4305.01 967.87C4299.32 964.794 4292.79 962.179 4285.4 960.026C4278.17 957.719 4270.71 955.335 4263.02 952.874C4255.49 950.413 4248.03 947.644 4240.65 944.568C4233.42 941.338 4226.96 937.339 4221.27 932.571C4215.57 927.803 4210.96 921.959 4207.42 915.037C4204.04 907.962 4202.35 899.426 4202.35 889.429C4202.35 880.508 4204.19 871.972 4207.88 863.82C4211.58 855.515 4216.96 848.286 4224.03 842.133C4231.11 835.827 4239.8 830.829 4250.1 827.137C4260.41 823.446 4272.18 821.6 4285.4 821.6C4300.78 821.6 4314.55 824.061 4326.7 828.983C4339 833.751 4349.62 840.365 4358.54 848.824L4349.31 863.82ZM4454.11 1002.71C4461.64 1012.86 4469.87 1020.01 4478.79 1024.16C4487.71 1028.32 4497.71 1030.39 4508.78 1030.39C4530.62 1030.39 4547.39 1022.62 4559.08 1007.09C4570.77 991.556 4576.61 969.408 4576.61 940.646C4576.61 925.419 4575.23 912.346 4572.46 901.426C4569.84 890.505 4566 881.585 4560.92 874.663C4555.85 867.588 4549.62 862.436 4542.24 859.206C4534.85 855.976 4526.47 854.361 4517.09 854.361C4503.71 854.361 4491.94 857.437 4481.79 863.589C4471.79 869.742 4462.56 878.432 4454.11 889.659V1002.71ZM4452.03 861.513C4461.87 849.362 4473.25 839.596 4486.17 832.213C4499.09 824.83 4513.86 821.139 4530.47 821.139C4544 821.139 4556.23 823.754 4567.15 828.983C4578.07 834.059 4587.38 841.672 4595.07 851.823C4602.76 861.821 4608.68 874.279 4612.83 889.198C4616.99 904.117 4619.06 921.267 4619.06 940.646C4619.06 957.872 4616.76 973.945 4612.14 988.864C4607.53 1003.63 4600.84 1016.47 4592.07 1027.39C4583.46 1038.16 4572.84 1046.7 4560.23 1053C4547.77 1059.15 4533.7 1062.23 4518.01 1062.23C4503.71 1062.23 4491.4 1059.85 4481.1 1055.08C4470.95 1050.16 4461.95 1043.39 4454.11 1034.78V1138.13H4412.81V825.292H4437.49C4443.34 825.292 4446.95 828.137 4448.34 833.828L4452.03 861.513ZM4798.11 953.797C4779.2 954.412 4763.05 955.95 4749.67 958.411C4736.44 960.718 4725.59 963.794 4717.14 967.639C4708.83 971.484 4702.75 976.022 4698.91 981.251C4695.22 986.48 4693.37 992.325 4693.37 998.785C4693.37 1004.94 4694.37 1010.24 4696.37 1014.7C4698.37 1019.16 4701.06 1022.86 4704.45 1025.78C4707.98 1028.55 4712.06 1030.62 4716.67 1032.01C4721.44 1033.24 4726.52 1033.85 4731.9 1033.85C4739.13 1033.85 4745.74 1033.16 4751.74 1031.78C4757.74 1030.24 4763.35 1028.08 4768.58 1025.32C4773.97 1022.55 4779.04 1019.24 4783.81 1015.4C4788.73 1011.55 4793.5 1007.17 4798.11 1002.25V953.797ZM4665.46 858.283C4678.38 845.825 4692.3 836.519 4707.21 830.367C4722.13 824.215 4738.67 821.139 4756.82 821.139C4769.89 821.139 4781.5 823.292 4791.65 827.599C4801.81 831.905 4810.34 837.904 4817.26 845.594C4824.18 853.284 4829.41 862.59 4832.95 873.51C4836.49 884.43 4838.26 896.427 4838.26 909.5V1059H4820.03C4816.03 1059 4812.96 1058.38 4810.8 1057.15C4808.65 1055.77 4806.96 1053.16 4805.73 1049.31L4801.11 1027.16C4794.96 1032.85 4788.96 1037.93 4783.12 1042.39C4777.27 1046.7 4771.12 1050.39 4764.66 1053.46C4758.2 1056.39 4751.28 1058.62 4743.9 1060.15C4736.67 1061.85 4728.59 1062.69 4719.67 1062.69C4710.6 1062.69 4702.06 1061.46 4694.06 1059C4686.07 1056.39 4679.07 1052.54 4673.07 1047.46C4667.23 1042.39 4662.53 1036.01 4659 1028.32C4655.61 1020.47 4653.92 1011.24 4653.92 1000.63C4653.92 991.402 4656.46 982.558 4661.53 974.099C4666.61 965.486 4674.84 957.872 4686.22 951.259C4697.6 944.645 4712.44 939.262 4730.75 935.109C4749.05 930.803 4771.51 928.342 4798.11 927.726V909.5C4798.11 891.351 4794.19 877.663 4786.35 868.434C4778.5 859.052 4767.05 854.361 4751.97 854.361C4741.82 854.361 4733.28 855.668 4726.36 858.283C4719.6 860.744 4713.67 863.589 4708.6 866.819C4703.68 869.895 4699.37 872.741 4695.68 875.356C4692.14 877.816 4688.6 879.047 4685.07 879.047C4682.3 879.047 4679.91 878.355 4677.91 876.97C4675.92 875.432 4674.22 873.587 4672.84 871.433L4665.46 858.283ZM5063.46 866.819C5062.23 868.511 5061 869.818 5059.77 870.741C5058.54 871.664 5056.85 872.126 5054.7 872.126C5052.39 872.126 5049.85 871.203 5047.08 869.357C5044.31 867.358 5040.85 865.204 5036.7 862.897C5032.7 860.59 5027.7 858.514 5021.7 856.668C5015.86 854.669 5008.63 853.669 5000.02 853.669C4988.48 853.669 4978.33 855.745 4969.56 859.898C4960.8 863.897 4953.41 869.742 4947.42 877.432C4941.57 885.122 4937.11 894.427 4934.03 905.348C4931.11 916.268 4929.65 928.496 4929.65 942.03C4929.65 956.181 4931.27 968.793 4934.5 979.867C4937.73 990.787 4942.26 1000.02 4948.11 1007.55C4954.11 1014.93 4961.26 1020.63 4969.56 1024.62C4978.02 1028.47 4987.48 1030.39 4997.94 1030.39C5007.94 1030.39 5016.17 1029.24 5022.63 1026.93C5029.09 1024.47 5034.39 1021.78 5038.55 1018.86C5042.85 1015.93 5046.39 1013.32 5049.16 1011.01C5052.08 1008.55 5054.93 1007.32 5057.69 1007.32C5061.08 1007.32 5063.69 1008.63 5065.54 1011.24L5077.07 1026.24C5072 1032.55 5066.23 1037.93 5059.77 1042.39C5053.31 1046.85 5046.31 1050.62 5038.78 1053.69C5031.39 1056.62 5023.63 1058.77 5015.47 1060.15C5007.32 1061.54 4999.02 1062.23 4990.56 1062.23C4975.95 1062.23 4962.33 1059.54 4949.72 1054.16C4937.26 1048.77 4926.42 1041 4917.19 1030.85C4907.96 1020.55 4900.74 1007.94 4895.51 993.017C4890.28 978.098 4887.66 961.102 4887.66 942.03C4887.66 924.65 4890.05 908.578 4894.81 893.812C4899.74 879.047 4906.81 866.358 4916.04 855.745C4925.42 844.979 4936.88 836.596 4950.41 830.598C4964.1 824.599 4979.79 821.6 4997.48 821.6C5013.94 821.6 5028.39 824.292 5040.85 829.675C5053.46 834.905 5064.62 842.364 5074.31 852.054L5063.46 866.819ZM5273.52 916.652C5273.52 907.116 5272.14 898.426 5269.37 890.582C5266.76 882.584 5262.83 875.74 5257.6 870.049C5252.53 864.205 5246.3 859.744 5238.92 856.668C5231.53 853.438 5223.15 851.823 5213.77 851.823C5194.08 851.823 5178.47 857.591 5166.94 869.126C5155.55 880.508 5148.48 896.35 5145.71 916.652H5273.52ZM5306.74 1026.24C5301.67 1032.39 5295.59 1037.77 5288.52 1042.39C5281.44 1046.85 5273.83 1050.54 5265.68 1053.46C5257.68 1056.39 5249.38 1058.54 5240.76 1059.92C5232.15 1061.46 5223.61 1062.23 5215.15 1062.23C5199 1062.23 5184.08 1059.54 5170.4 1054.16C5156.86 1048.62 5145.09 1040.62 5135.1 1030.16C5125.25 1019.55 5117.56 1006.48 5112.03 990.941C5106.49 975.406 5103.72 957.565 5103.72 937.416C5103.72 921.113 5106.18 905.886 5111.1 891.736C5116.18 877.586 5123.41 865.358 5132.79 855.053C5142.17 844.594 5153.63 836.443 5167.17 830.598C5180.7 824.599 5195.93 821.6 5212.85 821.6C5226.84 821.6 5239.76 823.984 5251.61 828.752C5263.6 833.366 5273.91 840.134 5282.52 849.055C5291.29 857.822 5298.13 868.742 5303.05 881.815C5307.98 894.735 5310.44 909.5 5310.44 926.112C5310.44 932.571 5309.74 936.878 5308.36 939.031C5306.98 941.185 5304.36 942.261 5300.52 942.261H5144.33C5144.79 957.027 5146.79 969.869 5150.32 980.79C5154.02 991.71 5159.09 1000.86 5165.55 1008.24C5172.01 1015.47 5179.7 1020.93 5188.62 1024.62C5197.54 1028.16 5207.54 1029.93 5218.61 1029.93C5228.92 1029.93 5237.76 1028.78 5245.15 1026.47C5252.68 1024.01 5259.14 1021.39 5264.53 1018.63C5269.91 1015.86 5274.37 1013.32 5277.91 1011.01C5281.6 1008.55 5284.75 1007.32 5287.37 1007.32C5290.75 1007.32 5293.36 1008.63 5295.21 1011.24L5306.74 1026.24Z" fill="#003949"/>
<path d="M2795.54 652C2756.4 652 2702.31 652 2671.81 652C2658.89 652 2648.45 662.47 2648.45 675.385V1084.62C2648.45 1097.53 2658.92 1108 2671.83 1108H2829.45C2842.36 1108 2852.83 1097.53 2852.83 1084.62V909.4C2852.83 901.944 2856.38 894.936 2862.4 890.532L2904.98 859.356C2917.93 849.876 2917.7 830.47 2904.53 821.299L2862.85 792.271C2856.57 787.899 2852.83 780.732 2852.83 773.081V710.389C2852.83 697.474 2863.3 687.005 2876.21 687.005H2942.86C2955.78 687.005 2966.25 697.474 2966.25 710.389V772.999C2966.25 780.695 2970.03 787.899 2976.37 792.262L3019.45 821.91C3032.48 830.875 3033.03 849.913 3020.56 859.626L2980.88 890.517C2975.19 894.947 2971.86 901.756 2971.86 908.969V1084.62C2971.86 1097.53 2982.33 1108 2995.24 1108H3163.14C3174.38 1108 3183.49 1098.89 3183.49 1087.66V675.385C3183.49 662.47 3173.02 652 3160.1 652H2970.45H2757.4" stroke="#003949" stroke-width="23.3846" stroke-linecap="round"/>
<path d="M1527.4 95C1452.9 95 1349.95 95 1291.91 95C1267.33 95 1247.45 114.926 1247.45 139.507V918.373C1247.45 942.953 1267.37 962.88 1291.95 962.88H1591.93C1616.51 962.88 1636.44 942.953 1636.44 918.373V584.895C1636.44 570.705 1643.2 557.366 1654.65 548.984L1735.69 489.65C1760.34 471.607 1759.9 434.671 1734.84 417.217L1655.51 361.97C1643.56 353.648 1636.44 340.008 1636.44 325.447V139.507C1636.44 114.926 1656.36 95 1680.94 95H1807.79C1832.37 95 1852.29 114.926 1852.29 139.507V325.29C1852.29 339.938 1859.5 353.648 1871.57 361.953L1953.56 418.381C1978.35 435.442 1979.41 471.677 1955.66 490.163L1880.14 548.956C1869.31 557.388 1862.98 570.348 1862.98 584.075V918.373C1862.98 942.953 1882.9 962.88 1907.48 962.88H2227.04C2248.42 962.88 2265.76 945.544 2265.76 924.159V139.507C2265.76 114.926 2245.83 95 2221.25 95H1961.33" stroke="#003949" stroke-width="44.5066" stroke-linecap="round"/>
<path d="M304.783 87.6193H67.3346C42.5446 87.6193 22.4482 107.716 22.4482 132.506V918.017C22.4482 942.807 42.5446 962.903 67.3346 962.903H369.869C394.659 962.903 414.755 942.807 414.755 918.017V581.694C414.755 567.383 421.579 553.93 433.125 545.477L514.859 485.636C539.712 467.44 539.272 430.189 513.995 412.585L433.989 356.867C421.938 348.474 414.755 334.718 414.755 320.033V80.8863C414.755 56.0963 434.851 36 459.641 36H587.568C612.358 36 632.454 56.0963 632.454 80.8864V324.272C632.454 336.535 637.47 348.263 646.338 356.732L700.627 408.584C721.814 428.82 718.249 463.601 693.397 479.118L586.687 545.743C573.553 553.944 565.573 568.334 565.573 583.818V918.017C565.573 942.807 585.67 962.903 610.46 962.903H1010.4C1031.96 962.903 1049.45 945.42 1049.45 923.852V132.506C1049.45 107.716 1029.35 87.6193 1004.56 87.6193H742.425" stroke="#003949" stroke-width="44.8864"/>
<path d="M304.842 1155C229.699 1155 125.849 1155 67.2996 1155C42.5044 1155 22.4482 1175.1 22.4482 1199.9V1985.57C22.4482 2010.37 42.5487 2030.47 67.3439 2030.47H369.941C394.736 2030.47 414.837 2010.37 414.837 1985.57V1649.18C414.837 1634.86 421.662 1621.41 433.211 1612.95L514.961 1553.1C539.82 1534.9 539.379 1497.64 514.097 1480.03L434.075 1424.3C422.022 1415.91 414.837 1402.15 414.837 1387.46V1267.1C414.837 1242.31 434.937 1222.21 459.732 1222.21H587.685C612.48 1222.21 632.581 1242.31 632.581 1267.1V1387.3C632.581 1402.08 639.851 1415.91 652.023 1424.29L734.729 1481.21C759.736 1498.42 760.809 1534.97 736.855 1553.62L660.673 1612.92C649.746 1621.43 643.356 1634.5 643.356 1648.35V1985.57C643.356 2010.37 663.456 2030.47 688.251 2030.47H1010.6C1032.17 2030.47 1049.66 2012.98 1049.66 1991.41V1199.9C1049.66 1175.1 1029.56 1155 1004.77 1155H640.646H231.63" stroke="#003949" stroke-width="44.8957" stroke-linecap="round"/>
<path d="M1524.84 1157C1449.7 1157 1345.85 1157 1287.3 1157C1262.5 1157 1242.45 1177.1 1242.45 1201.9V1987.57C1242.45 2012.37 1262.55 2032.47 1287.34 2032.47H1589.94C1614.74 2032.47 1634.84 2012.37 1634.84 1987.57V1651.18C1634.84 1636.86 1641.66 1623.41 1653.21 1614.95L1734.96 1555.1C1759.82 1536.9 1759.38 1499.64 1734.1 1482.03L1654.07 1426.3C1642.02 1417.91 1634.84 1404.15 1634.84 1389.46V1201.9C1634.84 1177.1 1654.94 1157 1679.73 1157H1807.69C1832.48 1157 1852.58 1177.1 1852.58 1201.9V1389.3C1852.58 1404.08 1859.85 1417.91 1872.02 1426.29L1954.73 1483.21C1979.74 1500.42 1980.81 1536.97 1956.85 1555.62L1880.67 1614.92C1869.75 1623.43 1863.36 1636.5 1863.36 1650.35V1987.57C1863.36 2012.37 1883.46 2032.47 1908.25 2032.47H2230.6C2252.17 2032.47 2269.66 2014.98 2269.66 1993.41V1201.9C2269.66 1177.1 2249.56 1157 2224.77 1157H1860.65H1451.63" stroke="#003949" stroke-width="44.8957" stroke-linecap="round"/>
</svg>
