<svg width="1738" height="177" viewBox="0 0 1738 177" fill="none" xmlns="http://www.w3.org/2000/svg">
<path d="M524.502 18.5L532.002 90L529.002 118" stroke="black" stroke-width="20" stroke-linecap="round"/>
<path d="M569.002 24L574.002 121" stroke="black" stroke-width="20" stroke-linecap="round"/>
<path d="M574.502 76.5L675.102 88.3935C675.697 88.4639 676.275 88.6409 676.808 88.9159L691.502 96.5" stroke="black" stroke-width="20" stroke-linecap="round"/>
<path d="M576.002 73.5C576.002 73.5 604.596 64.4497 616.002 50.5C619.122 46.6848 623.002 40 623.002 40" stroke="black" stroke-width="20" stroke-linecap="round"/>
<path d="M394.002 31C394.002 31 373.819 28.0293 361.002 29.5C347.679 31.0289 328.002 39 328.002 39" stroke="black" stroke-width="20" stroke-linecap="round"/>
<path d="M327.002 24C327.002 24 322.883 58.5221 327.002 80C328.68 88.7459 333.002 102 333.002 102" stroke="black" stroke-width="20" stroke-linecap="round"/>
<path d="M333.002 102C333.002 102 351.935 85.8344 362.002 75C376.465 59.4354 394.002 31 394.002 31" stroke="black" stroke-width="20" stroke-linecap="round"/>
<path d="M239.002 64L281.002 62" stroke="black" stroke-width="20" stroke-linecap="round"/>
<path d="M237.002 30.5C237.002 30.5 257.708 28.0931 271.002 28.5C283.18 28.8727 302.002 32 302.002 32" stroke="black" stroke-width="20" stroke-linecap="round"/>
<path d="M282.502 89C282.502 89 268.615 95.8146 259.002 97.5C249.386 99.186 234.002 97.5 234.002 97.5" stroke="black" stroke-width="20" stroke-linecap="round"/>
<path d="M234.002 98L235.502 30.5" stroke="black" stroke-width="20" stroke-linecap="round"/>
<path d="M412.002 93.5L495.502 87.5" stroke="black" stroke-width="20" stroke-linecap="round"/>
<path d="M425.502 150L433.502 27.5" stroke="black" stroke-width="20" stroke-linecap="round"/>
<path d="M413.002 38C413.002 38 433.212 31.8539 446.502 32C459.024 32.1377 478.002 38 478.002 38" stroke="black" stroke-width="20" stroke-linecap="round"/>
<path d="M128.002 98.5L211.502 92.5" stroke="black" stroke-width="20" stroke-linecap="round"/>
<path d="M141.502 155L149.502 32.5" stroke="black" stroke-width="20" stroke-linecap="round"/>
<path d="M129.002 43C129.002 43 149.212 36.8539 162.502 37C175.024 37.1377 194.002 43 194.002 43" stroke="black" stroke-width="20" stroke-linecap="round"/>
<path d="M194.002 43.5L128.002 98" stroke="black" stroke-width="20" stroke-linecap="round"/>
<path d="M478.002 38.5L412.002 93" stroke="black" stroke-width="20" stroke-linecap="round"/>
<path d="M15.5022 85L110.002 66" stroke="black" stroke-width="20" stroke-linecap="round"/>
<path d="M10.0022 42C10.0022 42 48.7096 22.2441 75.5022 21.5C91.4575 21.0569 116.002 27 116.002 27" stroke="black" stroke-width="20" stroke-linecap="round"/>
<path d="M27.0022 130.5L35.0022 18" stroke="black" stroke-width="20" stroke-linecap="round"/>
<path d="M1399.5 48.5L1442.5 93" stroke="black" stroke-width="20" stroke-linecap="round"/>
<path d="M1442.5 93L1395 117.5" stroke="black" stroke-width="20" stroke-linecap="round"/>
<path d="M1227.5 26.5V118.5" stroke="black" stroke-width="20" stroke-linecap="round"/>
<path d="M1223.5 119.5L1279.5 99.5" stroke="black" stroke-width="20" stroke-linecap="round"/>
<path d="M893.002 111L935.002 15" stroke="black" stroke-width="20" stroke-linecap="round"/>
<path d="M1553 124.5L1595 28.5" stroke="black" stroke-width="20" stroke-linecap="round"/>
<path d="M1112 119.5L1154 23.5" stroke="black" stroke-width="20" stroke-linecap="round"/>
<path d="M935.002 15L964.502 147.5" stroke="black" stroke-width="20" stroke-linecap="round"/>
<path d="M1595 28.5L1627 166.5" stroke="black" stroke-width="20" stroke-linecap="round"/>
<path d="M1154 23.5L1184 147.5" stroke="black" stroke-width="20" stroke-linecap="round"/>
<path d="M901.002 85.5L985.002 65.5" stroke="black" stroke-width="20" stroke-linecap="round"/>
<path d="M1561 99L1645 79" stroke="black" stroke-width="20" stroke-linecap="round"/>
<path d="M1120 94L1204 74" stroke="black" stroke-width="20" stroke-linecap="round"/>
<path d="M817.002 122.5V10" stroke="black" stroke-width="20" stroke-linecap="round"/>
<path d="M854.502 12.5L860.502 155" stroke="black" stroke-width="20" stroke-linecap="round"/>
<path d="M802.002 77.5L884.002 58.5" stroke="black" stroke-width="20" stroke-linecap="round"/>
<path d="M1002 82.5L1085.5 76.5" stroke="black" stroke-width="20" stroke-linecap="round"/>
<path d="M1015.5 139L1023.5 16.5" stroke="black" stroke-width="20" stroke-linecap="round"/>
<path d="M1003 27C1003 27 1023.21 20.8539 1036.5 21C1049.02 21.1377 1068 27 1068 27" stroke="black" stroke-width="20" stroke-linecap="round"/>
<path d="M1068 27.5L1002 82" stroke="black" stroke-width="20" stroke-linecap="round"/>
<path d="M1367.83 40.5C1367.83 40.5 1347.65 37.5293 1334.83 39C1321.51 40.5289 1301.83 48.5 1301.83 48.5" stroke="black" stroke-width="20" stroke-linecap="round"/>
<path d="M1300.83 33.5C1300.83 33.5 1296.71 68.0221 1300.83 89.5C1302.51 98.2459 1306.83 111.5 1306.83 111.5" stroke="black" stroke-width="20" stroke-linecap="round"/>
<path d="M1306.83 111.5C1306.83 111.5 1325.77 95.3344 1335.83 84.5C1350.3 68.9354 1367.83 40.5 1367.83 40.5" stroke="black" stroke-width="20" stroke-linecap="round"/>
<path d="M1443 24L1399.5 48.5" stroke="black" stroke-width="20" stroke-linecap="round"/>
<path d="M1464.5 42.5H1539" stroke="black" stroke-width="20" stroke-linecap="round"/>
<path d="M1491 46L1500 140" stroke="black" stroke-width="20" stroke-linecap="round"/>
<path d="M1727.83 47.5C1727.83 47.5 1707.65 44.5293 1694.83 46C1681.51 47.5289 1661.83 55.5 1661.83 55.5" stroke="black" stroke-width="20" stroke-linecap="round"/>
<path d="M1660.83 40.5C1660.83 40.5 1656.71 75.0221 1660.83 96.5C1662.51 105.246 1666.83 118.5 1666.83 118.5" stroke="black" stroke-width="20" stroke-linecap="round"/>
<path d="M1666.83 118.5C1666.83 118.5 1685.77 102.334 1695.83 91.5C1710.3 75.9354 1727.83 47.5 1727.83 47.5" stroke="black" stroke-width="20" stroke-linecap="round"/>
</svg>
