<svg width="718" height="572" viewBox="0 0 718 572" fill="none" xmlns="http://www.w3.org/2000/svg">
<rect width="718" height="572" fill="#22AD5C"/>
<path d="M168.256 333V235.685H185.495L216.635 309.366H217.191L248.193 235.685H265.432V333H253.754V253.341H253.198L225.116 319.098H208.711L180.49 253.341H179.934V333H168.256ZM300.613 334.668C295.144 334.668 290.557 333.695 286.85 331.749C283.142 329.803 280.362 327.207 278.508 323.964C276.747 320.72 275.867 317.198 275.867 313.398C275.867 308.671 277.072 304.686 279.481 301.442C281.984 298.198 285.459 295.742 289.908 294.074C294.449 292.313 299.778 291.433 305.895 291.433H324.524C324.524 286.891 323.829 283.138 322.439 280.172C321.049 277.206 319.056 275.028 316.461 273.638C313.866 272.155 310.761 271.414 307.147 271.414C302.605 271.414 298.666 272.572 295.33 274.889C291.993 277.206 289.954 280.774 289.213 285.594H277.257C277.813 280.589 279.435 276.372 282.123 272.943C284.903 269.514 288.425 266.919 292.688 265.158C297.044 263.304 301.864 262.377 307.147 262.377C313.727 262.377 319.149 263.582 323.412 265.992C327.768 268.309 330.966 271.599 333.004 275.862C335.136 280.033 336.202 284.945 336.202 290.599V333H326.471L325.358 321.183H324.802C323.505 323.408 321.976 325.354 320.215 327.022C318.546 328.69 316.693 330.081 314.654 331.193C312.615 332.305 310.39 333.139 307.981 333.695C305.664 334.344 303.208 334.668 300.613 334.668ZM302.698 324.798C306.22 324.798 309.325 324.149 312.012 322.851C314.7 321.461 316.971 319.608 318.824 317.291C320.678 314.974 322.068 312.379 322.995 309.505C324.014 306.54 324.524 303.528 324.524 300.469H306.869C302.327 300.469 298.666 301.025 295.886 302.137C293.105 303.157 291.113 304.593 289.908 306.447C288.703 308.301 288.101 310.432 288.101 312.842C288.101 315.252 288.657 317.383 289.769 319.237C290.974 320.998 292.642 322.388 294.774 323.408C296.998 324.334 299.639 324.798 302.698 324.798ZM372.118 333C367.948 333 364.333 332.351 361.275 331.054C358.216 329.756 355.853 327.578 354.185 324.52C352.609 321.369 351.821 317.152 351.821 311.869V272.387H339.865V264.046H351.821L353.211 247.502H363.499V264.046H383.796V272.387H363.499V311.869C363.499 316.688 364.379 319.932 366.14 321.6C367.901 323.176 371.006 323.964 375.455 323.964H382.684V333H372.118ZM420.706 334.668C413.477 334.668 407.267 333.185 402.077 330.22C396.98 327.161 393.041 322.944 390.261 317.569C387.48 312.101 386.09 305.752 386.09 298.523C386.09 291.294 387.573 284.991 390.539 279.616C393.597 274.148 397.721 269.931 402.911 266.965C408.194 263.907 414.126 262.377 420.706 262.377C428.955 262.377 435.859 264.509 441.42 268.772C446.981 273.036 450.503 278.735 451.986 285.872H440.03C439.103 281.145 436.833 277.577 433.218 275.167C429.603 272.665 425.386 271.414 420.567 271.414C416.674 271.414 413.014 272.433 409.584 274.472C406.155 276.418 403.375 279.384 401.243 283.37C399.112 287.355 398.046 292.406 398.046 298.523C398.046 302.879 398.602 306.725 399.714 310.062C400.919 313.305 402.541 316.039 404.58 318.264C406.619 320.488 408.982 322.156 411.67 323.269C414.45 324.381 417.416 324.937 420.567 324.937C423.811 324.937 426.777 324.427 429.464 323.408C432.152 322.295 434.423 320.72 436.276 318.681C438.13 316.549 439.381 314.047 440.03 311.174H451.986C450.503 318.125 446.981 323.778 441.42 328.134C435.859 332.49 428.955 334.668 420.706 334.668ZM461.775 333V235.685H473.453V275.584H474.009C476.789 271.228 480.172 267.938 484.157 265.714C488.235 263.49 492.591 262.377 497.225 262.377C502.508 262.377 507.142 263.49 511.127 265.714C515.113 267.845 518.171 271.182 520.303 275.723C522.527 280.172 523.639 285.826 523.639 292.684V333H512.1V293.935C512.1 286.799 510.618 281.423 507.652 277.809C504.779 274.194 500.469 272.387 494.723 272.387C490.738 272.387 487.123 273.36 483.879 275.306C480.635 277.253 478.087 280.079 476.233 283.787C474.379 287.401 473.453 291.896 473.453 297.272V333H461.775ZM536.483 333V264.046H548.161V333H536.483ZM542.322 250.283C540.005 250.283 538.059 249.495 536.483 247.919C534.908 246.344 534.12 244.397 534.12 242.08C534.12 239.856 534.908 237.956 536.483 236.38C538.059 234.805 540.005 234.017 542.322 234.017C544.547 234.017 546.447 234.805 548.022 236.38C549.598 237.956 550.386 239.902 550.386 242.219C550.386 244.444 549.598 246.344 548.022 247.919C546.447 249.495 544.547 250.283 542.322 250.283Z" fill="white"/>
</svg>
