<svg width="327" height="125" viewBox="0 0 327 125" fill="none" xmlns="http://www.w3.org/2000/svg">
<g opacity="0.7">
<rect y="7.9731" width="77.8626" height="77.8626" rx="38.9313" fill="#EDF2F1"/>
<path d="M31.0764 35.6348C31.0764 34.8243 30.8361 34.032 30.3858 33.358C29.9355 32.6841 29.2955 32.1589 28.5466 31.8487C27.7978 31.5385 26.9739 31.4574 26.1789 31.6155C25.384 31.7736 24.6538 32.1639 24.0807 32.737C23.5075 33.3102 23.1172 34.0404 22.9591 34.8353C22.801 35.6302 22.8821 36.4542 23.1923 37.203C23.5025 37.9519 24.0277 38.5919 24.7017 39.0422C25.3756 39.4925 26.1679 39.7328 26.9784 39.7328C28.0649 39.7316 29.1065 39.2995 29.8748 38.5312C30.6431 37.7629 31.0752 36.7213 31.0764 35.6348ZM24.9294 35.6348C24.9294 35.2295 25.0496 34.8334 25.2747 34.4964C25.4999 34.1595 25.8199 33.8968 26.1943 33.7417C26.5687 33.5867 26.9807 33.5461 27.3781 33.6251C27.7756 33.7042 28.1407 33.8994 28.4273 34.1859C28.7138 34.4725 28.909 34.8376 28.988 35.235C29.0671 35.6325 29.0265 36.0445 28.8714 36.4189C28.7164 36.7933 28.4537 37.1133 28.1168 37.3385C27.7798 37.5636 27.3837 37.6838 26.9784 37.6838C26.4352 37.6832 25.9143 37.4671 25.5302 37.083C25.1461 36.6989 24.93 36.178 24.9294 35.6348Z" fill="black"/>
<path d="M50.0717 35.0864C49.2807 34.2907 48.3407 33.6586 47.3054 33.2263C46.2701 32.794 45.1597 32.5699 44.0378 32.5669H43.9979C41.5974 32.5669 39.2532 33.5894 37.394 35.4488C35.5 37.3428 33.9525 40.221 33.2543 43.148C33.0779 43.8777 32.961 44.6206 32.9047 45.3692C32.8321 46.5274 32.4979 47.654 31.9273 48.6645C31.5278 49.3553 31.0393 49.9906 30.4743 50.5542L25.3976 55.7543C24.6043 56.5502 24.5198 57.3688 24.5891 57.9157C24.6694 58.5508 25.0069 59.1817 25.5651 59.74C26.1234 60.2983 26.7545 60.6358 27.3895 60.716C27.4904 60.7288 27.5921 60.7352 27.6939 60.7352C28.2182 60.7352 28.8948 60.5637 29.5555 59.9028L34.6318 54.7034C35.2381 54.0962 35.9273 53.5779 36.6789 53.1639C37.64 52.6462 38.7014 52.3417 39.7908 52.2711C40.5439 52.2134 41.291 52.0943 42.0246 51.9149C44.9409 51.2111 47.8137 49.6593 49.7091 47.7637C51.5789 45.894 52.6022 43.5346 52.5909 41.12C52.5879 39.9981 52.3638 38.8878 51.9316 37.8526C51.4993 36.8173 50.8673 35.8774 50.0717 35.0864ZM28.1028 58.458C27.8502 58.7088 27.7022 58.6901 27.6464 58.6832C27.4716 58.661 27.2412 58.5182 27.014 58.2911C26.7869 58.064 26.644 57.8335 26.6219 57.6587C26.6148 57.6025 26.596 57.4538 26.851 57.1986L30.9089 53.0421L32.1646 54.2978L28.1028 58.458ZM33.6127 52.8482L32.3339 51.5694C32.8494 50.9972 33.304 50.3729 33.6904 49.7067C34.1099 50.4546 34.7277 51.0722 35.4756 51.4915C34.8093 51.878 34.185 52.3327 33.6127 52.8482V52.8482ZM48.2606 46.3153C46.6448 47.931 44.0713 49.3136 41.5443 49.9235C39.0294 50.5303 36.9228 50.2874 35.9087 49.2735C33.7468 47.1115 35.3373 40.4031 38.8429 36.8975C40.4478 35.2926 42.2686 34.6239 43.9778 34.6239C45.7173 34.6248 47.3864 35.3116 48.6228 36.5353C50.9056 38.818 51.5544 43.0214 48.2606 46.3153Z" fill="black"/>
<path d="M4.45385 112.764H2.94037L7.31781 100.842H8.808L13.1854 112.764H11.672L8.10947 102.728H8.01634L4.45385 112.764ZM5.01267 108.107H11.1131V109.388H5.01267V108.107ZM16.2299 100.842V112.764H14.8561V100.842H16.2299ZM20.1198 100.842V112.764H18.746V100.842H20.1198ZM33.5795 105.825L32.3455 106.174C32.2679 105.969 32.1534 105.769 32.002 105.575C31.8546 105.377 31.6528 105.214 31.3966 105.086C31.1405 104.958 30.8126 104.894 30.4129 104.894C29.8657 104.894 29.4097 105.02 29.0449 105.272C28.684 105.52 28.5036 105.837 28.5036 106.221C28.5036 106.562 28.6278 106.832 28.8761 107.03C29.1245 107.228 29.5126 107.393 30.0403 107.525L31.3675 107.851C32.167 108.045 32.7627 108.342 33.1546 108.741C33.5466 109.137 33.7425 109.648 33.7425 110.272C33.7425 110.785 33.5951 111.242 33.3001 111.646C33.0091 112.05 32.6016 112.368 32.0777 112.601C31.5538 112.834 30.9445 112.95 30.2499 112.95C29.3379 112.95 28.5831 112.752 27.9855 112.356C27.3879 111.96 27.0095 111.382 26.8504 110.622L28.1543 110.296C28.2785 110.777 28.5133 111.138 28.8587 111.378C29.2079 111.619 29.6639 111.739 30.2266 111.739C30.8669 111.739 31.3753 111.603 31.7517 111.332C32.132 111.056 32.3222 110.726 32.3222 110.342C32.3222 110.032 32.2135 109.772 31.9962 109.562C31.7789 109.349 31.4452 109.19 30.995 109.085L29.5048 108.736C28.686 108.542 28.0845 108.241 27.7003 107.833C27.32 107.422 27.1298 106.908 27.1298 106.291C27.1298 105.786 27.2714 105.34 27.5547 104.952C27.8419 104.564 28.2319 104.259 28.7248 104.038C29.2215 103.817 29.7842 103.706 30.4129 103.706C31.2977 103.706 31.9923 103.9 32.4968 104.288C33.0052 104.676 33.3661 105.189 33.5795 105.825ZM35.8105 116.117V103.823H37.1377V105.243H37.3007C37.4016 105.088 37.5413 104.89 37.7198 104.649C37.9022 104.405 38.1622 104.187 38.4998 103.997C38.8413 103.803 39.3031 103.706 39.8852 103.706C40.6381 103.706 41.3017 103.894 41.876 104.271C42.4504 104.647 42.8986 105.181 43.2207 105.872C43.5428 106.562 43.7038 107.377 43.7038 108.316C43.7038 109.263 43.5428 110.084 43.2207 110.779C42.8986 111.47 42.4523 112.005 41.8818 112.385C41.3114 112.762 40.6536 112.95 39.9085 112.95C39.3341 112.95 38.8743 112.855 38.5289 112.665C38.1835 112.471 37.9177 112.251 37.7314 112.007C37.5451 111.759 37.4016 111.553 37.3007 111.39H37.1842V116.117H35.8105ZM37.1609 108.293C37.1609 108.968 37.2599 109.564 37.4578 110.08C37.6557 110.592 37.9449 110.994 38.3252 111.285C38.7055 111.572 39.1712 111.716 39.7222 111.716C40.2966 111.716 40.7758 111.565 41.16 111.262C41.5481 110.955 41.8391 110.544 42.0332 110.028C42.2311 109.508 42.3301 108.93 42.3301 108.293C42.3301 107.664 42.233 107.098 42.039 106.593C41.8488 106.085 41.5597 105.683 41.1717 105.388C40.7875 105.09 40.3043 104.94 39.7222 104.94C39.1634 104.94 38.6938 105.082 38.3135 105.365C37.9332 105.645 37.646 106.037 37.452 106.541C37.258 107.042 37.1609 107.626 37.1609 108.293ZM49.4318 112.95C48.6246 112.95 47.9163 112.758 47.3071 112.374C46.7017 111.99 46.2282 111.452 45.8867 110.761C45.5491 110.071 45.3803 109.263 45.3803 108.34C45.3803 107.408 45.5491 106.595 45.8867 105.901C46.2282 105.206 46.7017 104.667 47.3071 104.282C47.9163 103.898 48.6246 103.706 49.4318 103.706C50.2389 103.706 50.9452 103.898 51.5506 104.282C52.1599 104.667 52.6333 105.206 52.971 105.901C53.3125 106.595 53.4832 107.408 53.4832 108.34C53.4832 109.263 53.3125 110.071 52.971 110.761C52.6333 111.452 52.1599 111.99 51.5506 112.374C50.9452 112.758 50.2389 112.95 49.4318 112.95ZM49.4318 111.716C50.0449 111.716 50.5494 111.559 50.9452 111.244C51.3411 110.93 51.6341 110.517 51.8242 110.005C52.0144 109.492 52.1094 108.937 52.1094 108.34C52.1094 107.742 52.0144 107.185 51.8242 106.669C51.6341 106.153 51.3411 105.736 50.9452 105.418C50.5494 105.099 50.0449 104.94 49.4318 104.94C48.8186 104.94 48.3141 105.099 47.9183 105.418C47.5224 105.736 47.2294 106.153 47.0393 106.669C46.8491 107.185 46.7541 107.742 46.7541 108.34C46.7541 108.937 46.8491 109.492 47.0393 110.005C47.2294 110.517 47.5224 110.93 47.9183 111.244C48.3141 111.559 48.8186 111.716 49.4318 111.716ZM55.5803 112.764V103.823H56.9075V105.173H57.0006C57.1636 104.731 57.4585 104.372 57.8854 104.096C58.3123 103.821 58.7935 103.683 59.329 103.683C59.4299 103.683 59.556 103.685 59.7074 103.689C59.8587 103.693 59.9732 103.698 60.0508 103.706V105.103C60.0043 105.092 59.8975 105.074 59.7307 105.051C59.5677 105.024 59.395 105.01 59.2126 105.01C58.778 105.01 58.3899 105.101 58.0484 105.284C57.7108 105.462 57.443 105.711 57.2451 106.029C57.051 106.343 56.954 106.702 56.954 107.106V112.764H55.5803ZM66.128 103.823V104.987H61.4945V103.823H66.128ZM62.8449 101.68H64.2187V110.202C64.2187 110.591 64.275 110.882 64.3875 111.076C64.5039 111.266 64.6514 111.394 64.8299 111.46C65.0123 111.522 65.2044 111.553 65.4062 111.553C65.5576 111.553 65.6817 111.545 65.7788 111.53C65.8758 111.51 65.9534 111.495 66.0116 111.483L66.291 112.717C66.1979 112.752 66.0679 112.787 65.901 112.822C65.7341 112.861 65.5226 112.88 65.2665 112.88C64.8784 112.88 64.4981 112.797 64.1256 112.63C63.7569 112.463 63.4503 112.209 63.2058 111.867C62.9652 111.526 62.8449 111.095 62.8449 110.575V101.68ZM74.3677 105.825L73.1337 106.174C73.0561 105.969 72.9416 105.769 72.7902 105.575C72.6428 105.377 72.441 105.214 72.1848 105.086C71.9287 104.958 71.6008 104.894 71.2011 104.894C70.6539 104.894 70.1979 105.02 69.8331 105.272C69.4722 105.52 69.2918 105.837 69.2918 106.221C69.2918 106.562 69.416 106.832 69.6643 107.03C69.9127 107.228 70.3008 107.393 70.8285 107.525L72.1557 107.851C72.9552 108.045 73.5508 108.342 73.9428 108.741C74.3348 109.137 74.5307 109.648 74.5307 110.272C74.5307 110.785 74.3833 111.242 74.0883 111.646C73.7973 112.05 73.3898 112.368 72.8659 112.601C72.342 112.834 71.7327 112.95 71.0381 112.95C70.1261 112.95 69.3713 112.752 68.7737 112.356C68.1761 111.96 67.7977 111.382 67.6386 110.622L68.9425 110.296C69.0667 110.777 69.3015 111.138 69.6469 111.378C69.9961 111.619 70.4521 111.739 71.0148 111.739C71.6551 111.739 72.1635 111.603 72.5399 111.332C72.9202 111.056 73.1104 110.726 73.1104 110.342C73.1104 110.032 73.0017 109.772 72.7844 109.562C72.5671 109.349 72.2333 109.19 71.7832 109.085L70.293 108.736C69.4742 108.542 68.8727 108.241 68.4885 107.833C68.1082 107.422 67.918 106.908 67.918 106.291C67.918 105.786 68.0596 105.34 68.3429 104.952C68.6301 104.564 69.0201 104.259 69.513 104.038C70.0097 103.817 70.5724 103.706 71.2011 103.706C72.0859 103.706 72.7805 103.9 73.285 104.288C73.7934 104.676 74.1543 105.189 74.3677 105.825Z" fill="#1E1E1E"/>
</g>
<rect x="114.745" width="89.2154" height="89.2154" rx="44.6077" fill="#22AD5C"/>
<path d="M147.5 55.6903C150.466 58.6563 154.395 60.2888 158.568 60.2888C162.74 60.2888 166.671 58.6563 169.635 55.6903C175.738 49.5877 175.738 39.6582 169.635 33.5539C166.671 30.5895 162.739 28.9554 158.568 28.9554C154.397 28.9554 150.465 30.5895 147.5 33.5539C141.398 39.6566 141.398 49.5877 147.5 55.6903ZM167.422 53.4771C165.782 55.122 163.715 56.2761 161.454 56.8094C161.44 54.302 162.371 51.8854 164.101 50.1558C165.921 48.3355 168.377 47.2947 170.795 47.2587C170.296 49.6143 169.125 51.7746 167.422 53.4771ZM171.061 44.1408C167.737 44.108 164.356 45.4759 161.887 47.9427C159.49 50.3405 158.245 53.7025 158.345 57.1475C155.099 57.098 152 55.7807 149.712 53.4771C147.421 51.1848 146.112 48.0906 146.062 44.8499C146.182 44.853 146.303 44.8718 146.423 44.8718C149.734 44.8718 152.935 43.6134 155.246 41.3032C157.719 38.8302 159.092 35.4509 159.05 32.1109C162.203 32.2241 165.196 33.5317 167.422 35.7687C169.651 37.9985 170.951 40.9902 171.061 44.1408ZM149.713 35.7687C151.415 34.0597 153.575 32.8805 155.932 32.3738C155.904 34.8077 154.86 37.2634 153.035 39.09C151.307 40.8164 148.9 41.7445 146.402 41.7367C146.926 39.4769 148.073 37.4094 149.713 35.7687Z" fill="#EDF2F1"/>
<path d="M130.88 107.322V105.828H141.311V107.322H136.938V119.737H135.254V107.322H130.88ZM146.554 119.954C145.549 119.954 144.682 119.732 143.953 119.289C143.229 118.84 142.67 118.216 142.276 117.414C141.886 116.608 141.692 115.671 141.692 114.603C141.692 113.534 141.886 112.592 142.276 111.777C142.67 110.958 143.217 110.32 143.919 109.862C144.626 109.401 145.45 109.17 146.391 109.17C146.935 109.17 147.471 109.26 148.001 109.441C148.53 109.622 149.013 109.917 149.447 110.324C149.882 110.727 150.228 111.261 150.486 111.927C150.744 112.592 150.873 113.412 150.873 114.385V115.064H142.833V113.679H149.244C149.244 113.09 149.126 112.565 148.89 112.103C148.66 111.642 148.329 111.277 147.899 111.01C147.473 110.743 146.971 110.609 146.391 110.609C145.753 110.609 145.2 110.768 144.734 111.085C144.272 111.397 143.917 111.805 143.668 112.307C143.419 112.81 143.294 113.349 143.294 113.924V114.847C143.294 115.635 143.43 116.303 143.702 116.851C143.978 117.394 144.361 117.808 144.85 118.093C145.339 118.374 145.907 118.514 146.554 118.514C146.975 118.514 147.356 118.456 147.695 118.338C148.039 118.216 148.336 118.034 148.585 117.795C148.834 117.55 149.026 117.247 149.162 116.885L150.71 117.319C150.547 117.844 150.274 118.306 149.889 118.705C149.504 119.098 149.028 119.406 148.463 119.628C147.897 119.845 147.261 119.954 146.554 119.954ZM154.914 113.462V119.737H153.312V109.305H154.86V110.935H154.996C155.24 110.406 155.611 109.98 156.109 109.659C156.608 109.333 157.25 109.17 158.038 109.17C158.744 109.17 159.363 109.315 159.892 109.604C160.422 109.89 160.834 110.324 161.128 110.908C161.423 111.488 161.57 112.221 161.57 113.109V119.737H159.967V113.217C159.967 112.398 159.754 111.759 159.329 111.302C158.903 110.84 158.319 110.609 157.576 110.609C157.065 110.609 156.608 110.72 156.205 110.942C155.806 111.164 155.491 111.488 155.261 111.913C155.03 112.339 154.914 112.855 154.914 113.462ZM166.101 113.462V119.737H164.498V109.305H166.047V110.935H166.183C166.427 110.406 166.798 109.98 167.296 109.659C167.794 109.333 168.437 109.17 169.225 109.17C169.931 109.17 170.549 109.315 171.079 109.604C171.609 109.89 172.021 110.324 172.315 110.908C172.609 111.488 172.757 112.221 172.757 113.109V119.737H171.154V113.217C171.154 112.398 170.941 111.759 170.515 111.302C170.09 110.84 169.506 110.609 168.763 110.609C168.252 110.609 167.794 110.72 167.391 110.942C166.993 111.164 166.678 111.488 166.447 111.913C166.217 112.339 166.101 112.855 166.101 113.462ZM175.685 119.737V109.305H177.288V119.737H175.685ZM176.5 107.567C176.188 107.567 175.918 107.461 175.692 107.248C175.47 107.035 175.359 106.779 175.359 106.48C175.359 106.182 175.47 105.926 175.692 105.713C175.918 105.5 176.188 105.394 176.5 105.394C176.813 105.394 177.08 105.5 177.302 105.713C177.528 105.926 177.641 106.182 177.641 106.48C177.641 106.779 177.528 107.035 177.302 107.248C177.08 107.461 176.813 107.567 176.5 107.567ZM187.612 111.642L186.173 112.049C186.082 111.809 185.949 111.576 185.772 111.35C185.6 111.119 185.364 110.929 185.066 110.779C184.767 110.63 184.384 110.555 183.918 110.555C183.28 110.555 182.748 110.702 182.322 110.997C181.901 111.286 181.69 111.655 181.69 112.103C181.69 112.502 181.835 112.817 182.125 113.047C182.415 113.278 182.868 113.471 183.483 113.625L185.032 114.005C185.964 114.231 186.659 114.578 187.117 115.044C187.574 115.506 187.803 116.101 187.803 116.83C187.803 117.428 187.63 117.962 187.286 118.433C186.947 118.904 186.471 119.275 185.86 119.547C185.249 119.818 184.538 119.954 183.728 119.954C182.664 119.954 181.783 119.723 181.086 119.261C180.389 118.8 179.947 118.125 179.762 117.238L181.283 116.857C181.428 117.419 181.702 117.84 182.105 118.121C182.512 118.401 183.044 118.542 183.701 118.542C184.448 118.542 185.041 118.383 185.48 118.066C185.924 117.745 186.145 117.36 186.145 116.912C186.145 116.549 186.019 116.246 185.765 116.002C185.512 115.753 185.122 115.567 184.597 115.445L182.859 115.037C181.903 114.811 181.201 114.46 180.753 113.985C180.31 113.505 180.088 112.905 180.088 112.185C180.088 111.596 180.253 111.076 180.583 110.623C180.918 110.17 181.373 109.815 181.948 109.557C182.528 109.299 183.184 109.17 183.918 109.17C184.95 109.17 185.761 109.396 186.349 109.849C186.942 110.302 187.363 110.899 187.612 111.642Z" fill="#1E1E1E"/>
<g opacity="0.7">
<rect x="240.842" y="7.9731" width="80.5946" height="77.8626" rx="38.9313" fill="#EDF2F1"/>
<path d="M290.988 52.505L288.748 50.2648C288.552 50.0828 288.417 49.8441 288.364 49.5821C288.31 49.32 288.339 49.0477 288.447 48.8031C288.924 47.7801 289.175 46.6668 289.185 45.5384C289.191 45.493 289.191 45.4471 289.185 45.4018C289.19 43.7672 288.684 42.172 287.737 40.8393C285.908 38.2832 283.484 36.2109 280.675 34.8015C278.893 33.9291 276.883 33.6327 274.925 33.9534C272.967 34.274 271.158 35.1958 269.747 36.591L268.832 37.5062C267.422 38.9223 266.491 40.7445 266.17 42.7169C265.849 44.6892 266.154 46.7125 267.042 48.5026L267.179 48.7348C266.45 49.4911 266.039 50.4984 266.031 51.5488C266.037 52.2736 266.234 52.984 266.604 53.6076C266.973 54.2311 267.502 54.7455 268.135 55.0982C268.768 55.451 269.484 55.6294 270.208 55.6154C270.933 55.6014 271.641 55.3954 272.26 55.0185C272.506 55.2097 272.725 55.4146 272.971 55.5922C273.488 55.9517 274.047 56.2454 274.637 56.4664H274.76C275.006 56.5621 275.265 56.644 275.539 56.726H275.744C276.169 56.8352 276.603 56.9038 277.041 56.9309H277.424H277.588H277.888C278.175 56.9309 278.448 56.9309 278.735 56.8489H278.967C279.639 56.7336 280.292 56.5268 280.907 56.2342C281.152 56.1354 281.421 56.11 281.68 56.1609C281.94 56.2118 282.179 56.3369 282.369 56.5211L284.363 58.5154C285.228 59.3838 286.402 59.8748 287.628 59.8815C288.656 59.8704 289.638 59.453 290.36 58.7203L290.879 58.2013C291.632 57.4514 292.065 56.4381 292.085 55.3752C292.106 54.3124 291.712 53.2832 290.988 52.505ZM270.088 52.9421C269.818 52.9421 269.554 52.862 269.329 52.7119C269.105 52.5618 268.93 52.3485 268.826 52.0989C268.723 51.8493 268.696 51.5746 268.749 51.3096C268.801 51.0446 268.931 50.8012 269.122 50.6102C269.313 50.4192 269.557 50.2891 269.822 50.2364C270.087 50.1836 270.361 50.2107 270.611 50.3141C270.861 50.4175 271.074 50.5926 271.224 50.8172C271.374 51.0418 271.454 51.3059 271.454 51.5761C271.454 51.9384 271.31 52.2859 271.054 52.542C270.798 52.7982 270.451 52.9421 270.088 52.9421ZM274.323 53.1334L273.968 52.8602C274.11 52.4469 274.184 52.0132 274.186 51.5761C274.186 50.4893 273.755 49.4469 272.986 48.6784C272.218 47.9098 271.175 47.4781 270.088 47.4781C269.911 47.4781 269.747 47.4781 269.569 47.4781L269.446 47.2595C268.811 45.9817 268.592 44.5369 268.82 43.1282C269.047 41.7194 269.711 40.4174 270.717 39.405L271.632 38.4897C272.657 37.507 273.964 36.8683 275.369 36.6626C276.774 36.457 278.209 36.6946 279.473 37.3423C281.767 38.49 283.761 40.1604 285.292 42.219L274.323 53.1334ZM289.049 56.3708L288.543 56.8899C287.969 57.4636 287.081 57.3543 286.344 56.6167L284.349 54.636C283.762 54.0525 283.012 53.6606 282.197 53.5118C281.383 53.3631 280.543 53.4645 279.787 53.8027C279.356 54.0138 278.895 54.1566 278.421 54.2262C278.16 54.276 277.894 54.2989 277.629 54.2945H277.164H277.028L286.412 44.91C286.508 45.8459 286.347 46.7903 285.948 47.642C285.609 48.3977 285.508 49.238 285.657 50.0525C285.806 50.8669 286.197 51.6172 286.781 52.2045L289.021 54.4584C289.275 54.7102 289.42 55.0515 289.425 55.409C289.431 55.7666 289.295 56.1119 289.049 56.3708Z" fill="black"/>
<path d="M243.508 112.764V100.842H247.536C248.471 100.842 249.236 101.011 249.83 101.349C250.427 101.682 250.87 102.134 251.157 102.705C251.444 103.275 251.587 103.912 251.587 104.614C251.587 105.317 251.444 105.955 251.157 106.529C250.873 107.104 250.435 107.562 249.841 107.903C249.247 108.241 248.487 108.41 247.559 108.41H244.672V107.129H247.513C248.153 107.129 248.667 107.018 249.055 106.797C249.443 106.576 249.725 106.277 249.899 105.901C250.078 105.52 250.167 105.092 250.167 104.614C250.167 104.137 250.078 103.71 249.899 103.334C249.725 102.957 249.441 102.662 249.05 102.449C248.658 102.231 248.138 102.123 247.489 102.123H244.951V112.764H243.508ZM253.727 112.764V103.823H255.1V112.764H253.727ZM254.425 102.332C254.157 102.332 253.927 102.241 253.733 102.059C253.542 101.876 253.447 101.657 253.447 101.401C253.447 101.145 253.542 100.926 253.733 100.743C253.927 100.561 254.157 100.47 254.425 100.47C254.693 100.47 254.922 100.561 255.112 100.743C255.306 100.926 255.403 101.145 255.403 101.401C255.403 101.657 255.306 101.876 255.112 102.059C254.922 102.241 254.693 102.332 254.425 102.332ZM258.99 107.385V112.764H257.617V103.823H258.944V105.22H259.06C259.27 104.766 259.588 104.401 260.015 104.125C260.442 103.846 260.993 103.706 261.668 103.706C262.274 103.706 262.803 103.83 263.257 104.079C263.711 104.323 264.064 104.696 264.317 105.196C264.569 105.693 264.695 106.322 264.695 107.082V112.764H263.321V107.176C263.321 106.473 263.139 105.926 262.774 105.534C262.409 105.138 261.909 104.94 261.272 104.94C260.834 104.94 260.442 105.035 260.096 105.225C259.755 105.416 259.485 105.693 259.287 106.058C259.089 106.423 258.99 106.865 258.99 107.385ZM270.814 116.303C270.151 116.303 269.58 116.218 269.103 116.047C268.626 115.88 268.228 115.659 267.91 115.383C267.595 115.112 267.345 114.821 267.159 114.51L268.253 113.742C268.377 113.905 268.535 114.091 268.725 114.3C268.915 114.514 269.175 114.698 269.505 114.853C269.838 115.013 270.275 115.092 270.814 115.092C271.536 115.092 272.132 114.918 272.602 114.568C273.071 114.219 273.306 113.672 273.306 112.927V111.111H273.189C273.089 111.274 272.945 111.475 272.759 111.716C272.576 111.953 272.312 112.164 271.967 112.35C271.626 112.533 271.164 112.624 270.582 112.624C269.86 112.624 269.212 112.453 268.637 112.112C268.067 111.77 267.615 111.274 267.281 110.622C266.951 109.97 266.786 109.178 266.786 108.247C266.786 107.331 266.947 106.533 267.269 105.854C267.592 105.171 268.04 104.643 268.614 104.271C269.188 103.894 269.852 103.706 270.605 103.706C271.187 103.706 271.649 103.803 271.99 103.997C272.336 104.187 272.6 104.405 272.782 104.649C272.968 104.89 273.112 105.088 273.213 105.243H273.352V103.823H274.68V113.02C274.68 113.788 274.505 114.413 274.156 114.894C273.81 115.379 273.345 115.734 272.759 115.959C272.177 116.188 271.529 116.303 270.814 116.303ZM270.768 111.39C271.319 111.39 271.785 111.264 272.165 111.012C272.545 110.759 272.834 110.397 273.032 109.923C273.23 109.45 273.329 108.883 273.329 108.223C273.329 107.579 273.232 107.011 273.038 106.518C272.844 106.025 272.557 105.639 272.177 105.359C271.796 105.08 271.327 104.94 270.768 104.94C270.186 104.94 269.701 105.088 269.313 105.383C268.928 105.678 268.639 106.073 268.445 106.57C268.255 107.067 268.16 107.618 268.16 108.223C268.16 108.844 268.257 109.393 268.451 109.871C268.649 110.344 268.94 110.717 269.324 110.988C269.712 111.256 270.194 111.39 270.768 111.39ZM281.991 112.764V100.842H286.019C286.954 100.842 287.719 101.011 288.313 101.349C288.91 101.682 289.353 102.134 289.64 102.705C289.927 103.275 290.071 103.912 290.071 104.614C290.071 105.317 289.927 105.955 289.64 106.529C289.356 107.104 288.918 107.562 288.324 107.903C287.73 108.241 286.97 108.41 286.042 108.41H283.155V107.129H285.996C286.636 107.129 287.15 107.018 287.538 106.797C287.926 106.576 288.208 106.277 288.382 105.901C288.561 105.52 288.65 105.092 288.65 104.614C288.65 104.137 288.561 103.71 288.382 103.334C288.208 102.957 287.925 102.662 287.533 102.449C287.141 102.231 286.621 102.123 285.973 102.123H283.435V112.764H281.991ZM295.746 112.95C294.939 112.95 294.231 112.758 293.621 112.374C293.016 111.99 292.543 111.452 292.201 110.761C291.863 110.071 291.695 109.263 291.695 108.34C291.695 107.408 291.863 106.595 292.201 105.901C292.543 105.206 293.016 104.667 293.621 104.282C294.231 103.898 294.939 103.706 295.746 103.706C296.553 103.706 297.26 103.898 297.865 104.282C298.474 104.667 298.948 105.206 299.285 105.901C299.627 106.595 299.798 107.408 299.798 108.34C299.798 109.263 299.627 110.071 299.285 110.761C298.948 111.452 298.474 111.99 297.865 112.374C297.26 112.758 296.553 112.95 295.746 112.95ZM295.746 111.716C296.359 111.716 296.864 111.559 297.26 111.244C297.655 110.93 297.948 110.517 298.139 110.005C298.329 109.492 298.424 108.937 298.424 108.34C298.424 107.742 298.329 107.185 298.139 106.669C297.948 106.153 297.655 105.736 297.26 105.418C296.864 105.099 296.359 104.94 295.746 104.94C295.133 104.94 294.628 105.099 294.233 105.418C293.837 105.736 293.544 106.153 293.354 106.669C293.163 107.185 293.068 107.742 293.068 108.34C293.068 108.937 293.163 109.492 293.354 110.005C293.544 110.517 293.837 110.93 294.233 111.244C294.628 111.559 295.133 111.716 295.746 111.716ZM303.268 107.385V112.764H301.895V103.823H303.222V105.22H303.338C303.548 104.766 303.866 104.401 304.293 104.125C304.72 103.846 305.271 103.706 305.946 103.706C306.551 103.706 307.081 103.83 307.535 104.079C307.989 104.323 308.342 104.696 308.595 105.196C308.847 105.693 308.973 106.322 308.973 107.082V112.764H307.599V107.176C307.599 106.473 307.417 105.926 307.052 105.534C306.687 105.138 306.187 104.94 305.55 104.94C305.112 104.94 304.72 105.035 304.374 105.225C304.033 105.416 303.763 105.693 303.565 106.058C303.367 106.423 303.268 106.865 303.268 107.385ZM315.092 116.303C314.429 116.303 313.858 116.218 313.381 116.047C312.904 115.88 312.506 115.659 312.188 115.383C311.873 115.112 311.623 114.821 311.437 114.51L312.531 113.742C312.655 113.905 312.812 114.091 313.003 114.3C313.193 114.514 313.453 114.698 313.783 114.853C314.116 115.013 314.553 115.092 315.092 115.092C315.814 115.092 316.41 114.918 316.879 114.568C317.349 114.219 317.584 113.672 317.584 112.927V111.111H317.467C317.366 111.274 317.223 111.475 317.037 111.716C316.854 111.953 316.59 112.164 316.245 112.35C315.903 112.533 315.442 112.624 314.86 112.624C314.138 112.624 313.49 112.453 312.915 112.112C312.345 111.77 311.893 111.274 311.559 110.622C311.229 109.97 311.064 109.178 311.064 108.247C311.064 107.331 311.225 106.533 311.547 105.854C311.869 105.171 312.318 104.643 312.892 104.271C313.466 103.894 314.13 103.706 314.883 103.706C315.465 103.706 315.927 103.803 316.268 103.997C316.614 104.187 316.878 104.405 317.06 104.649C317.246 104.89 317.39 105.088 317.491 105.243H317.63V103.823H318.958V113.02C318.958 113.788 318.783 114.413 318.434 114.894C318.088 115.379 317.623 115.734 317.037 115.959C316.455 116.188 315.806 116.303 315.092 116.303ZM315.046 111.39C315.597 111.39 316.063 111.264 316.443 111.012C316.823 110.759 317.112 110.397 317.31 109.923C317.508 109.45 317.607 108.883 317.607 108.223C317.607 107.579 317.51 107.011 317.316 106.518C317.122 106.025 316.835 105.639 316.455 105.359C316.074 105.08 315.605 104.94 315.046 104.94C314.464 104.94 313.979 105.088 313.591 105.383C313.206 105.678 312.917 106.073 312.723 106.57C312.533 107.067 312.438 107.618 312.438 108.223C312.438 108.844 312.535 109.393 312.729 109.871C312.927 110.344 313.218 110.717 313.602 110.988C313.99 111.256 314.471 111.39 315.046 111.39Z" fill="#1E1E1E"/>
</g>
</svg>
